<?xml version="1.0" encoding="UTF-8" standalone="no"?>
<!-- Created with Inkscape (http://www.inkscape.org/) -->

<svg
   xmlns:dc="http://purl.org/dc/elements/1.1/"
   xmlns:cc="http://creativecommons.org/ns#"
   xmlns:rdf="http://www.w3.org/1999/02/22-rdf-syntax-ns#"
   xmlns:svg="http://www.w3.org/2000/svg"
   xmlns="http://www.w3.org/2000/svg"
   xmlns:sodipodi="http://sodipodi.sourceforge.net/DTD/sodipodi-0.dtd"
   xmlns:inkscape="http://www.inkscape.org/namespaces/inkscape"
   version="1.1"
   id="svg2"
   xml:space="preserve"
   width="793.33331"
   height="1122.6667"
   viewBox="0 0 793.33331 1122.6667"
   sodipodi:docname="affine.svg"
   inkscape:version="0.92.2 (5c3e80d, 2017-08-06)"><metadata
     id="metadata8"><rdf:RDF><cc:Work
         rdf:about=""><dc:format>image/svg+xml</dc:format><dc:type
           rdf:resource="http://purl.org/dc/dcmitype/StillImage" /><dc:title /></cc:Work></rdf:RDF></metadata><defs
     id="defs6" /><sodipodi:namedview
     pagecolor="#ffffff"
     bordercolor="#666666"
     borderopacity="1"
     objecttolerance="10"
     gridtolerance="10"
     guidetolerance="10"
     inkscape:pageopacity="0"
     inkscape:pageshadow="2"
     inkscape:window-width="1920"
     inkscape:window-height="1176"
     id="namedview4"
     showgrid="false"
     inkscape:zoom="1.7618158"
     inkscape:cx="469.46463"
     inkscape:cy="429.13833"
     inkscape:window-x="1920"
     inkscape:window-y="24"
     inkscape:window-maximized="1"
     inkscape:current-layer="g10" /><g
     id="g10"
     inkscape:groupmode="layer"
     inkscape:label="ink_ext_XXXXXX"
     transform="matrix(1.3333333,0,0,-1.3333333,0,1122.6667)"><path
       inkscape:connector-curvature="0"
       id="path1004"
       style="fill:none;stroke:#00b7b7;stroke-width:2.4467535;stroke-linecap:butt;stroke-linejoin:miter;stroke-miterlimit:10.43299961;stroke-dasharray:none;stroke-opacity:1"
       d="M 147.73477,375.6403 225,450"
       sodipodi:nodetypes="cc" /><path
       sodipodi:nodetypes="cc"
       d="m 372.17699,300.70218 77.26523,74.3597"
       style="fill:none;stroke:#00b7b7;stroke-width:2.4467535;stroke-linecap:butt;stroke-linejoin:miter;stroke-miterlimit:10.43299961;stroke-dasharray:none;stroke-opacity:1"
       id="path1000"
       inkscape:connector-curvature="0" /><path
       inkscape:connector-curvature="0"
       id="path998"
       style="fill:none;stroke:#00b7b7;stroke-width:2.4467535;stroke-linecap:butt;stroke-linejoin:miter;stroke-miterlimit:10.43299961;stroke-dasharray:none;stroke-opacity:1"
       d="M 323.7813,300.25469 447.26944,423.99224"
       sodipodi:nodetypes="cc" /><path
       inkscape:connector-curvature="0"
       id="path1002"
       style="fill:none;stroke:#00b7b7;stroke-width:2.4467535;stroke-linecap:butt;stroke-linejoin:miter;stroke-miterlimit:10.43299961;stroke-dasharray:none;stroke-opacity:1"
       d="M 150.02063,325.4475 275,450"
       sodipodi:nodetypes="cc" /><path
       sodipodi:nodetypes="cc"
       d="M 173.99473,298.80194 325,450"
       style="fill:none;stroke:#00b7b7;stroke-width:2.4467535;stroke-linecap:butt;stroke-linejoin:miter;stroke-miterlimit:10.43299961;stroke-dasharray:none;stroke-opacity:1"
       id="path992"
       inkscape:connector-curvature="0" /><path
       inkscape:connector-curvature="0"
       id="path990"
       style="fill:none;stroke:#00b7b7;stroke-width:2.4467535;stroke-linecap:butt;stroke-linejoin:miter;stroke-miterlimit:10.43299961;stroke-dasharray:none;stroke-opacity:1"
       d="M 223.99473,298.80194 375,450"
       sodipodi:nodetypes="cc" /><path
       sodipodi:nodetypes="cc"
       d="M 273.99473,298.80194 425,450"
       style="fill:none;stroke:#00b7b7;stroke-width:2.4467535;stroke-linecap:butt;stroke-linejoin:miter;stroke-miterlimit:10.43299961;stroke-dasharray:none;stroke-opacity:1"
       id="path988"
       inkscape:connector-curvature="0" /><path
       d="M 150,150.48874 H 450"
       style="fill:none;stroke:#b2b2b2;stroke-width:2;stroke-linecap:butt;stroke-linejoin:miter;stroke-miterlimit:10.43299961;stroke-dasharray:none;stroke-opacity:1"
       id="path984"
       inkscape:connector-curvature="0" /><path
       inkscape:connector-curvature="0"
       id="path14"
       style="fill:none;stroke:#b2b2b2;stroke-width:2;stroke-linecap:butt;stroke-linejoin:miter;stroke-miterlimit:10.43299961;stroke-dasharray:none;stroke-opacity:1"
       d="M 224.1669,301.41149 225,150"
       sodipodi:nodetypes="cc" /><path
       inkscape:connector-curvature="0"
       id="path20"
       style="fill:none;stroke:#b2b2b2;stroke-width:2;stroke-linecap:butt;stroke-linejoin:miter;stroke-miterlimit:10.43299961;stroke-dasharray:none;stroke-opacity:1"
       d="M 324.22879,299.036 325,150"
       sodipodi:nodetypes="cc" /><path
       inkscape:connector-curvature="0"
       id="path24"
       style="fill:none;stroke:#b2b2b2;stroke-width:2;stroke-linecap:butt;stroke-linejoin:miter;stroke-miterlimit:10.43299961;stroke-dasharray:none;stroke-opacity:1"
       d="M 373.99473,250.04126 375,150"
       sodipodi:nodetypes="cc" /><path
       inkscape:connector-curvature="0"
       id="path26"
       style="fill:none;stroke:#b2b2b2;stroke-width:2;stroke-linecap:butt;stroke-linejoin:miter;stroke-miterlimit:10.43299961;stroke-dasharray:none;stroke-opacity:1"
       d="M 273.99473,298.80194 275,150"
       sodipodi:nodetypes="cc" /><path
       inkscape:connector-curvature="0"
       id="path30"
       style="fill:none;stroke:#b2b2b2;stroke-width:2;stroke-linecap:butt;stroke-linejoin:miter;stroke-miterlimit:10.43299961;stroke-dasharray:none;stroke-opacity:1"
       d="M 175.1928,300.5784 175,150"
       sodipodi:nodetypes="cc" /><path
       inkscape:connector-curvature="0"
       id="path32"
       style="fill:none;stroke:#b2b2b2;stroke-width:2;stroke-linecap:butt;stroke-linejoin:miter;stroke-miterlimit:10.43299961;stroke-dasharray:none;stroke-opacity:1"
       d="M 424.22879,300.50938 425,150"
       sodipodi:nodetypes="cc" /><path
       inkscape:connector-curvature="0"
       id="path34"
       style="fill:none;stroke:#00b6b8;stroke-width:2;stroke-linecap:butt;stroke-linejoin:miter;stroke-miterlimit:10.43299961;stroke-dasharray:none;stroke-opacity:1"
       d="M 150,450.40623 H 450" /><path
       inkscape:connector-curvature="0"
       id="path36"
       style="fill:none;stroke:#b2b2b2;stroke-width:2;stroke-linecap:butt;stroke-linejoin:miter;stroke-miterlimit:10.43299961;stroke-dasharray:none;stroke-opacity:1"
       d="M 150,250 H 450" /><path
       inkscape:connector-curvature="0"
       id="path38"
       style="fill:none;stroke:#00b6b8;stroke-width:2;stroke-linecap:butt;stroke-linejoin:miter;stroke-miterlimit:10.43299961;stroke-dasharray:none;stroke-opacity:1"
       d="M 150,400 H 450" /><path
       inkscape:connector-curvature="0"
       id="path42"
       style="fill:none;stroke:#b2b2b2;stroke-width:2;stroke-linecap:butt;stroke-linejoin:miter;stroke-miterlimit:10.43299961;stroke-dasharray:none;stroke-opacity:1"
       d="M 150,300 H 450" /><path
       inkscape:connector-curvature="0"
       id="path48"
       style="fill:none;stroke:#00b6b8;stroke-width:2;stroke-linecap:butt;stroke-linejoin:miter;stroke-miterlimit:10.43299961;stroke-dasharray:none;stroke-opacity:1"
       d="M 150,350 H 450" /><path
       inkscape:connector-curvature="0"
       id="path50"
       style="fill:none;stroke:#b2b2b2;stroke-width:2;stroke-linecap:butt;stroke-linejoin:miter;stroke-miterlimit:10.43299961;stroke-dasharray:none;stroke-opacity:1"
       d="M 150,200 H 450" /><path
       inkscape:connector-curvature="0"
       id="path68"
       style="fill:none;stroke:#000000;stroke-width:8;stroke-linecap:butt;stroke-linejoin:miter;stroke-miterlimit:10.43299961;stroke-dasharray:none;stroke-opacity:1"
       d="m 174.20816,199.82783 50.81247,49.38034 48.9741,0.83309 0.21343,-50.21343 L 225,150 h -50 z"
       sodipodi:nodetypes="ccccccc" /><g
       id="g901"
       transform="translate(-124.55251,-73.740039)"><path
         d="m 307.5,225 c 0,-4.142 -3.358,-7.5 -7.5,-7.5 -4.142,0 -7.5,3.358 -7.5,7.5 0,4.142 3.358,7.5 7.5,7.5 4.142,0 7.5,-3.358 7.5,-7.5"
         style="fill:#00ff00;fill-opacity:1;fill-rule:evenodd;stroke:none;stroke-width:0.1"
         id="path96"
         inkscape:connector-curvature="0" /><path
         d="m 307.5,225 c 0,-4.142 -3.358,-7.5 -7.5,-7.5 -4.142,0 -7.5,3.358 -7.5,7.5 0,4.142 3.358,7.5 7.5,7.5 4.142,0 7.5,-3.358 7.5,-7.5"
         style="fill:none;stroke:#000000;stroke-width:1;stroke-linecap:butt;stroke-linejoin:miter;stroke-miterlimit:10.43299961;stroke-dasharray:none;stroke-opacity:1"
         id="path98"
         inkscape:connector-curvature="0" /></g><path
       sodipodi:nodetypes="ccccccc"
       d="m 273.99473,250.04126 50.81247,49.38034 48.9741,0.83309 0.21343,-50.21343 -49.20816,-49.82783 h -50 z"
       style="fill:none;stroke:#000000;stroke-width:8;stroke-linecap:butt;stroke-linejoin:miter;stroke-miterlimit:10.43299961;stroke-dasharray:none;stroke-opacity:1"
       id="path907"
       inkscape:connector-curvature="0" /><path
       inkscape:connector-curvature="0"
       id="path909"
       style="fill:none;stroke:#000000;stroke-width:8;stroke-linecap:butt;stroke-linejoin:miter;stroke-miterlimit:10.43299961;stroke-dasharray:none;stroke-opacity:1"
       d="m 224.22879,299.036 50.81247,49.38034 48.9741,0.83309 0.21343,-50.21343 -49.20816,-49.82783 h -50 z"
       sodipodi:nodetypes="ccccccc" /><path
       sodipodi:nodetypes="ccccccc"
       d="m 322.98946,350.08252 50.81247,49.38034 48.9741,0.83309 0.21343,-50.21343 -49.20816,-49.82783 h -50 z"
       style="fill:none;stroke:#000000;stroke-width:8;stroke-linecap:butt;stroke-linejoin:miter;stroke-miterlimit:10.43299961;stroke-dasharray:none;stroke-opacity:1"
       id="path911"
       inkscape:connector-curvature="0" /><path
       inkscape:connector-curvature="0"
       id="path913"
       style="fill:none;stroke:#000000;stroke-width:8;stroke-linecap:butt;stroke-linejoin:miter;stroke-miterlimit:10.43299961;stroke-dasharray:none;stroke-opacity:1"
       d="M 274.18753,400.61966 325,450 l 48.9741,0.83309 0.21343,-50.21343 -49.20816,-49.82783 h -50 z"
       sodipodi:nodetypes="ccccccc" /><path
       sodipodi:nodetypes="ccccccc"
       d="m 174.40096,350.40623 50.81247,49.38034 48.9741,0.83309 0.21343,-50.21343 -49.20816,-49.82783 h -50 z"
       style="fill:none;stroke:#000000;stroke-width:8;stroke-linecap:butt;stroke-linejoin:miter;stroke-miterlimit:10.43299961;stroke-dasharray:none;stroke-opacity:1"
       id="path915"
       inkscape:connector-curvature="0" /><path
       inkscape:connector-curvature="0"
       id="path917"
       style="fill:none;stroke:#000000;stroke-width:8;stroke-linecap:butt;stroke-linejoin:miter;stroke-miterlimit:10.43299961;stroke-dasharray:none;stroke-opacity:1"
       d="m 324.78657,200.21343 50.81247,49.38034 48.9741,0.83309 0.21343,-50.21343 -49.20816,-49.82783 h -50 z"
       sodipodi:nodetypes="ccccccc" /><path
       sodipodi:nodetypes="cccccc"
       d="m 446.84786,275.05409 -23.87903,-24.17974 h -50 l -0.79184,49.82783 50.81247,49.38034 24.4226,0.41545"
       style="fill:none;stroke:#000000;stroke-width:8.0002502;stroke-linecap:round;stroke-linejoin:miter;stroke-miterlimit:10.43299961;stroke-dasharray:none;stroke-opacity:1"
       id="path919"
       inkscape:connector-curvature="0" /><path
       sodipodi:nodetypes="cccc"
       d="m 225,150 50.81247,49.38034 48.9741,0.83309 L 325,150"
       style="fill:none;stroke:#000000;stroke-width:8;stroke-linecap:butt;stroke-linejoin:miter;stroke-miterlimit:10.43299961;stroke-dasharray:none;stroke-opacity:1"
       id="path923"
       inkscape:connector-curvature="0" /><path
       inkscape:connector-curvature="0"
       id="path927"
       style="fill:none;stroke:#000000;stroke-width:8;stroke-linecap:round;stroke-linejoin:miter;stroke-miterlimit:10.43299961;stroke-dasharray:none;stroke-opacity:1"
       d="m 150.52129,426.38772 23.9003,23.22668 48.9741,0.83309 0.21343,-50.21343 -49.20816,-49.82783 h -25.68155"
       sodipodi:nodetypes="cccccc" /><path
       sodipodi:nodetypes="cccc"
       d="m 447.26944,423.99224 -23.08191,-23.37258 h -50 l -0.79184,49.82783"
       style="fill:none;stroke:#000000;stroke-width:8;stroke-linecap:round;stroke-linejoin:miter;stroke-miterlimit:10.43299961;stroke-dasharray:none;stroke-opacity:1"
       id="path929"
       inkscape:connector-curvature="0" /><path
       sodipodi:nodetypes="cccccc"
       d="m 151.2925,277.35172 23.9003,23.22668 48.9741,0.83309 0.21343,-50.21343 -49.20816,-49.82783 h -25.68155"
       style="fill:none;stroke:#000000;stroke-width:8;stroke-linecap:round;stroke-linejoin:miter;stroke-miterlimit:10.43299961;stroke-dasharray:none;stroke-opacity:1"
       id="path931"
       inkscape:connector-curvature="0" /><path
       inkscape:connector-curvature="0"
       id="path933"
       style="fill:none;stroke:#000000;stroke-width:8;stroke-linecap:round;stroke-linejoin:miter;stroke-miterlimit:10.43299961;stroke-dasharray:none;stroke-opacity:1"
       d="M 425.5774,199.58455 450,200"
       sodipodi:nodetypes="cc" /><g
       id="g905"
       transform="translate(-125.17218,-73.74004)"><path
         d="m 307.5,275 c 0,-4.142 -3.358,-7.5 -7.5,-7.5 -4.142,0 -7.5,3.358 -7.5,7.5 0,4.142 3.358,7.5 7.5,7.5 4.142,0 7.5,-3.358 7.5,-7.5"
         style="fill:#ff0000;fill-opacity:1;fill-rule:evenodd;stroke:none;stroke-width:0.1"
         id="path88"
         inkscape:connector-curvature="0" /><path
         d="m 307.5,275 c 0,-4.142 -3.358,-7.5 -7.5,-7.5 -4.142,0 -7.5,3.358 -7.5,7.5 0,4.142 3.358,7.5 7.5,7.5 4.142,0 7.5,-3.358 7.5,-7.5"
         style="fill:none;stroke:#000000;stroke-width:1;stroke-linecap:butt;stroke-linejoin:miter;stroke-miterlimit:10.43299961;stroke-dasharray:none;stroke-opacity:1"
         id="path90"
         inkscape:connector-curvature="0" /></g><g
       id="g945"
       transform="translate(1.8589927,48.33381)"><path
         inkscape:connector-curvature="0"
         id="path935"
         style="fill:#0000ff;fill-opacity:1;fill-rule:evenodd;stroke:none;stroke-width:0.1"
         d="m 230.66163,102.30649 c 0,-4.142 -3.358,-7.5 -7.5,-7.5 -4.142,0 -7.5,3.358 -7.5,7.5 0,4.142 3.358,7.5 7.5,7.5 4.142,0 7.5,-3.358 7.5,-7.5" /><path
         inkscape:connector-curvature="0"
         id="path937"
         style="fill:none;stroke:#000000;stroke-width:1;stroke-linecap:butt;stroke-linejoin:miter;stroke-miterlimit:10.43299961;stroke-dasharray:none;stroke-opacity:1"
         d="m 230.66163,102.30649 c 0,-4.142 -3.358,-7.5 -7.5,-7.5 -4.142,0 -7.5,3.358 -7.5,7.5 0,4.142 3.358,7.5 7.5,7.5 4.142,0 7.5,-3.358 7.5,-7.5" /></g><g
       transform="translate(24.166898,24.786572)"
       id="g951"><path
         inkscape:connector-curvature="0"
         id="path947"
         style="fill:#ff0000;fill-opacity:1;fill-rule:evenodd;stroke:none;stroke-width:0.1"
         d="m 307.5,275 c 0,-4.142 -3.358,-7.5 -7.5,-7.5 -4.142,0 -7.5,3.358 -7.5,7.5 0,4.142 3.358,7.5 7.5,7.5 4.142,0 7.5,-3.358 7.5,-7.5" /><path
         inkscape:connector-curvature="0"
         id="path949"
         style="fill:none;stroke:#000000;stroke-width:1;stroke-linecap:butt;stroke-linejoin:miter;stroke-miterlimit:10.43299961;stroke-dasharray:none;stroke-opacity:1"
         d="m 307.5,275 c 0,-4.142 -3.358,-7.5 -7.5,-7.5 -4.142,0 -7.5,3.358 -7.5,7.5 0,4.142 3.358,7.5 7.5,7.5 4.142,0 7.5,-3.358 7.5,-7.5" /></g><g
       transform="translate(73.120378,74.979375)"
       id="g957"><path
         inkscape:connector-curvature="0"
         id="path953"
         style="fill:#00ff00;fill-opacity:1;fill-rule:evenodd;stroke:none;stroke-width:0.1"
         d="m 307.5,225 c 0,-4.142 -3.358,-7.5 -7.5,-7.5 -4.142,0 -7.5,3.358 -7.5,7.5 0,4.142 3.358,7.5 7.5,7.5 4.142,0 7.5,-3.358 7.5,-7.5" /><path
         inkscape:connector-curvature="0"
         id="path955"
         style="fill:none;stroke:#000000;stroke-width:1;stroke-linecap:butt;stroke-linejoin:miter;stroke-miterlimit:10.43299961;stroke-dasharray:none;stroke-opacity:1"
         d="m 307.5,225 c 0,-4.142 -3.358,-7.5 -7.5,-7.5 -4.142,0 -7.5,3.358 -7.5,7.5 0,4.142 3.358,7.5 7.5,7.5 4.142,0 7.5,-3.358 7.5,-7.5" /></g><g
       transform="translate(200.15154,247.86569)"
       id="g963"><path
         d="m 230.66163,102.30649 c 0,-4.142 -3.358,-7.5 -7.5,-7.5 -4.142,0 -7.5,3.358 -7.5,7.5 0,4.142 3.358,7.5 7.5,7.5 4.142,0 7.5,-3.358 7.5,-7.5"
         style="fill:#0000ff;fill-opacity:1;fill-rule:evenodd;stroke:none;stroke-width:0.1"
         id="path959"
         inkscape:connector-curvature="0" /><path
         d="m 230.66163,102.30649 c 0,-4.142 -3.358,-7.5 -7.5,-7.5 -4.142,0 -7.5,3.358 -7.5,7.5 0,4.142 3.358,7.5 7.5,7.5 4.142,0 7.5,-3.358 7.5,-7.5"
         style="fill:none;stroke:#000000;stroke-width:1;stroke-linecap:butt;stroke-linejoin:miter;stroke-miterlimit:10.43299961;stroke-dasharray:none;stroke-opacity:1"
         id="path961"
         inkscape:connector-curvature="0" /></g><path
       inkscape:connector-curvature="0"
       id="path1006"
       style="fill:none;stroke:#00b7b7;stroke-width:2.4467535;stroke-linecap:butt;stroke-linejoin:miter;stroke-miterlimit:10.43299961;stroke-dasharray:none;stroke-opacity:1"
       d="m 424.22879,300.50938 24.59377,24.1669"
       sodipodi:nodetypes="cc" /><g
       id="g892"><path
         d="m 381.04778,350.44453 c 0,-4.142 -3.358,-7.5 -7.5,-7.5 -4.142,0 -7.5,3.358 -7.5,7.5 0,4.142 3.358,7.5 7.5,7.5 4.142,0 7.5,-3.358 7.5,-7.5"
         style="fill:#ffb9b9;fill-opacity:1;fill-rule:evenodd;stroke:none;stroke-width:0.1"
         id="path864"
         inkscape:connector-curvature="0" /><path
         d="m 381.04778,350.44453 c 0,-4.142 -3.358,-7.5 -7.5,-7.5 -4.142,0 -7.5,3.358 -7.5,7.5 0,4.142 3.358,7.5 7.5,7.5 4.142,0 7.5,-3.358 7.5,-7.5"
         style="fill:none;stroke:#000000;stroke-width:1;stroke-linecap:butt;stroke-linejoin:miter;stroke-miterlimit:10.43299961;stroke-dasharray:none;stroke-opacity:1"
         id="path866"
         inkscape:connector-curvature="0" /></g><g
       id="g886"
       transform="translate(-85.565135,-17.027888)"><path
         inkscape:connector-curvature="0"
         id="path876"
         style="fill:#b9b9ff;fill-opacity:1;fill-rule:evenodd;stroke:none;stroke-width:0.1"
         d="m 517.2297,316.9678 c 0,-4.142 -3.358,-7.5 -7.5,-7.5 -4.142,0 -7.5,3.358 -7.5,7.5 0,4.142 3.358,7.5 7.5,7.5 4.142,0 7.5,-3.358 7.5,-7.5" /><path
         inkscape:connector-curvature="0"
         id="path878"
         style="fill:none;stroke:#000000;stroke-width:1;stroke-linecap:butt;stroke-linejoin:miter;stroke-miterlimit:10.43299961;stroke-dasharray:none;stroke-opacity:1"
         d="m 517.2297,316.9678 c 0,-4.142 -3.358,-7.5 -7.5,-7.5 -4.142,0 -7.5,3.358 -7.5,7.5 0,4.142 3.358,7.5 7.5,7.5 4.142,0 7.5,-3.358 7.5,-7.5" /></g></g></svg>