<?xml version="1.0" encoding="UTF-8" standalone="no"?>
<!-- Created with Inkscape (http://www.inkscape.org/) -->

<svg
   xmlns:dc="http://purl.org/dc/elements/1.1/"
   xmlns:cc="http://creativecommons.org/ns#"
   xmlns:rdf="http://www.w3.org/1999/02/22-rdf-syntax-ns#"
   xmlns:svg="http://www.w3.org/2000/svg"
   xmlns="http://www.w3.org/2000/svg"
   xmlns:sodipodi="http://sodipodi.sourceforge.net/DTD/sodipodi-0.dtd"
   xmlns:inkscape="http://www.inkscape.org/namespaces/inkscape"
   version="1.1"
   id="svg2"
   xml:space="preserve"
   width="793.33331"
   height="1122.6667"
   viewBox="0 0 793.33331 1122.6667"
   sodipodi:docname="affine-squashed.svg"
   inkscape:version="0.92.2 (5c3e80d, 2017-08-06)"><metadata
     id="metadata8"><rdf:RDF><cc:Work
         rdf:about=""><dc:format>image/svg+xml</dc:format><dc:type
           rdf:resource="http://purl.org/dc/dcmitype/StillImage" /><dc:title></dc:title></cc:Work></rdf:RDF></metadata><defs
     id="defs6" /><sodipodi:namedview
     pagecolor="#ffffff"
     bordercolor="#666666"
     borderopacity="1"
     objecttolerance="10"
     gridtolerance="10"
     guidetolerance="10"
     inkscape:pageopacity="0"
     inkscape:pageshadow="2"
     inkscape:window-width="1920"
     inkscape:window-height="1176"
     id="namedview4"
     showgrid="false"
     inkscape:zoom="1.7618158"
     inkscape:cx="469.46463"
     inkscape:cy="429.13833"
     inkscape:window-x="1920"
     inkscape:window-y="24"
     inkscape:window-maximized="1"
     inkscape:current-layer="g10" /><g
     id="g10"
     inkscape:groupmode="layer"
     inkscape:label="ink_ext_XXXXXX"
     transform="matrix(1.3333333,0,0,-1.3333333,0,1122.6667)"><path
       inkscape:connector-curvature="0"
       id="path1004"
       style="fill:none;stroke:#00b7b7;stroke-width:2.64685655;stroke-linecap:butt;stroke-linejoin:miter;stroke-miterlimit:10.43299961;stroke-dasharray:none;stroke-opacity:1"
       d="M 115.17096,375.6403 161.93447,450"
       sodipodi:nodetypes="cc" /><path
       sodipodi:nodetypes="cc"
       d="m 421.82157,300.70218 46.76351,74.3597"
       style="fill:none;stroke:#00b7b7;stroke-width:2.64685655;stroke-linecap:butt;stroke-linejoin:miter;stroke-miterlimit:10.43299961;stroke-dasharray:none;stroke-opacity:1"
       id="path1000"
       inkscape:connector-curvature="0" /><path
       inkscape:connector-curvature="0"
       id="path998"
       style="fill:none;stroke:#00b7b7;stroke-width:2.64685655;stroke-linecap:butt;stroke-linejoin:miter;stroke-miterlimit:10.43299961;stroke-dasharray:none;stroke-opacity:1"
       d="m 365.44901,300.25469 71.86642,123.73755"
       sodipodi:nodetypes="cc" /><path
       inkscape:connector-curvature="0"
       id="path1002"
       style="fill:none;stroke:#00b7b7;stroke-width:2.64685655;stroke-linecap:butt;stroke-linejoin:miter;stroke-miterlimit:10.43299961;stroke-dasharray:none;stroke-opacity:1"
       d="M 147.31412,325.4475 220.4472,450"
       sodipodi:nodetypes="cc" /><path
       sodipodi:nodetypes="cc"
       d="M 191.0135,298.80194 278.95993,450"
       style="fill:none;stroke:#00b7b7;stroke-width:2.64685655;stroke-linecap:butt;stroke-linejoin:miter;stroke-miterlimit:10.43299961;stroke-dasharray:none;stroke-opacity:1"
       id="path992"
       inkscape:connector-curvature="0" /><path
       inkscape:connector-curvature="0"
       id="path990"
       style="fill:none;stroke:#00b7b7;stroke-width:2.64685655;stroke-linecap:butt;stroke-linejoin:miter;stroke-miterlimit:10.43299961;stroke-dasharray:none;stroke-opacity:1"
       d="M 249.52623,298.80194 337.47266,450"
       sodipodi:nodetypes="cc" /><path
       sodipodi:nodetypes="cc"
       d="M 308.03896,298.80194 395.98539,450"
       style="fill:none;stroke:#00b7b7;stroke-width:2.64685655;stroke-linecap:butt;stroke-linejoin:miter;stroke-miterlimit:10.43299961;stroke-dasharray:none;stroke-opacity:1"
       id="path988"
       inkscape:connector-curvature="0" /><path
       d="M 250.00802,150.48874 H 601.0844"
       style="fill:none;stroke:#b2b2b2;stroke-width:2.16356611;stroke-linecap:butt;stroke-linejoin:miter;stroke-miterlimit:10.43299961;stroke-dasharray:none;stroke-opacity:1"
       id="path984"
       inkscape:connector-curvature="0" /><path
       inkscape:connector-curvature="0"
       id="path14"
       style="fill:none;stroke:#b2b2b2;stroke-width:2.16356611;stroke-linecap:butt;stroke-linejoin:miter;stroke-miterlimit:10.43299961;stroke-dasharray:none;stroke-opacity:1"
       d="M 248.19565,301.41149 338.06406,150"
       sodipodi:nodetypes="cc" /><path
       inkscape:connector-curvature="0"
       id="path20"
       style="fill:none;stroke:#b2b2b2;stroke-width:2.16356611;stroke-linecap:butt;stroke-linejoin:miter;stroke-miterlimit:10.43299961;stroke-dasharray:none;stroke-opacity:1"
       d="M 366.68817,299.036 455.08952,150"
       sodipodi:nodetypes="cc" /><path
       inkscape:connector-curvature="0"
       id="path24"
       style="fill:none;stroke:#b2b2b2;stroke-width:2.16356611;stroke-linecap:butt;stroke-linejoin:miter;stroke-miterlimit:10.43299961;stroke-dasharray:none;stroke-opacity:1"
       d="M 453.69175,250.04126 513.60225,150"
       sodipodi:nodetypes="cc" /><path
       inkscape:connector-curvature="0"
       id="path26"
       style="fill:none;stroke:#b2b2b2;stroke-width:2.16356611;stroke-linecap:butt;stroke-linejoin:miter;stroke-miterlimit:10.43299961;stroke-dasharray:none;stroke-opacity:1"
       d="M 308.03896,298.80194 396.57679,150"
       sodipodi:nodetypes="cc" /><path
       inkscape:connector-curvature="0"
       id="path30"
       style="fill:none;stroke:#b2b2b2;stroke-width:2.16356611;stroke-linecap:butt;stroke-linejoin:miter;stroke-miterlimit:10.43299961;stroke-dasharray:none;stroke-opacity:1"
       d="M 191.37258,300.5784 279.55133,150"
       sodipodi:nodetypes="cc" /><path
       inkscape:connector-curvature="0"
       id="path32"
       style="fill:none;stroke:#b2b2b2;stroke-width:2.16356611;stroke-linecap:butt;stroke-linejoin:miter;stroke-miterlimit:10.43299961;stroke-dasharray:none;stroke-opacity:1"
       d="M 482.84862,300.50938 572.11498,150"
       sodipodi:nodetypes="cc" /><path
       inkscape:connector-curvature="0"
       id="path34"
       style="fill:none;stroke:#00b6b8;stroke-width:2.16356611;stroke-linecap:butt;stroke-linejoin:miter;stroke-miterlimit:10.43299961;stroke-dasharray:none;stroke-opacity:1"
       d="M 73.926884,450.40623 H 425.00326" /><path
       inkscape:connector-curvature="0"
       id="path36"
       style="fill:none;stroke:#b2b2b2;stroke-width:2.16356611;stroke-linecap:butt;stroke-linejoin:miter;stroke-miterlimit:10.43299961;stroke-dasharray:none;stroke-opacity:1"
       d="M 191.5851,250 H 542.66148" /><path
       inkscape:connector-curvature="0"
       id="path38"
       style="fill:none;stroke:#00b6b8;stroke-width:2.16356611;stroke-linecap:butt;stroke-linejoin:miter;stroke-miterlimit:10.43299961;stroke-dasharray:none;stroke-opacity:1"
       d="M 103.52031,400 H 454.59669" /><path
       inkscape:connector-curvature="0"
       id="path42"
       style="fill:none;stroke:#b2b2b2;stroke-width:2.16356611;stroke-linecap:butt;stroke-linejoin:miter;stroke-miterlimit:10.43299961;stroke-dasharray:none;stroke-opacity:1"
       d="M 162.23017,300 H 513.30655" /><path
       inkscape:connector-curvature="0"
       id="path48"
       style="fill:none;stroke:#00b6b8;stroke-width:2.16356611;stroke-linecap:butt;stroke-linejoin:miter;stroke-miterlimit:10.43299961;stroke-dasharray:none;stroke-opacity:1"
       d="M 132.87524,350 H 483.95162" /><path
       inkscape:connector-curvature="0"
       id="path50"
       style="fill:none;stroke:#b2b2b2;stroke-width:2.16356611;stroke-linecap:butt;stroke-linejoin:miter;stroke-miterlimit:10.43299961;stroke-dasharray:none;stroke-opacity:1"
       d="M 220.94003,200 H 572.01641" /><path
       inkscape:connector-curvature="0"
       id="path68"
       style="fill:none;stroke:#000000;stroke-width:8.65426445;stroke-linecap:butt;stroke-linejoin:miter;stroke-miterlimit:10.43299961;stroke-dasharray:none;stroke-opacity:1"
       d="m 249.37083,199.82783 30.47239,49.38034 56.82307,0.83309 29.73,-50.21343 L 338.06406,150 h -58.51273 z"
       sodipodi:nodetypes="ccccccc" /><g
       id="g901"
       transform="matrix(1.1702546,0,-0.5870986,1,60.356089,-73.740039)"><path
         d="m 307.5,225 c 0,-4.142 -3.358,-7.5 -7.5,-7.5 -4.142,0 -7.5,3.358 -7.5,7.5 0,4.142 3.358,7.5 7.5,7.5 4.142,0 7.5,-3.358 7.5,-7.5"
         style="fill:#00ff00;fill-opacity:1;fill-rule:evenodd;stroke:none;stroke-width:0.1"
         id="path96"
         inkscape:connector-curvature="0" /><path
         d="m 307.5,225 c 0,-4.142 -3.358,-7.5 -7.5,-7.5 -4.142,0 -7.5,3.358 -7.5,7.5 0,4.142 3.358,7.5 7.5,7.5 4.142,0 7.5,-3.358 7.5,-7.5"
         style="fill:none;stroke:#000000;stroke-width:1;stroke-linecap:butt;stroke-linejoin:miter;stroke-miterlimit:10.43299961;stroke-dasharray:none;stroke-opacity:1"
         id="path98"
         inkscape:connector-curvature="0" /></g><path
       sodipodi:nodetypes="ccccccc"
       d="m 336.66629,250.04126 30.47238,49.38034 56.82307,0.83309 29.73001,-50.21343 -28.33223,-49.82783 h -58.51273 z"
       style="fill:none;stroke:#000000;stroke-width:8.65426445;stroke-linecap:butt;stroke-linejoin:miter;stroke-miterlimit:10.43299961;stroke-dasharray:none;stroke-opacity:1"
       id="path907"
       inkscape:connector-curvature="0" /><path
       inkscape:connector-curvature="0"
       id="path909"
       style="fill:none;stroke:#000000;stroke-width:8.65426445;stroke-linecap:butt;stroke-linejoin:miter;stroke-miterlimit:10.43299961;stroke-dasharray:none;stroke-opacity:1"
       d="m 249.66271,299.036 30.4724,49.38034 56.82306,0.83309 29.73,-50.21343 -28.33222,-49.82783 h -58.51273 z"
       sodipodi:nodetypes="ccccccc" /><path
       sodipodi:nodetypes="ccccccc"
       d="m 335.2685,350.08252 30.4724,49.38034 56.82306,0.83309 29.73,-50.21343 -28.33222,-49.82783 h -58.51273 z"
       style="fill:none;stroke:#000000;stroke-width:8.65426445;stroke-linecap:butt;stroke-linejoin:miter;stroke-miterlimit:10.43299961;stroke-dasharray:none;stroke-opacity:1"
       id="path911"
       inkscape:connector-curvature="0" /><path
       inkscape:connector-curvature="0"
       id="path913"
       style="fill:none;stroke:#000000;stroke-width:8.65426445;stroke-linecap:butt;stroke-linejoin:miter;stroke-miterlimit:10.43299961;stroke-dasharray:none;stroke-opacity:1"
       d="M 248.48753,400.61966 278.95993,450 l 56.82306,0.83309 29.73,-50.21343 -28.33222,-49.82783 h -58.51273 z"
       sodipodi:nodetypes="ccccccc" /><path
       sodipodi:nodetypes="ccccccc"
       d="m 161.19207,350.40623 30.4724,49.38034 56.82306,0.83309 29.73,-50.21343 -28.33222,-49.82783 h -58.51273 z"
       style="fill:none;stroke:#000000;stroke-width:8.65426445;stroke-linecap:butt;stroke-linejoin:miter;stroke-miterlimit:10.43299961;stroke-dasharray:none;stroke-opacity:1"
       id="path915"
       inkscape:connector-curvature="0" /><path
       inkscape:connector-curvature="0"
       id="path917"
       style="fill:none;stroke:#000000;stroke-width:8.65426445;stroke-linecap:butt;stroke-linejoin:miter;stroke-miterlimit:10.43299961;stroke-dasharray:none;stroke-opacity:1"
       d="m 425.35952,200.21343 30.47239,49.38034 56.82307,0.83309 29.73,-50.21343 -28.33223,-49.82783 h -58.51273 z"
       sodipodi:nodetypes="ccccccc" /><path
       sodipodi:nodetypes="cccccc"
       d="M 524.26346,275.05409 510.5148,250.87435 h -58.51273 l -30.1805,49.82783 30.47239,49.38034 28.33675,0.41545"
       style="fill:none;stroke:#000000;stroke-width:8.65453434;stroke-linecap:round;stroke-linejoin:miter;stroke-miterlimit:10.43299961;stroke-dasharray:none;stroke-opacity:1"
       id="path919"
       inkscape:connector-curvature="0" /><path
       sodipodi:nodetypes="cccc"
       d="m 338.06406,150 30.47239,49.38034 56.82307,0.83309 29.73,-50.21343"
       style="fill:none;stroke:#000000;stroke-width:8.65426445;stroke-linecap:butt;stroke-linejoin:miter;stroke-miterlimit:10.43299961;stroke-dasharray:none;stroke-opacity:1"
       id="path923"
       inkscape:connector-curvature="0" /><path
       inkscape:connector-curvature="0"
       id="path927"
       style="fill:none;stroke:#000000;stroke-width:8.65426445;stroke-linecap:round;stroke-linejoin:miter;stroke-miterlimit:10.43299961;stroke-dasharray:none;stroke-opacity:1"
       d="m 88.638159,426.38772 14.333081,23.22668 56.82306,0.83309 29.73,-50.21343 -28.33223,-49.82783 h -30.05395"
       sodipodi:nodetypes="cccccc" /><path
       sodipodi:nodetypes="cccc"
       d="m 437.31543,423.99224 -13.28971,-23.37258 h -58.51273 l -30.1805,49.82783"
       style="fill:none;stroke:#000000;stroke-width:8.65426445;stroke-linecap:round;stroke-linejoin:miter;stroke-miterlimit:10.43299961;stroke-dasharray:none;stroke-opacity:1"
       id="path929"
       inkscape:connector-curvature="0" /><path
       sodipodi:nodetypes="cccccc"
       d="m 177.0395,277.35172 14.33308,23.22668 56.82307,0.83309 29.73,-50.21343 -28.33223,-49.82783 h -30.05395"
       style="fill:none;stroke:#000000;stroke-width:8.65426445;stroke-linecap:round;stroke-linejoin:miter;stroke-miterlimit:10.43299961;stroke-dasharray:none;stroke-opacity:1"
       id="path931"
       inkscape:connector-curvature="0" /><path
       inkscape:connector-curvature="0"
       id="path933"
       style="fill:none;stroke:#000000;stroke-width:8.65426445;stroke-linecap:round;stroke-linejoin:miter;stroke-miterlimit:10.43299961;stroke-dasharray:none;stroke-opacity:1"
       d="M 543.67966,199.58455 572.01641,200"
       sodipodi:nodetypes="cc" /><g
       id="g905"
       transform="matrix(1.1702546,0,-0.5870986,1,59.630917,-73.74004)"><path
         d="m 307.5,275 c 0,-4.142 -3.358,-7.5 -7.5,-7.5 -4.142,0 -7.5,3.358 -7.5,7.5 0,4.142 3.358,7.5 7.5,7.5 4.142,0 7.5,-3.358 7.5,-7.5"
         style="fill:#ff0000;fill-opacity:1;fill-rule:evenodd;stroke:none;stroke-width:0.1"
         id="path88"
         inkscape:connector-curvature="0" /><path
         d="m 307.5,275 c 0,-4.142 -3.358,-7.5 -7.5,-7.5 -4.142,0 -7.5,3.358 -7.5,7.5 0,4.142 3.358,7.5 7.5,7.5 4.142,0 7.5,-3.358 7.5,-7.5"
         style="fill:none;stroke:#000000;stroke-width:1;stroke-linecap:butt;stroke-linejoin:miter;stroke-miterlimit:10.43299961;stroke-dasharray:none;stroke-opacity:1"
         id="path90"
         inkscape:connector-curvature="0" /></g><g
       id="g945"
       transform="matrix(1.1702546,0,-0.5870986,1,136.62034,48.33381)"><path
         inkscape:connector-curvature="0"
         id="path935"
         style="fill:#0000ff;fill-opacity:1;fill-rule:evenodd;stroke:none;stroke-width:0.1"
         d="m 230.66163,102.30649 c 0,-4.142 -3.358,-7.5 -7.5,-7.5 -4.142,0 -7.5,3.358 -7.5,7.5 0,4.142 3.358,7.5 7.5,7.5 4.142,0 7.5,-3.358 7.5,-7.5" /><path
         inkscape:connector-curvature="0"
         id="path937"
         style="fill:none;stroke:#000000;stroke-width:1;stroke-linecap:butt;stroke-linejoin:miter;stroke-miterlimit:10.43299961;stroke-dasharray:none;stroke-opacity:1"
         d="m 230.66163,102.30649 c 0,-4.142 -3.358,-7.5 -7.5,-7.5 -4.142,0 -7.5,3.358 -7.5,7.5 0,4.142 3.358,7.5 7.5,7.5 4.142,0 7.5,-3.358 7.5,-7.5" /></g><g
       transform="matrix(1.1702546,0,-0.5870986,1,176.55082,24.786572)"
       id="g951"><path
         inkscape:connector-curvature="0"
         id="path947"
         style="fill:#ff0000;fill-opacity:1;fill-rule:evenodd;stroke:none;stroke-width:0.1"
         d="m 307.5,275 c 0,-4.142 -3.358,-7.5 -7.5,-7.5 -4.142,0 -7.5,3.358 -7.5,7.5 0,4.142 3.358,7.5 7.5,7.5 4.142,0 7.5,-3.358 7.5,-7.5" /><path
         inkscape:connector-curvature="0"
         id="path949"
         style="fill:none;stroke:#000000;stroke-width:1;stroke-linecap:butt;stroke-linejoin:miter;stroke-miterlimit:10.43299961;stroke-dasharray:none;stroke-opacity:1"
         d="m 307.5,275 c 0,-4.142 -3.358,-7.5 -7.5,-7.5 -4.142,0 -7.5,3.358 -7.5,7.5 0,4.142 3.358,7.5 7.5,7.5 4.142,0 7.5,-3.358 7.5,-7.5" /></g><g
       transform="matrix(1.1702546,0,-0.5870986,1,204.37074,74.979375)"
       id="g957"><path
         inkscape:connector-curvature="0"
         id="path953"
         style="fill:#00ff00;fill-opacity:1;fill-rule:evenodd;stroke:none;stroke-width:0.1"
         d="m 307.5,225 c 0,-4.142 -3.358,-7.5 -7.5,-7.5 -4.142,0 -7.5,3.358 -7.5,7.5 0,4.142 3.358,7.5 7.5,7.5 4.142,0 7.5,-3.358 7.5,-7.5" /><path
         inkscape:connector-curvature="0"
         id="path955"
         style="fill:none;stroke:#000000;stroke-width:1;stroke-linecap:butt;stroke-linejoin:miter;stroke-miterlimit:10.43299961;stroke-dasharray:none;stroke-opacity:1"
         d="m 307.5,225 c 0,-4.142 -3.358,-7.5 -7.5,-7.5 -4.142,0 -7.5,3.358 -7.5,7.5 0,4.142 3.358,7.5 7.5,7.5 4.142,0 7.5,-3.358 7.5,-7.5" /></g><g
       transform="matrix(1.1702546,0,-0.5870986,1,251.52822,247.86569)"
       id="g963"><path
         d="m 230.66163,102.30649 c 0,-4.142 -3.358,-7.5 -7.5,-7.5 -4.142,0 -7.5,3.358 -7.5,7.5 0,4.142 3.358,7.5 7.5,7.5 4.142,0 7.5,-3.358 7.5,-7.5"
         style="fill:#0000ff;fill-opacity:1;fill-rule:evenodd;stroke:none;stroke-width:0.1"
         id="path959"
         inkscape:connector-curvature="0" /><path
         d="m 230.66163,102.30649 c 0,-4.142 -3.358,-7.5 -7.5,-7.5 -4.142,0 -7.5,3.358 -7.5,7.5 0,4.142 3.358,7.5 7.5,7.5 4.142,0 7.5,-3.358 7.5,-7.5"
         style="fill:none;stroke:#000000;stroke-width:1;stroke-linecap:butt;stroke-linejoin:miter;stroke-miterlimit:10.43299961;stroke-dasharray:none;stroke-opacity:1"
         id="path961"
         inkscape:connector-curvature="0" /></g><path
       inkscape:connector-curvature="0"
       id="path1006"
       style="fill:none;stroke:#00b7b7;stroke-width:2.64685655;stroke-linecap:butt;stroke-linejoin:miter;stroke-miterlimit:10.43299961;stroke-dasharray:none;stroke-opacity:1"
       d="m 482.84862,300.50938 14.59261,24.1669"
       sodipodi:nodetypes="cc" /><g
       id="g892"
       transform="matrix(1.1702546,0,-0.5870986,1,162.82156,0)"><path
         d="m 381.04778,350.44453 c 0,-4.142 -3.358,-7.5 -7.5,-7.5 -4.142,0 -7.5,3.358 -7.5,7.5 0,4.142 3.358,7.5 7.5,7.5 4.142,0 7.5,-3.358 7.5,-7.5"
         style="fill:#ffb9b9;fill-opacity:1;fill-rule:evenodd;stroke:none;stroke-width:0.1"
         id="path864"
         inkscape:connector-curvature="0" /><path
         d="m 381.04778,350.44453 c 0,-4.142 -3.358,-7.5 -7.5,-7.5 -4.142,0 -7.5,3.358 -7.5,7.5 0,4.142 3.358,7.5 7.5,7.5 4.142,0 7.5,-3.358 7.5,-7.5"
         style="fill:none;stroke:#000000;stroke-width:1;stroke-linecap:butt;stroke-linejoin:miter;stroke-miterlimit:10.43299961;stroke-dasharray:none;stroke-opacity:1"
         id="path866"
         inkscape:connector-curvature="0" /></g><g
       id="g886"
       transform="matrix(1.1702546,0,-0.5870986,1,72.685618,-17.027888)"><path
         inkscape:connector-curvature="0"
         id="path876"
         style="fill:#b9b9ff;fill-opacity:1;fill-rule:evenodd;stroke:none;stroke-width:0.1"
         d="m 517.2297,316.9678 c 0,-4.142 -3.358,-7.5 -7.5,-7.5 -4.142,0 -7.5,3.358 -7.5,7.5 0,4.142 3.358,7.5 7.5,7.5 4.142,0 7.5,-3.358 7.5,-7.5" /><path
         inkscape:connector-curvature="0"
         id="path878"
         style="fill:none;stroke:#000000;stroke-width:1;stroke-linecap:butt;stroke-linejoin:miter;stroke-miterlimit:10.43299961;stroke-dasharray:none;stroke-opacity:1"
         d="m 517.2297,316.9678 c 0,-4.142 -3.358,-7.5 -7.5,-7.5 -4.142,0 -7.5,3.358 -7.5,7.5 0,4.142 3.358,7.5 7.5,7.5 4.142,0 7.5,-3.358 7.5,-7.5" /></g></g></svg>