<?xml version="1.0" encoding="UTF-8" standalone="no"?>
<!-- Created with Inkscape (http://www.inkscape.org/) -->

<svg
   xmlns:dc="http://purl.org/dc/elements/1.1/"
   xmlns:cc="http://creativecommons.org/ns#"
   xmlns:rdf="http://www.w3.org/1999/02/22-rdf-syntax-ns#"
   xmlns:svg="http://www.w3.org/2000/svg"
   xmlns="http://www.w3.org/2000/svg"
   xmlns:sodipodi="http://sodipodi.sourceforge.net/DTD/sodipodi-0.dtd"
   xmlns:inkscape="http://www.inkscape.org/namespaces/inkscape"
   version="1.1"
   id="svg2"
   xml:space="preserve"
   width="793.33331"
   height="1122.6667"
   viewBox="0 0 793.33331 1122.6667"
   sodipodi:docname="affine-squashed.svg"
   inkscape:version="0.92.2 (5c3e80d, 2017-08-06)"><metadata
     id="metadata8"><rdf:RDF><cc:Work
         rdf:about=""><dc:format>image/svg+xml</dc:format><dc:type
           rdf:resource="http://purl.org/dc/dcmitype/StillImage" /><dc:title></dc:title></cc:Work></rdf:RDF></metadata><defs
     id="defs6" /><sodipodi:namedview
     pagecolor="#ffffff"
     bordercolor="#666666"
     borderopacity="1"
     objecttolerance="10"
     gridtolerance="10"
     guidetolerance="10"
     inkscape:pageopacity="0"
     inkscape:pageshadow="2"
     inkscape:window-width="1920"
     inkscape:window-height="1176"
     id="namedview4"
     showgrid="false"
     inkscape:zoom="1.2103329"
     inkscape:cx="499.86698"
     inkscape:cy="429.13833"
     inkscape:window-x="1920"
     inkscape:window-y="24"
     inkscape:window-maximized="1"
     inkscape:current-layer="g10" /><g
     id="g10"
     inkscape:groupmode="layer"
     inkscape:label="ink_ext_XXXXXX"
     transform="matrix(1.3333333,0,0,-1.3333333,0,1122.6667)"><path
       inkscape:connector-curvature="0"
       id="path1004"
       style="fill:none;stroke:#00b7b7;stroke-width:2.4467535;stroke-linecap:butt;stroke-linejoin:miter;stroke-miterlimit:10.43299961;stroke-dasharray:none;stroke-opacity:1"
       d="m 93.15303,370.57779 43.78403,67.54783"
       sodipodi:nodetypes="cc" /><path
       sodipodi:nodetypes="cc"
       d="m 379.71339,299.24957 43.78404,67.54782"
       style="fill:none;stroke:#00b7b7;stroke-width:2.4467535;stroke-linecap:butt;stroke-linejoin:miter;stroke-miterlimit:10.43299961;stroke-dasharray:none;stroke-opacity:1"
       id="path1000"
       inkscape:connector-curvature="0" /><path
       inkscape:connector-curvature="0"
       id="path998"
       style="fill:none;stroke:#00b7b7;stroke-width:2.4467535;stroke-linecap:butt;stroke-linejoin:miter;stroke-miterlimit:10.43299961;stroke-dasharray:none;stroke-opacity:1"
       d="M 327.02012,299.35915 394.31695,411.8162"
       sodipodi:nodetypes="cc" /><path
       inkscape:connector-curvature="0"
       id="path1002"
       style="fill:none;stroke:#00b7b7;stroke-width:2.4467535;stroke-linecap:butt;stroke-linejoin:miter;stroke-miterlimit:10.43299961;stroke-dasharray:none;stroke-opacity:1"
       d="m 123.14876,324.39686 68.4816,113.1904"
       sodipodi:nodetypes="cc" /><path
       sodipodi:nodetypes="cc"
       d="m 163.9695,299.63599 82.35417,137.41292"
       style="fill:none;stroke:#00b7b7;stroke-width:2.4467535;stroke-linecap:butt;stroke-linejoin:miter;stroke-miterlimit:10.43299961;stroke-dasharray:none;stroke-opacity:1"
       id="path992"
       inkscape:connector-curvature="0" /><path
       inkscape:connector-curvature="0"
       id="path990"
       style="fill:none;stroke:#00b7b7;stroke-width:2.4467535;stroke-linecap:butt;stroke-linejoin:miter;stroke-miterlimit:10.43299961;stroke-dasharray:none;stroke-opacity:1"
       d="m 218.6628,299.09763 82.35416,137.41293"
       sodipodi:nodetypes="cc" /><path
       sodipodi:nodetypes="cc"
       d="m 273.35609,298.55927 82.35417,137.41294"
       style="fill:none;stroke:#00b7b7;stroke-width:2.4467535;stroke-linecap:butt;stroke-linejoin:miter;stroke-miterlimit:10.43299961;stroke-dasharray:none;stroke-opacity:1"
       id="path988"
       inkscape:connector-curvature="0" /><path
       d="m 218.96753,163.50838 328.15982,-3.23011"
       style="fill:none;stroke:#b2b2b2;stroke-width:2;stroke-linecap:butt;stroke-linejoin:miter;stroke-miterlimit:10.43299961;stroke-dasharray:none;stroke-opacity:1"
       id="path984"
       inkscape:connector-curvature="0" /><path
       inkscape:connector-curvature="0"
       id="path14"
       style="fill:none;stroke:#b2b2b2;stroke-width:2;stroke-linecap:butt;stroke-linejoin:miter;stroke-miterlimit:10.43299961;stroke-dasharray:none;stroke-opacity:1"
       d="m 217.42162,301.49546 83.8536,-139.24405"
       sodipodi:nodetypes="cc" /><path
       inkscape:connector-curvature="0"
       id="path20"
       style="fill:none;stroke:#b2b2b2;stroke-width:2;stroke-linecap:butt;stroke-linejoin:miter;stroke-miterlimit:10.43299961;stroke-dasharray:none;stroke-opacity:1"
       d="m 328.17722,298.23364 82.4846,-137.05893"
       sodipodi:nodetypes="cc" /><path
       inkscape:connector-curvature="0"
       id="path24"
       style="fill:none;stroke:#b2b2b2;stroke-width:2;stroke-linecap:butt;stroke-linejoin:miter;stroke-miterlimit:10.43299961;stroke-dasharray:none;stroke-opacity:1"
       d="m 409.45351,252.64319 55.90161,-92.00684"
       sodipodi:nodetypes="cc" /><path
       inkscape:connector-curvature="0"
       id="path26"
       style="fill:none;stroke:#b2b2b2;stroke-width:2;stroke-linecap:butt;stroke-linejoin:miter;stroke-miterlimit:10.43299961;stroke-dasharray:none;stroke-opacity:1"
       d="M 273.35609,298.55927 355.96852,161.71305"
       sodipodi:nodetypes="cc" /><path
       inkscape:connector-curvature="0"
       id="path30"
       style="fill:none;stroke:#b2b2b2;stroke-width:2;stroke-linecap:butt;stroke-linejoin:miter;stroke-miterlimit:10.43299961;stroke-dasharray:none;stroke-opacity:1"
       d="M 164.30688,301.25668 246.5819,162.78978"
       sodipodi:nodetypes="cc" /><path
       inkscape:connector-curvature="0"
       id="path32"
       style="fill:none;stroke:#b2b2b2;stroke-width:2;stroke-linecap:butt;stroke-linejoin:miter;stroke-miterlimit:10.43299961;stroke-dasharray:none;stroke-opacity:1"
       d="M 436.75671,298.51183 520.04843,160.098"
       sodipodi:nodetypes="cc" /><path
       inkscape:connector-curvature="0"
       id="path34"
       style="fill:none;stroke:#00b6b8;stroke-width:2;stroke-linecap:butt;stroke-linejoin:miter;stroke-miterlimit:10.43299961;stroke-dasharray:none;stroke-opacity:1"
       d="M 54.674565,439.30672 382.83438,436.07659" /><path
       inkscape:connector-curvature="0"
       id="path36"
       style="fill:none;stroke:#b2b2b2;stroke-width:2;stroke-linecap:butt;stroke-linejoin:miter;stroke-miterlimit:10.43299961;stroke-dasharray:none;stroke-opacity:1"
       d="m 164.45587,255.017 328.15981,-3.23011" /><path
       inkscape:connector-curvature="0"
       id="path38"
       style="fill:none;stroke:#00b6b8;stroke-width:2;stroke-linecap:butt;stroke-linejoin:miter;stroke-miterlimit:10.43299961;stroke-dasharray:none;stroke-opacity:1"
       d="M 82.286797,392.95411 410.4466,389.72401" /><path
       inkscape:connector-curvature="0"
       id="path42"
       style="fill:none;stroke:#b2b2b2;stroke-width:2;stroke-linecap:butt;stroke-linejoin:miter;stroke-miterlimit:10.43299961;stroke-dasharray:none;stroke-opacity:1"
       d="m 137.06618,300.99604 328.15983,-3.2301" /><path
       inkscape:connector-curvature="0"
       id="path48"
       style="fill:none;stroke:#00b6b8;stroke-width:2;stroke-linecap:butt;stroke-linejoin:miter;stroke-miterlimit:10.43299961;stroke-dasharray:none;stroke-opacity:1"
       d="m 109.67649,346.97508 328.1598,-3.23012" /><path
       inkscape:connector-curvature="0"
       id="path50"
       style="fill:none;stroke:#b2b2b2;stroke-width:2;stroke-linecap:butt;stroke-linejoin:miter;stroke-miterlimit:10.43299961;stroke-dasharray:none;stroke-opacity:1"
       d="m 191.84557,209.03798 328.15981,-3.23012" /><path
       inkscape:connector-curvature="0"
       id="path68"
       style="fill:none;stroke:#000000;stroke-width:8;stroke-linecap:butt;stroke-linejoin:miter;stroke-miterlimit:10.43299961;stroke-dasharray:none;stroke-opacity:1"
       d="m 218.42036,208.619 28.53179,44.8621 53.11474,0.23879 27.74008,-46.1776 -26.53175,-45.29088 -54.69331,0.53841 z"
       sodipodi:nodetypes="ccccccc" /><g
       id="g901"
       transform="matrix(1.0938661,-0.01076706,-0.54779383,0.91958071,41.475002,-39.731954)"><path
         d="m 307.5,225 c 0,-4.142 -3.358,-7.5 -7.5,-7.5 -4.142,0 -7.5,3.358 -7.5,7.5 0,4.142 3.358,7.5 7.5,7.5 4.142,0 7.5,-3.358 7.5,-7.5"
         style="fill:#00ff00;fill-opacity:1;fill-rule:evenodd;stroke:none;stroke-width:0.1"
         id="path96"
         inkscape:connector-curvature="0" /><path
         d="m 307.5,225 c 0,-4.142 -3.358,-7.5 -7.5,-7.5 -4.142,0 -7.5,3.358 -7.5,7.5 0,4.142 3.358,7.5 7.5,7.5 4.142,0 7.5,-3.358 7.5,-7.5"
         style="fill:none;stroke:#000000;stroke-width:1;stroke-linecap:butt;stroke-linejoin:miter;stroke-miterlimit:10.43299961;stroke-dasharray:none;stroke-opacity:1"
         id="path98"
         inkscape:connector-curvature="0" /></g><path
       sodipodi:nodetypes="ccccccc"
       d="m 300.06689,253.71989 28.5318,44.86211 53.11474,0.23878 27.74008,-46.17759 -26.53177,-45.29089 -54.69328,0.53831 z"
       style="fill:none;stroke:#000000;stroke-width:8;stroke-linecap:butt;stroke-linejoin:miter;stroke-miterlimit:10.43299961;stroke-dasharray:none;stroke-opacity:1"
       id="path907"
       inkscape:connector-curvature="0" /><path
       inkscape:connector-curvature="0"
       id="path909"
       style="fill:none;stroke:#000000;stroke-width:8;stroke-linecap:butt;stroke-linejoin:miter;stroke-miterlimit:10.43299961;stroke-dasharray:none;stroke-opacity:1"
       d="m 218.79061,299.31034 28.53179,44.86211 53.11474,0.23878 27.74008,-46.17759 -26.53175,-45.29088 -54.69331,0.5383 z"
       sodipodi:nodetypes="ccccccc" /><path
       sodipodi:nodetypes="ccccccc"
       d="m 298.85858,345.18838 28.53179,44.86211 53.11475,0.23878 27.74007,-46.1776 -26.53176,-45.29089 -54.69331,0.5384 z"
       style="fill:none;stroke:#000000;stroke-width:8;stroke-linecap:butt;stroke-linejoin:miter;stroke-miterlimit:10.43299961;stroke-dasharray:none;stroke-opacity:1"
       id="path911"
       inkscape:connector-curvature="0" /><path
       inkscape:connector-curvature="0"
       id="path913"
       style="fill:none;stroke:#000000;stroke-width:8;stroke-linecap:butt;stroke-linejoin:miter;stroke-miterlimit:10.43299961;stroke-dasharray:none;stroke-opacity:1"
       d="m 217.79187,392.18681 28.5318,44.8621 53.11474,0.23879 27.74007,-46.1776 -26.53175,-45.29088 -54.69332,0.5384 z"
       sodipodi:nodetypes="ccccccc" /><path
       sodipodi:nodetypes="ccccccc"
       d="m 136.14534,347.0859 28.53179,44.86213 53.11474,0.23878 27.74007,-46.1776 -26.53175,-45.29089 -54.69331,0.5383 z"
       style="fill:none;stroke:#000000;stroke-width:8;stroke-linecap:butt;stroke-linejoin:miter;stroke-miterlimit:10.43299961;stroke-dasharray:none;stroke-opacity:1"
       id="path915"
       inkscape:connector-curvature="0" /><path
       inkscape:connector-curvature="0"
       id="path917"
       style="fill:none;stroke:#000000;stroke-width:8;stroke-linecap:butt;stroke-linejoin:miter;stroke-miterlimit:10.43299961;stroke-dasharray:none;stroke-opacity:1"
       d="m 382.92174,207.3523 28.53179,44.86211 53.11475,0.23878 27.74007,-46.17758 -26.53176,-45.29089 -54.69328,0.5383 z"
       sodipodi:nodetypes="ccccccc" /><path
       sodipodi:nodetypes="cccccc"
       d="m 475.44319,274.86008 -12.87494,-21.97811 -54.69331,0.5384 -28.16156,45.82924 28.53181,44.8621 26.48747,0.11908"
       style="fill:none;stroke:#000000;stroke-width:8.00024986;stroke-linecap:round;stroke-linejoin:miter;stroke-miterlimit:10.43299961;stroke-dasharray:none;stroke-opacity:1"
       id="path919"
       inkscape:connector-curvature="0" /><path
       sodipodi:nodetypes="cccc"
       d="m 301.27522,162.25141 28.53178,44.86211 53.11474,0.23878 27.74008,-46.17759"
       style="fill:none;stroke:#000000;stroke-width:8;stroke-linecap:butt;stroke-linejoin:miter;stroke-miterlimit:10.43299961;stroke-dasharray:none;stroke-opacity:1"
       id="path923"
       inkscape:connector-curvature="0" /><path
       inkscape:connector-curvature="0"
       id="path927"
       style="fill:none;stroke:#000000;stroke-width:8;stroke-linecap:round;stroke-linejoin:miter;stroke-miterlimit:10.43299961;stroke-dasharray:none;stroke-opacity:1"
       d="m 68.401987,417.21414 13.420287,21.10147 53.114756,0.23879 27.74007,-46.17761 -26.53176,-45.29089 -28.09217,0.27653"
       sodipodi:nodetypes="cccccc" /><path
       sodipodi:nodetypes="cccc"
       d="m 394.31695,411.8162 -12.44517,-21.24445 -54.6933,0.5383 -28.16155,45.82925"
       style="fill:none;stroke:#000000;stroke-width:8;stroke-linecap:round;stroke-linejoin:miter;stroke-miterlimit:10.43299961;stroke-dasharray:none;stroke-opacity:1"
       id="path929"
       inkscape:connector-curvature="0" /><path
       sodipodi:nodetypes="cccccc"
       d="m 150.88659,280.15521 13.42029,21.10147 53.11474,0.23878 27.74008,-46.17759 -26.53176,-45.29089 -28.09217,0.27652"
       style="fill:none;stroke:#000000;stroke-width:8;stroke-linecap:round;stroke-linejoin:miter;stroke-miterlimit:10.43299961;stroke-dasharray:none;stroke-opacity:1"
       id="path931"
       inkscape:connector-curvature="0" /><path
       inkscape:connector-curvature="0"
       id="path933"
       style="fill:none;stroke:#000000;stroke-width:8;stroke-linecap:round;stroke-linejoin:miter;stroke-miterlimit:10.43299961;stroke-dasharray:none;stroke-opacity:1"
       d="m 493.51791,205.68878 26.48747,0.11908"
       sodipodi:nodetypes="cc" /><g
       id="g905"
       transform="matrix(1.0938661,-0.01076706,-0.54779383,0.91958071,40.797169,-39.725293)"><path
         d="m 307.5,275 c 0,-4.142 -3.358,-7.5 -7.5,-7.5 -4.142,0 -7.5,3.358 -7.5,7.5 0,4.142 3.358,7.5 7.5,7.5 4.142,0 7.5,-3.358 7.5,-7.5"
         style="fill:#ff0000;fill-opacity:1;fill-rule:evenodd;stroke:none;stroke-width:0.1"
         id="path88"
         inkscape:connector-curvature="0" /><path
         d="m 307.5,275 c 0,-4.142 -3.358,-7.5 -7.5,-7.5 -4.142,0 -7.5,3.358 -7.5,7.5 0,4.142 3.358,7.5 7.5,7.5 4.142,0 7.5,-3.358 7.5,-7.5"
         style="fill:none;stroke:#000000;stroke-width:1;stroke-linecap:butt;stroke-linejoin:miter;stroke-miterlimit:10.43299961;stroke-dasharray:none;stroke-opacity:1"
         id="path90"
         inkscape:connector-curvature="0" /></g><g
       id="g945"
       transform="matrix(1.0938661,-0.01076706,-0.54779383,0.91958071,112.88095,71.163717)"><path
         inkscape:connector-curvature="0"
         id="path935"
         style="fill:#0000ff;fill-opacity:1;fill-rule:evenodd;stroke:none;stroke-width:0.1"
         d="m 230.66163,102.30649 c 0,-4.142 -3.358,-7.5 -7.5,-7.5 -4.142,0 -7.5,3.358 -7.5,7.5 0,4.142 3.358,7.5 7.5,7.5 4.142,0 7.5,-3.358 7.5,-7.5" /><path
         inkscape:connector-curvature="0"
         id="path937"
         style="fill:none;stroke:#000000;stroke-width:1;stroke-linecap:butt;stroke-linejoin:miter;stroke-miterlimit:10.43299961;stroke-dasharray:none;stroke-opacity:1"
         d="m 230.66163,102.30649 c 0,-4.142 -3.358,-7.5 -7.5,-7.5 -4.142,0 -7.5,3.358 -7.5,7.5 0,4.142 3.358,7.5 7.5,7.5 4.142,0 7.5,-3.358 7.5,-7.5" /></g><g
       transform="matrix(1.0938661,-0.01076706,-0.54779383,0.91958071,150.18185,49.269935)"
       id="g951"><path
         inkscape:connector-curvature="0"
         id="path947"
         style="fill:#ff0000;fill-opacity:1;fill-rule:evenodd;stroke:none;stroke-width:0.1"
         d="m 307.5,275 c 0,-4.142 -3.358,-7.5 -7.5,-7.5 -4.142,0 -7.5,3.358 -7.5,7.5 0,4.142 3.358,7.5 7.5,7.5 4.142,0 7.5,-3.358 7.5,-7.5" /><path
         inkscape:connector-curvature="0"
         id="path949"
         style="fill:none;stroke:#000000;stroke-width:1;stroke-linecap:butt;stroke-linejoin:miter;stroke-miterlimit:10.43299961;stroke-dasharray:none;stroke-opacity:1"
         d="m 307.5,275 c 0,-4.142 -3.358,-7.5 -7.5,-7.5 -4.142,0 -7.5,3.358 -7.5,7.5 0,4.142 3.358,7.5 7.5,7.5 4.142,0 7.5,-3.358 7.5,-7.5" /></g><g
       transform="matrix(1.0938661,-0.01076706,-0.54779383,0.91958071,176.23508,94.89919)"
       id="g957"><path
         inkscape:connector-curvature="0"
         id="path953"
         style="fill:#00ff00;fill-opacity:1;fill-rule:evenodd;stroke:none;stroke-width:0.1"
         d="m 307.5,225 c 0,-4.142 -3.358,-7.5 -7.5,-7.5 -4.142,0 -7.5,3.358 -7.5,7.5 0,4.142 3.358,7.5 7.5,7.5 4.142,0 7.5,-3.358 7.5,-7.5" /><path
         inkscape:connector-curvature="0"
         id="path955"
         style="fill:none;stroke:#000000;stroke-width:1;stroke-linecap:butt;stroke-linejoin:miter;stroke-miterlimit:10.43299961;stroke-dasharray:none;stroke-opacity:1"
         d="m 307.5,225 c 0,-4.142 -3.358,-7.5 -7.5,-7.5 -4.142,0 -7.5,3.358 -7.5,7.5 0,4.142 3.358,7.5 7.5,7.5 4.142,0 7.5,-3.358 7.5,-7.5" /></g><g
       transform="matrix(1.0938661,-0.01076706,-0.54779383,0.91958071,220.48411,252.51434)"
       id="g963"><path
         d="m 230.66163,102.30649 c 0,-4.142 -3.358,-7.5 -7.5,-7.5 -4.142,0 -7.5,3.358 -7.5,7.5 0,4.142 3.358,7.5 7.5,7.5 4.142,0 7.5,-3.358 7.5,-7.5"
         style="fill:#0000ff;fill-opacity:1;fill-rule:evenodd;stroke:none;stroke-width:0.1"
         id="path959"
         inkscape:connector-curvature="0" /><path
         d="m 230.66163,102.30649 c 0,-4.142 -3.358,-7.5 -7.5,-7.5 -4.142,0 -7.5,3.358 -7.5,7.5 0,4.142 3.358,7.5 7.5,7.5 4.142,0 7.5,-3.358 7.5,-7.5"
         style="fill:none;stroke:#000000;stroke-width:1;stroke-linecap:butt;stroke-linejoin:miter;stroke-miterlimit:10.43299961;stroke-dasharray:none;stroke-opacity:1"
         id="path961"
         inkscape:connector-curvature="0" /></g><path
       inkscape:connector-curvature="0"
       id="path1006"
       style="fill:none;stroke:#00b7b7;stroke-width:2.4467535;stroke-linecap:butt;stroke-linejoin:miter;stroke-miterlimit:10.43299961;stroke-dasharray:none;stroke-opacity:1"
       d="m 436.75671,298.51183 13.66382,21.95861"
       sodipodi:nodetypes="cc" /></g></svg>