<?xml version="1.0" encoding="UTF-8" standalone="no"?>
<!-- Created with Inkscape (http://www.inkscape.org/) -->

<svg
   xmlns:dc="http://purl.org/dc/elements/1.1/"
   xmlns:cc="http://creativecommons.org/ns#"
   xmlns:rdf="http://www.w3.org/1999/02/22-rdf-syntax-ns#"
   xmlns:svg="http://www.w3.org/2000/svg"
   xmlns="http://www.w3.org/2000/svg"
   xmlns:sodipodi="http://sodipodi.sourceforge.net/DTD/sodipodi-0.dtd"
   xmlns:inkscape="http://www.inkscape.org/namespaces/inkscape"
   version="1.1"
   id="svg2"
   xml:space="preserve"
   width="793.33331"
   height="1122.6667"
   viewBox="0 0 793.33331 1122.6667"
   sodipodi:docname="equilibrium1.svg"
   inkscape:version="0.92.2 (5c3e80d, 2017-08-06)"><metadata
     id="metadata8"><rdf:RDF><cc:Work
         rdf:about=""><dc:format>image/svg+xml</dc:format><dc:type
           rdf:resource="http://purl.org/dc/dcmitype/StillImage" /><dc:title></dc:title></cc:Work></rdf:RDF></metadata><defs
     id="defs6" /><sodipodi:namedview
     pagecolor="#ffffff"
     bordercolor="#666666"
     borderopacity="1"
     objecttolerance="10"
     gridtolerance="10"
     guidetolerance="10"
     inkscape:pageopacity="0"
     inkscape:pageshadow="2"
     inkscape:window-width="710"
     inkscape:window-height="480"
     id="namedview4"
     showgrid="false"
     inkscape:zoom="0.21021376"
     inkscape:cx="396.66666"
     inkscape:cy="561.33337"
     inkscape:window-x="2328"
     inkscape:window-y="396"
     inkscape:window-maximized="0"
     inkscape:current-layer="g10" /><g
     id="g10"
     inkscape:groupmode="layer"
     inkscape:label="ink_ext_XXXXXX"
     transform="matrix(1.3333333,0,0,-1.3333333,0,1122.6667)"><g
       id="g12"
       transform="scale(0.1)"><path
         d="M 2250,4500 V 1500"
         style="fill:none;stroke:#b2b2b2;stroke-width:20;stroke-linecap:butt;stroke-linejoin:miter;stroke-miterlimit:10.43299961;stroke-dasharray:none;stroke-opacity:1"
         id="path14"
         inkscape:connector-curvature="0" /><path
         d="M 3500,4500 V 1500"
         style="fill:none;stroke:#b2b2b2;stroke-width:20;stroke-linecap:butt;stroke-linejoin:miter;stroke-miterlimit:10.43299961;stroke-dasharray:none;stroke-opacity:1"
         id="path16"
         inkscape:connector-curvature="0" /><path
         d="M 2000,4500 V 1500"
         style="fill:none;stroke:#b2b2b2;stroke-width:20;stroke-linecap:butt;stroke-linejoin:miter;stroke-miterlimit:10.43299961;stroke-dasharray:none;stroke-opacity:1"
         id="path18"
         inkscape:connector-curvature="0" /><path
         d="M 3250,4500 V 1500"
         style="fill:none;stroke:#b2b2b2;stroke-width:20;stroke-linecap:butt;stroke-linejoin:miter;stroke-miterlimit:10.43299961;stroke-dasharray:none;stroke-opacity:1"
         id="path20"
         inkscape:connector-curvature="0" /><path
         d="M 2500,4500 V 1500"
         style="fill:none;stroke:#b2b2b2;stroke-width:20;stroke-linecap:butt;stroke-linejoin:miter;stroke-miterlimit:10.43299961;stroke-dasharray:none;stroke-opacity:1"
         id="path22"
         inkscape:connector-curvature="0" /><path
         d="M 3750,4500 V 1500"
         style="fill:none;stroke:#b2b2b2;stroke-width:20;stroke-linecap:butt;stroke-linejoin:miter;stroke-miterlimit:10.43299961;stroke-dasharray:none;stroke-opacity:1"
         id="path24"
         inkscape:connector-curvature="0" /><path
         d="M 2750,4500 V 1500"
         style="fill:none;stroke:#b2b2b2;stroke-width:20;stroke-linecap:butt;stroke-linejoin:miter;stroke-miterlimit:10.43299961;stroke-dasharray:none;stroke-opacity:1"
         id="path26"
         inkscape:connector-curvature="0" /><path
         d="M 4000,4500 V 1500"
         style="fill:none;stroke:#b2b2b2;stroke-width:20;stroke-linecap:butt;stroke-linejoin:miter;stroke-miterlimit:10.43299961;stroke-dasharray:none;stroke-opacity:1"
         id="path28"
         inkscape:connector-curvature="0" /><path
         d="M 1750,4500 V 1500"
         style="fill:none;stroke:#b2b2b2;stroke-width:20;stroke-linecap:butt;stroke-linejoin:miter;stroke-miterlimit:10.43299961;stroke-dasharray:none;stroke-opacity:1"
         id="path30"
         inkscape:connector-curvature="0" /><path
         d="M 4250,4500 V 1500"
         style="fill:none;stroke:#b2b2b2;stroke-width:20;stroke-linecap:butt;stroke-linejoin:miter;stroke-miterlimit:10.43299961;stroke-dasharray:none;stroke-opacity:1"
         id="path32"
         inkscape:connector-curvature="0" /><path
         d="M 1500,4250 H 4500"
         style="fill:none;stroke:#b2b2b2;stroke-width:20;stroke-linecap:butt;stroke-linejoin:miter;stroke-miterlimit:10.43299961;stroke-dasharray:none;stroke-opacity:1"
         id="path34"
         inkscape:connector-curvature="0" /><path
         d="M 1500,2500 H 4500"
         style="fill:none;stroke:#b2b2b2;stroke-width:20;stroke-linecap:butt;stroke-linejoin:miter;stroke-miterlimit:10.43299961;stroke-dasharray:none;stroke-opacity:1"
         id="path36"
         inkscape:connector-curvature="0" /><path
         d="M 1500,4000 H 4500"
         style="fill:none;stroke:#b2b2b2;stroke-width:20;stroke-linecap:butt;stroke-linejoin:miter;stroke-miterlimit:10.43299961;stroke-dasharray:none;stroke-opacity:1"
         id="path38"
         inkscape:connector-curvature="0" /><path
         d="M 1500,3250 H 4500"
         style="fill:none;stroke:#b2b2b2;stroke-width:20;stroke-linecap:butt;stroke-linejoin:miter;stroke-miterlimit:10.43299961;stroke-dasharray:none;stroke-opacity:1"
         id="path40"
         inkscape:connector-curvature="0" /><path
         d="M 1500,3000 H 4500"
         style="fill:none;stroke:#b2b2b2;stroke-width:20;stroke-linecap:butt;stroke-linejoin:miter;stroke-miterlimit:10.43299961;stroke-dasharray:none;stroke-opacity:1"
         id="path42"
         inkscape:connector-curvature="0" /><path
         d="M 1500,2250 H 4500"
         style="fill:none;stroke:#b2b2b2;stroke-width:20;stroke-linecap:butt;stroke-linejoin:miter;stroke-miterlimit:10.43299961;stroke-dasharray:none;stroke-opacity:1"
         id="path44"
         inkscape:connector-curvature="0" /><path
         d="M 1500,3750 H 4500"
         style="fill:none;stroke:#b2b2b2;stroke-width:20;stroke-linecap:butt;stroke-linejoin:miter;stroke-miterlimit:10.43299961;stroke-dasharray:none;stroke-opacity:1"
         id="path46"
         inkscape:connector-curvature="0" /><path
         d="M 1500,3500 H 4500"
         style="fill:none;stroke:#b2b2b2;stroke-width:20;stroke-linecap:butt;stroke-linejoin:miter;stroke-miterlimit:10.43299961;stroke-dasharray:none;stroke-opacity:1"
         id="path48"
         inkscape:connector-curvature="0" /><path
         d="M 1500,2000 H 4500"
         style="fill:none;stroke:#b2b2b2;stroke-width:20;stroke-linecap:butt;stroke-linejoin:miter;stroke-miterlimit:10.43299961;stroke-dasharray:none;stroke-opacity:1"
         id="path50"
         inkscape:connector-curvature="0" /><path
         d="M 1500,1750 H 4500"
         style="fill:none;stroke:#b2b2b2;stroke-width:20;stroke-linecap:butt;stroke-linejoin:miter;stroke-miterlimit:10.43299961;stroke-dasharray:none;stroke-opacity:1"
         id="path52"
         inkscape:connector-curvature="0" /><path
         d="M 3000,4500 V 1500"
         style="fill:none;stroke:#b2b2b2;stroke-width:40;stroke-linecap:butt;stroke-linejoin:miter;stroke-miterlimit:10.43299961;stroke-dasharray:none;stroke-opacity:1"
         id="path54"
         inkscape:connector-curvature="0" /><path
         d="m 2880,4340 120,240 120,-240 h -240"
         style="fill:#b2b2b2;fill-opacity:1;fill-rule:evenodd;stroke:none"
         id="path56"
         inkscape:connector-curvature="0" /><path
         d="M 1500,2750 H 4500"
         style="fill:none;stroke:#b2b2b2;stroke-width:40;stroke-linecap:butt;stroke-linejoin:miter;stroke-miterlimit:10.43299961;stroke-dasharray:none;stroke-opacity:1"
         id="path58"
         inkscape:connector-curvature="0" /><path
         d="m 4340,2870 240,-120 -240,-120 v 240"
         style="fill:#b2b2b2;fill-opacity:1;fill-rule:evenodd;stroke:none"
         id="path60"
         inkscape:connector-curvature="0" /><path
         d="m 2250,2000 -250,250 v 500 l 250,250 h 500 l 250,-250 v -500 l -250,-250 h -500"
         style="fill:none;stroke:#000000;stroke-width:80;stroke-linecap:butt;stroke-linejoin:miter;stroke-miterlimit:10.43299961;stroke-dasharray:none;stroke-opacity:1"
         id="path62"
         inkscape:connector-curvature="0" /><path
         d="m 2250,3000 -250,250 v 500 l 250,250 h 500 l 250,-250 v -500 l -250,-250 h -500"
         style="fill:none;stroke:#000000;stroke-width:80;stroke-linecap:butt;stroke-linejoin:miter;stroke-miterlimit:10.43299961;stroke-dasharray:none;stroke-opacity:1"
         id="path64"
         inkscape:connector-curvature="0" /><path
         d="m 3250,2000 -250,250 v 500 l 250,250 h 500 l 250,-250 v -500 l -250,-250 h -500"
         style="fill:none;stroke:#000000;stroke-width:80;stroke-linecap:butt;stroke-linejoin:miter;stroke-miterlimit:10.43299961;stroke-dasharray:none;stroke-opacity:1"
         id="path66"
         inkscape:connector-curvature="0" /><path
         d="m 3250,3000 -250,250 v 500 l 250,250 h 500 l 250,-250 v -500 l -250,-250 h -500"
         style="fill:none;stroke:#000000;stroke-width:80;stroke-linecap:butt;stroke-linejoin:miter;stroke-miterlimit:10.43299961;stroke-dasharray:none;stroke-opacity:1"
         id="path68"
         inkscape:connector-curvature="0" /><g
         id="g70"
         transform="scale(10)"><text
           transform="matrix(1,0,0,-1,315,257.076)"
           style="font-variant:normal;font-weight:bold;font-size:18px;font-family:Helvetica;-inkscape-font-specification:Helvetica-Bold;writing-mode:lr-tb;fill:#ff0000;fill-opacity:1;fill-rule:nonzero;stroke:none"
           id="text74"><tspan
             x="0 5.994 16.002001 21.006001 31.014"
             y="0"
             sodipodi:role="line"
             id="tspan72">(0,0)</tspan></text>
</g><g
         id="g76"
         transform="scale(10)"><text
           transform="matrix(1,0,0,-1,327.992,322.076)"
           style="font-variant:normal;font-weight:bold;font-size:18px;font-family:Helvetica;-inkscape-font-specification:Helvetica-Bold;writing-mode:lr-tb;fill:#000000;fill-opacity:1;fill-rule:nonzero;stroke:none"
           id="text82"><tspan
             x="0 5.994 16.002001 21.006001 31.014 -102.992 -96.998001 -86.486 -76.477997 -71.473999 -61.466"
             y="0"
             sodipodi:role="line"
             id="tspan78">(1,1)(−1,1)</tspan><tspan
             x="-92.991997 -86.998001 -76.989998 -71.986 -61.473999 -51.466"
             y="90"
             sodipodi:role="line"
             id="tspan80">(0,−2)</tspan></text>
</g><path
         d="m 3325,3000 c 0,-41.42 -33.58,-75 -75,-75 -41.42,0 -75,33.58 -75,75 0,41.42 33.58,75 75,75 41.42,0 75,-33.58 75,-75"
         style="fill:#00ff00;fill-opacity:1;fill-rule:evenodd;stroke:none"
         id="path84"
         inkscape:connector-curvature="0" /><path
         d="m 3325,3000 c 0,-41.42 -33.58,-75 -75,-75 -41.42,0 -75,33.58 -75,75 0,41.42 33.58,75 75,75 41.42,0 75,-33.58 75,-75"
         style="fill:none;stroke:#000000;stroke-width:10;stroke-linecap:butt;stroke-linejoin:miter;stroke-miterlimit:10.43299961;stroke-dasharray:none;stroke-opacity:1"
         id="path86"
         inkscape:connector-curvature="0" /><path
         d="m 3075,2750 c 0,-41.42 -33.58,-75 -75,-75 -41.42,0 -75,33.58 -75,75 0,41.42 33.58,75 75,75 41.42,0 75,-33.58 75,-75"
         style="fill:#ff0000;fill-opacity:1;fill-rule:evenodd;stroke:none"
         id="path88"
         inkscape:connector-curvature="0" /><path
         d="m 3075,2750 c 0,-41.42 -33.58,-75 -75,-75 -41.42,0 -75,33.58 -75,75 0,41.42 33.58,75 75,75 41.42,0 75,-33.58 75,-75"
         style="fill:none;stroke:#000000;stroke-width:10;stroke-linecap:butt;stroke-linejoin:miter;stroke-miterlimit:10.43299961;stroke-dasharray:none;stroke-opacity:1"
         id="path90"
         inkscape:connector-curvature="0" /><path
         d="m 2825,3000 c 0,-41.42 -33.58,-75 -75,-75 -41.42,0 -75,33.58 -75,75 0,41.42 33.58,75 75,75 41.42,0 75,-33.58 75,-75"
         style="fill:#00ff00;fill-opacity:1;fill-rule:evenodd;stroke:none"
         id="path92"
         inkscape:connector-curvature="0" /><path
         d="m 2825,3000 c 0,-41.42 -33.58,-75 -75,-75 -41.42,0 -75,33.58 -75,75 0,41.42 33.58,75 75,75 41.42,0 75,-33.58 75,-75"
         style="fill:none;stroke:#000000;stroke-width:10;stroke-linecap:butt;stroke-linejoin:miter;stroke-miterlimit:10.43299961;stroke-dasharray:none;stroke-opacity:1"
         id="path94"
         inkscape:connector-curvature="0" /><path
         d="m 3075,2250 c 0,-41.42 -33.58,-75 -75,-75 -41.42,0 -75,33.58 -75,75 0,41.42 33.58,75 75,75 41.42,0 75,-33.58 75,-75"
         style="fill:#00ff00;fill-opacity:1;fill-rule:evenodd;stroke:none"
         id="path96"
         inkscape:connector-curvature="0" /><path
         d="m 3075,2250 c 0,-41.42 -33.58,-75 -75,-75 -41.42,0 -75,33.58 -75,75 0,41.42 33.58,75 75,75 41.42,0 75,-33.58 75,-75"
         style="fill:none;stroke:#000000;stroke-width:10;stroke-linecap:butt;stroke-linejoin:miter;stroke-miterlimit:10.43299961;stroke-dasharray:none;stroke-opacity:1"
         id="path98"
         inkscape:connector-curvature="0" /></g></g></svg>