<?xml version="1.0" encoding="UTF-8" standalone="no"?>
<!-- Created with Inkscape (http://www.inkscape.org/) -->

<svg
   xmlns:dc="http://purl.org/dc/elements/1.1/"
   xmlns:cc="http://creativecommons.org/ns#"
   xmlns:rdf="http://www.w3.org/1999/02/22-rdf-syntax-ns#"
   xmlns:svg="http://www.w3.org/2000/svg"
   xmlns="http://www.w3.org/2000/svg"
   xmlns:sodipodi="http://sodipodi.sourceforge.net/DTD/sodipodi-0.dtd"
   xmlns:inkscape="http://www.inkscape.org/namespaces/inkscape"
   version="1.1"
   id="svg2"
   xml:space="preserve"
   width="793.33331"
   height="1122.6667"
   viewBox="0 0 793.33331 1122.6667"
   sodipodi:docname="heesch-C4C4C4C4C.svg"
   inkscape:version="0.92.2 (5c3e80d, 2017-08-06)"><metadata
     id="metadata8"><rdf:RDF><cc:Work
         rdf:about=""><dc:format>image/svg+xml</dc:format><dc:type
           rdf:resource="http://purl.org/dc/dcmitype/StillImage" /><dc:title></dc:title></cc:Work></rdf:RDF></metadata><defs
     id="defs6" /><sodipodi:namedview
     pagecolor="#ffffff"
     bordercolor="#666666"
     borderopacity="1"
     objecttolerance="10"
     gridtolerance="10"
     guidetolerance="10"
     inkscape:pageopacity="0"
     inkscape:pageshadow="2"
     inkscape:window-width="710"
     inkscape:window-height="480"
     id="namedview4"
     showgrid="false"
     inkscape:zoom="0.21021376"
     inkscape:cx="396.66666"
     inkscape:cy="561.33337"
     inkscape:window-x="0"
     inkscape:window-y="24"
     inkscape:window-maximized="0"
     inkscape:current-layer="g10" /><g
     id="g10"
     inkscape:groupmode="layer"
     inkscape:label="ink_ext_XXXXXX"
     transform="matrix(1.3333333,0,0,-1.3333333,0,1122.6667)"><g
       id="g12"
       transform="scale(0.1)"><path
         d="m 3852.85,2190.36 c 0,400 200,400 600,200 400,-200 600,-200 600,200 -400,200 -600,1200 0,1200 0,600 -1000,400 -1200,0 0,-600 -400,-600 -800,-800 200,-400 200,-800 800,-800"
         style="fill:#ff7c00;fill-opacity:1;fill-rule:evenodd;stroke:none"
         id="path14"
         inkscape:connector-curvature="0" /><path
         d="m 3852.85,2190.36 c 0,400 200,400 600,200 400,-200 600,-200 600,200 -400,200 -600,1200 0,1200 0,600 -1000,400 -1200,0 0,-600 -400,-600 -800,-800 200,-400 200,-800 800,-800 z"
         style="fill:none;stroke:#4d0000;stroke-width:40;stroke-linecap:round;stroke-linejoin:round;stroke-miterlimit:10.43299961;stroke-dasharray:none;stroke-opacity:1"
         id="path16"
         inkscape:connector-curvature="0" /><path
         d="m 5046.25,2590.37 c 0,-400 -200,-400 -600,-200 -400,200 -600,200 -600,-200 400,-200 600,-1200.007 0,-1200.007 0,-600 1000,-400 1200,0 0,600.007 400,600.007 800,800.007 -200,400 -200,800 -800,800"
         style="fill:#ffbd80;fill-opacity:1;fill-rule:evenodd;stroke:none"
         id="path18"
         inkscape:connector-curvature="0" /><path
         d="m 5046.25,2590.37 c 0,-400 -200,-400 -600,-200 -400,200 -600,200 -600,-200 400,-200 600,-1200.007 0,-1200.007 0,-600 1000,-400 1200,0 0,600.007 400,600.007 800,800.007 -200,400 -200,800 -800,800 z"
         style="fill:none;stroke:#4d0000;stroke-width:40;stroke-linecap:round;stroke-linejoin:round;stroke-miterlimit:10.43299961;stroke-dasharray:none;stroke-opacity:1"
         id="path20"
         inkscape:connector-curvature="0" /><path
         d="m 2260.97,3797.73 c 0,-400.01 -200,-400.01 -600,-200.01 -400,200.01 -600,200.01 -600,-200 400,-200 600,-1200 0,-1200 0,-599.99 1000,-399.99 1200,0 0,600 400,600 800,800 -200,400 -200,800.01 -800,800.01"
         style="fill:#ffecd9;fill-opacity:1;fill-rule:evenodd;stroke:none"
         id="path22"
         inkscape:connector-curvature="0" /><path
         d="m 2260.97,3797.73 c 0,-400.01 -200,-400.01 -600,-200.01 -400,200.01 -600,200.01 -600,-200 400,-200 600,-1200 0,-1200 0,-599.99 1000,-399.99 1200,0 0,600 400,600 800,800 -200,400 -200,800.01 -800,800.01 z"
         style="fill:none;stroke:#4d0000;stroke-width:40;stroke-linecap:round;stroke-linejoin:round;stroke-miterlimit:10.43299961;stroke-dasharray:none;stroke-opacity:1"
         id="path24"
         inkscape:connector-curvature="0" /><path
         d="m 6217.48,5384.4 c 0,-400 -200,-400 -600,-200 -400,200 -600,200 -600,-200 400,-200 600,-1200 0,-1200 0,-600 1000,-400 1200,0 0,600 400,600 800,800 -200,400 -200,800 -800,800"
         style="fill:#ffecd9;fill-opacity:1;fill-rule:evenodd;stroke:none"
         id="path26"
         inkscape:connector-curvature="0" /><path
         d="m 6217.48,5384.4 c 0,-400 -200,-400 -600,-200 -400,200 -600,200 -600,-200 400,-200 600,-1200 0,-1200 0,-600 1000,-400 1200,0 0,600 400,600 800,800 -200,400 -200,800 -800,800 z"
         style="fill:none;stroke:#4d0000;stroke-width:40;stroke-linecap:round;stroke-linejoin:round;stroke-miterlimit:10.43299961;stroke-dasharray:none;stroke-opacity:1"
         id="path28"
         inkscape:connector-curvature="0" /><path
         d="m 6624.05,988.75 c 0,400 200,400 600,200 400,-200 600,-200 600,200 -400,200 -600,1200 0,1200 0,600 -1000,400 -1200,0 0,-600 -400,-600 -800,-800 200,-400 200,-800 800,-800"
         style="fill:#ffecd9;fill-opacity:1;fill-rule:evenodd;stroke:none"
         id="path30"
         inkscape:connector-curvature="0" /><path
         d="m 6624.05,988.75 c 0,400 200,400 600,200 400,-200 600,-200 600,200 -400,200 -600,1200 0,1200 0,600 -1000,400 -1200,0 0,-600 -400,-600 -800,-800 200,-400 200,-800 800,-800 z"
         style="fill:none;stroke:#4d0000;stroke-width:40;stroke-linecap:round;stroke-linejoin:round;stroke-miterlimit:10.43299961;stroke-dasharray:none;stroke-opacity:1"
         id="path32"
         inkscape:connector-curvature="0" /><path
         d="m 1071.76,3392.24 c 0,400 200,400 600,200 400,-200 600,-200 600,200 -400,200 -600,1200 0,1200 0,600 -1000,400 -1200,0 0,-600 -399.998,-600 -799.998,-800 200,-400 200,-800 799.998,-800"
         style="fill:#ffecd9;fill-opacity:1;fill-rule:evenodd;stroke:none"
         id="path34"
         inkscape:connector-curvature="0" /><path
         d="m 1071.76,3392.24 c 0,400 200,400 600,200 400,-200 600,-200 600,200 -400,200 -600,1200 0,1200 0,600 -1000,400 -1200,0 0,-600 -399.998,-600 -799.998,-800 200,-400 200,-800 799.998,-800 z"
         style="fill:none;stroke:#4d0000;stroke-width:40;stroke-linecap:round;stroke-linejoin:round;stroke-miterlimit:10.43299961;stroke-dasharray:none;stroke-opacity:1"
         id="path36"
         inkscape:connector-curvature="0" /><path
         d="m 2654.52,1000 c -400,0 -400,200 -200,600 200,400 200,600 -200,600 -200,-400 -1200,-600 -1200,0 -599.997,0 -399.997,-1000 0,-1200 600,0 600,-400 800,-800 400,200 800,200 800,800"
         style="fill:#ffecd9;fill-opacity:1;fill-rule:evenodd;stroke:none"
         id="path38"
         inkscape:connector-curvature="0" /><path
         d="m 2654.52,1000 c -400,0 -400,200 -200,600 200,400 200,600 -200,600 -200,-400 -1200,-600 -1200,0 -599.997,0 -399.997,-1000 0,-1200 600,0 600,-400 800,-800 400,200 800,200 800,800 z"
         style="fill:none;stroke:#4d0000;stroke-width:40;stroke-linecap:round;stroke-linejoin:round;stroke-miterlimit:10.43299961;stroke-dasharray:none;stroke-opacity:1"
         id="path40"
         inkscape:connector-curvature="0" /><path
         d="m 3452.85,4990.36 c 400,0 400,-200 200,-600 -200,-400 -200,-600 200,-600 200,400 1200,600 1200,0 600,0 400,1000 0,1200 -600,0 -600,400 -800,800 -400,-200 -800,-200 -800,-800"
         style="fill:#ffbd80;fill-opacity:1;fill-rule:evenodd;stroke:none"
         id="path42"
         inkscape:connector-curvature="0" /><path
         d="m 3452.85,4990.36 c 400,0 400,-200 200,-600 -200,-400 -200,-600 200,-600 200,400 1200,600 1200,0 600,0 400,1000 0,1200 -600,0 -600,400 -800,800 -400,-200 -800,-200 -800,-800 z"
         style="fill:none;stroke:#4d0000;stroke-width:40;stroke-linecap:round;stroke-linejoin:round;stroke-miterlimit:10.43299961;stroke-dasharray:none;stroke-opacity:1"
         id="path44"
         inkscape:connector-curvature="0" /><path
         d="m 2246.25,2190.37 c 400,0 400,-200 200,-600 -200,-400 -200,-600.007 200,-600.007 200,400.007 1200,600.007 1200,0 600,0 400,1000.007 0,1200.007 -600,0 -600,399.99 -800,799.99 -400,-200 -800,-200 -800,-799.99"
         style="fill:#ffbd80;fill-opacity:1;fill-rule:evenodd;stroke:none"
         id="path46"
         inkscape:connector-curvature="0" /><path
         d="m 2246.25,2190.37 c 400,0 400,-200 200,-600 -200,-400 -200,-600.007 200,-600.007 200,400.007 1200,600.007 1200,0 600,0 400,1000.007 0,1200.007 -600,0 -600,399.99 -800,799.99 -400,-200 -800,-200 -800,-799.99 z"
         style="fill:none;stroke:#4d0000;stroke-width:40;stroke-linecap:round;stroke-linejoin:round;stroke-miterlimit:10.43299961;stroke-dasharray:none;stroke-opacity:1"
         id="path48"
         inkscape:connector-curvature="0" /><path
         d="m 6631.53,2590.36 c -400,0 -400,200 -200,600 200,400 200,600 -200,600 -200,-400 -1200,-600 -1200,0 -600,0 -400,-1000 0,-1200 600,0 600,-399.99 800,-799.99 400,200 800,200 800,799.99"
         style="fill:#ffbd80;fill-opacity:1;fill-rule:evenodd;stroke:none"
         id="path50"
         inkscape:connector-curvature="0" /><path
         d="m 6631.53,2590.36 c -400,0 -400,200 -200,600 200,400 200,600 -200,600 -200,-400 -1200,-600 -1200,0 -600,0 -400,-1000 0,-1200 600,0 600,-399.99 800,-799.99 400,200 800,200 800,799.99 z"
         style="fill:none;stroke:#4d0000;stroke-width:40;stroke-linecap:round;stroke-linejoin:round;stroke-miterlimit:10.43299961;stroke-dasharray:none;stroke-opacity:1"
         id="path52"
         inkscape:connector-curvature="0" /><path
         d="m 3868.33,3797.73 c -400,0 -400,200 -200,600 200,400 200,600 -200,600 -200,-400 -1200,-600 -1200,0 -600,0 -400,-1000 0,-1200 600,0 600,-400 800,-800 400,200 800,200 800,800"
         style="fill:#ffbd80;fill-opacity:1;fill-rule:evenodd;stroke:none"
         id="path54"
         inkscape:connector-curvature="0" /><path
         d="m 3868.33,3797.73 c -400,0 -400,200 -200,600 200,400 200,600 -200,600 -200,-400 -1200,-600 -1200,0 -600,0 -400,-1000 0,-1200 600,0 600,-400 800,-800 400,200 800,200 800,800 z"
         style="fill:none;stroke:#4d0000;stroke-width:40;stroke-linecap:round;stroke-linejoin:round;stroke-miterlimit:10.43299961;stroke-dasharray:none;stroke-opacity:1"
         id="path56"
         inkscape:connector-curvature="0" /><path
         d="m 3952.85,3790.36 c 0,55.23 -44.77,100 -100,100 -55.22,0 -100,-44.77 -100,-100 0,-55.23 44.78,-100 100,-100 55.23,0 100,44.77 100,100"
         style="fill:#0000ff;fill-opacity:1;fill-rule:evenodd;stroke:none"
         id="path58"
         inkscape:connector-curvature="0" /><path
         d="m 3952.85,3790.36 c 0,55.23 -44.77,100 -100,100 -55.22,0 -100,-44.77 -100,-100 0,-55.23 44.78,-100 100,-100 55.23,0 100,44.77 100,100"
         style="fill:none;stroke:#000000;stroke-width:10;stroke-linecap:butt;stroke-linejoin:miter;stroke-miterlimit:10.43299961;stroke-dasharray:none;stroke-opacity:1"
         id="path60"
         inkscape:connector-curvature="0" /><path
         d="m 3738.89,2814.64 c -31.08,59.71 36.74,149.33 192.83,141.32 156.08,-8.01 348.14,84.82 392.01,-5.12 43.86,-89.93 36.46,-188.44 -94.15,-195.9 -130.61,-7.46 -179.64,153.27 -283.7,81.26 -104.07,-72 -175.9,-81.27 -206.99,-21.56"
         style="fill:#008080;fill-opacity:1;fill-rule:evenodd;stroke:none"
         id="path62"
         inkscape:connector-curvature="0" /><path
         d="m 3738.89,2814.64 c -31.08,59.71 36.74,149.33 192.83,141.32 156.08,-8.01 348.14,84.82 392.01,-5.12 43.86,-89.93 36.46,-188.44 -94.15,-195.9 -130.61,-7.46 -179.64,153.27 -283.7,81.26 -104.07,-72 -175.9,-81.27 -206.99,-21.56 z"
         style="fill:none;stroke:#000000;stroke-width:10;stroke-linecap:butt;stroke-linejoin:miter;stroke-miterlimit:10.43299961;stroke-dasharray:none;stroke-opacity:1"
         id="path64"
         inkscape:connector-curvature="0" /><path
         d="m 4452.85,2801.85 c 0.19,-24.31 -25.46,-47.66 -57.3,-52.15 -31.83,-4.49 -57.8,11.58 -58,35.89 -0.19,24.31 25.46,47.66 57.29,52.15 31.84,4.49 57.81,-11.58 58.01,-35.89"
         style="fill:#008080;fill-opacity:1;fill-rule:evenodd;stroke:none"
         id="path66"
         inkscape:connector-curvature="0" /><path
         d="m 4452.85,2801.85 c 0.19,-24.31 -25.46,-47.66 -57.3,-52.15 -31.83,-4.49 -57.8,11.58 -58,35.89 -0.19,24.31 25.46,47.66 57.29,52.15 31.84,4.49 57.81,-11.58 58.01,-35.89"
         style="fill:none;stroke:#000000;stroke-width:10;stroke-linecap:butt;stroke-linejoin:miter;stroke-miterlimit:10.43299961;stroke-dasharray:none;stroke-opacity:1"
         id="path68"
         inkscape:connector-curvature="0" /><path
         d="m 4426.86,2861.4 c -2.67,-11.79 -17.66,-20.18 -33.48,-18.72 -15.82,1.45 -26.48,12.2 -23.82,24 2.67,11.79 17.66,20.18 33.48,18.72 15.82,-1.45 26.48,-12.2 23.82,-24"
         style="fill:#008080;fill-opacity:1;fill-rule:evenodd;stroke:none"
         id="path70"
         inkscape:connector-curvature="0" /><path
         d="m 4426.86,2861.4 c -2.67,-11.79 -17.66,-20.18 -33.48,-18.72 -15.82,1.45 -26.48,12.2 -23.82,24 2.67,11.79 17.66,20.18 33.48,18.72 15.82,-1.45 26.48,-12.2 23.82,-24"
         style="fill:none;stroke:#000000;stroke-width:10;stroke-linecap:butt;stroke-linejoin:miter;stroke-miterlimit:10.43299961;stroke-dasharray:none;stroke-opacity:1"
         id="path72"
         inkscape:connector-curvature="0" /><path
         d="m 4408.89,2902.74 c -3.06,-9.91 -15.82,-16.19 -28.5,-14.03 -12.67,2.16 -20.47,11.95 -17.42,21.85 3.06,9.91 15.82,16.19 28.49,14.03 12.68,-2.16 20.48,-11.95 17.43,-21.85"
         style="fill:#008080;fill-opacity:1;fill-rule:evenodd;stroke:none"
         id="path74"
         inkscape:connector-curvature="0" /><path
         d="m 4408.89,2902.74 c -3.06,-9.91 -15.82,-16.19 -28.5,-14.03 -12.67,2.16 -20.47,11.95 -17.42,21.85 3.06,9.91 15.82,16.19 28.49,14.03 12.68,-2.16 20.48,-11.95 17.43,-21.85"
         style="fill:none;stroke:#000000;stroke-width:10;stroke-linecap:butt;stroke-linejoin:miter;stroke-miterlimit:10.43299961;stroke-dasharray:none;stroke-opacity:1"
         id="path76"
         inkscape:connector-curvature="0" /><path
         d="m 4384.86,2933.88 c -3.1,-8.32 -14.39,-13.06 -25.2,-10.57 -10.81,2.49 -17.06,11.26 -13.96,19.59 3.1,8.32 14.39,13.06 25.2,10.57 10.81,-2.49 17.06,-11.26 13.96,-19.59"
         style="fill:#008080;fill-opacity:1;fill-rule:evenodd;stroke:none"
         id="path78"
         inkscape:connector-curvature="0" /><path
         d="m 4384.86,2933.88 c -3.1,-8.32 -14.39,-13.06 -25.2,-10.57 -10.81,2.49 -17.06,11.26 -13.96,19.59 3.1,8.32 14.39,13.06 25.2,10.57 10.81,-2.49 17.06,-11.26 13.96,-19.59"
         style="fill:none;stroke:#000000;stroke-width:10;stroke-linecap:butt;stroke-linejoin:miter;stroke-miterlimit:10.43299961;stroke-dasharray:none;stroke-opacity:1"
         id="path80"
         inkscape:connector-curvature="0" /><path
         d="m 4361.46,2959.34 c -3.06,-7.28 -13.63,-10.97 -23.6,-8.23 -9.97,2.73 -15.57,10.85 -12.5,18.13 3.06,7.28 13.63,10.97 23.6,8.23 9.97,-2.73 15.57,-10.85 12.5,-18.13"
         style="fill:#008080;fill-opacity:1;fill-rule:evenodd;stroke:none"
         id="path82"
         inkscape:connector-curvature="0" /><path
         d="m 4361.46,2959.34 c -3.06,-7.28 -13.63,-10.97 -23.6,-8.23 -9.97,2.73 -15.57,10.85 -12.5,18.13 3.06,7.28 13.63,10.97 23.6,8.23 9.97,-2.73 15.57,-10.85 12.5,-18.13"
         style="fill:none;stroke:#000000;stroke-width:10;stroke-linecap:butt;stroke-linejoin:miter;stroke-miterlimit:10.43299961;stroke-dasharray:none;stroke-opacity:1"
         id="path84"
         inkscape:connector-curvature="0" /><path
         d="m 5160.21,1966.09 c 31.08,-59.71 -36.74,-149.33 -192.83,-141.32 -156.08,8.01 -348.14,-84.82 -392.01,5.12 -43.86,89.93 -36.46,188.44 94.15,195.9 130.61,7.46 179.64,-153.27 283.7,-81.26 104.07,72 175.9,81.27 206.99,21.56"
         style="fill:#008080;fill-opacity:1;fill-rule:evenodd;stroke:none"
         id="path86"
         inkscape:connector-curvature="0" /><path
         d="m 5160.21,1966.09 c 31.08,-59.71 -36.74,-149.33 -192.83,-141.32 -156.08,8.01 -348.14,-84.82 -392.01,5.12 -43.86,89.93 -36.46,188.44 94.15,195.9 130.61,7.46 179.64,-153.27 283.7,-81.26 104.07,72 175.9,81.27 206.99,21.56 z"
         style="fill:none;stroke:#000000;stroke-width:10;stroke-linecap:butt;stroke-linejoin:miter;stroke-miterlimit:10.43299961;stroke-dasharray:none;stroke-opacity:1"
         id="path88"
         inkscape:connector-curvature="0" /><path
         d="m 4446.25,1978.88 c -0.19,24.31 25.46,47.66 57.29,52.15 31.84,4.49 57.82,-11.58 58.01,-35.89 0.2,-24.31 -25.46,-47.66 -57.29,-52.15 -31.84,-4.49 -57.81,11.58 -58.01,35.89"
         style="fill:#008080;fill-opacity:1;fill-rule:evenodd;stroke:none"
         id="path90"
         inkscape:connector-curvature="0" /><path
         d="m 4446.25,1978.88 c -0.19,24.31 25.46,47.66 57.29,52.15 31.84,4.49 57.82,-11.58 58.01,-35.89 0.2,-24.31 -25.46,-47.66 -57.29,-52.15 -31.84,-4.49 -57.81,11.58 -58.01,35.89"
         style="fill:none;stroke:#000000;stroke-width:10;stroke-linecap:butt;stroke-linejoin:miter;stroke-miterlimit:10.43299961;stroke-dasharray:none;stroke-opacity:1"
         id="path92"
         inkscape:connector-curvature="0" /><path
         d="m 4472.24,1919.33 c 2.67,11.8 17.66,20.18 33.48,18.72 15.82,-1.45 26.48,-12.2 23.82,-24 -2.67,-11.79 -17.66,-20.17 -33.48,-18.72 -15.82,1.45 -26.48,12.2 -23.82,24"
         style="fill:#008080;fill-opacity:1;fill-rule:evenodd;stroke:none"
         id="path94"
         inkscape:connector-curvature="0" /><path
         d="m 4472.24,1919.33 c 2.67,11.8 17.66,20.18 33.48,18.72 15.82,-1.45 26.48,-12.2 23.82,-24 -2.67,-11.79 -17.66,-20.17 -33.48,-18.72 -15.82,1.45 -26.48,12.2 -23.82,24"
         style="fill:none;stroke:#000000;stroke-width:10;stroke-linecap:butt;stroke-linejoin:miter;stroke-miterlimit:10.43299961;stroke-dasharray:none;stroke-opacity:1"
         id="path96"
         inkscape:connector-curvature="0" /><path
         d="m 4490.21,1877.99 c 3.06,9.91 15.82,16.19 28.49,14.03 12.68,-2.16 20.48,-11.95 17.43,-21.85 -3.06,-9.91 -15.82,-16.19 -28.49,-14.03 -12.68,2.16 -20.48,11.95 -17.43,21.85"
         style="fill:#008080;fill-opacity:1;fill-rule:evenodd;stroke:none"
         id="path98"
         inkscape:connector-curvature="0" /><path
         d="m 4490.21,1877.99 c 3.06,9.91 15.82,16.19 28.49,14.03 12.68,-2.16 20.48,-11.95 17.43,-21.85 -3.06,-9.91 -15.82,-16.19 -28.49,-14.03 -12.68,2.16 -20.48,11.95 -17.43,21.85"
         style="fill:none;stroke:#000000;stroke-width:10;stroke-linecap:butt;stroke-linejoin:miter;stroke-miterlimit:10.43299961;stroke-dasharray:none;stroke-opacity:1"
         id="path100"
         inkscape:connector-curvature="0" /><path
         d="m 4514.24,1846.85 c 3.1,8.32 14.39,13.06 25.2,10.57 10.81,-2.49 17.06,-11.26 13.96,-19.59 -3.1,-8.32 -14.39,-13.06 -25.2,-10.57 -10.81,2.49 -17.06,11.26 -13.96,19.59"
         style="fill:#008080;fill-opacity:1;fill-rule:evenodd;stroke:none"
         id="path102"
         inkscape:connector-curvature="0" /><path
         d="m 4514.24,1846.85 c 3.1,8.32 14.39,13.06 25.2,10.57 10.81,-2.49 17.06,-11.26 13.96,-19.59 -3.1,-8.32 -14.39,-13.06 -25.2,-10.57 -10.81,2.49 -17.06,11.26 -13.96,19.59"
         style="fill:none;stroke:#000000;stroke-width:10;stroke-linecap:butt;stroke-linejoin:miter;stroke-miterlimit:10.43299961;stroke-dasharray:none;stroke-opacity:1"
         id="path104"
         inkscape:connector-curvature="0" /><path
         d="m 4537.63,1821.39 c 3.07,7.28 13.64,10.97 23.6,8.24 9.98,-2.74 15.58,-10.86 12.52,-18.14 -3.07,-7.28 -13.64,-10.97 -23.61,-8.24 -9.96,2.74 -15.57,10.86 -12.51,18.14"
         style="fill:#008080;fill-opacity:1;fill-rule:evenodd;stroke:none"
         id="path106"
         inkscape:connector-curvature="0" /><path
         d="m 4537.63,1821.39 c 3.07,7.28 13.64,10.97 23.6,8.24 9.98,-2.74 15.58,-10.86 12.52,-18.14 -3.07,-7.28 -13.64,-10.97 -23.61,-8.24 -9.96,2.74 -15.57,10.86 -12.51,18.14"
         style="fill:none;stroke:#000000;stroke-width:10;stroke-linecap:butt;stroke-linejoin:miter;stroke-miterlimit:10.43299961;stroke-dasharray:none;stroke-opacity:1"
         id="path108"
         inkscape:connector-curvature="0" /><path
         d="m 2374.93,3173.45 c 31.08,-59.71 -36.74,-149.33 -192.83,-141.32 -156.08,8.01 -348.14,-84.82 -392.01,5.12 -43.86,89.93 -36.46,188.44 94.15,195.9 130.61,7.46 179.64,-153.27 283.7,-81.26 104.07,72 175.9,81.27 206.99,21.56"
         style="fill:#008080;fill-opacity:1;fill-rule:evenodd;stroke:none"
         id="path110"
         inkscape:connector-curvature="0" /><path
         d="m 2374.93,3173.45 c 31.08,-59.71 -36.74,-149.33 -192.83,-141.32 -156.08,8.01 -348.14,-84.82 -392.01,5.12 -43.86,89.93 -36.46,188.44 94.15,195.9 130.61,7.46 179.64,-153.27 283.7,-81.26 104.07,72 175.9,81.27 206.99,21.56 z"
         style="fill:none;stroke:#000000;stroke-width:10;stroke-linecap:butt;stroke-linejoin:miter;stroke-miterlimit:10.43299961;stroke-dasharray:none;stroke-opacity:1"
         id="path112"
         inkscape:connector-curvature="0" /><path
         d="m 1660.97,3186.24 c -0.19,24.31 25.46,47.66 57.29,52.15 31.84,4.49 57.81,-11.58 58.01,-35.89 0.19,-24.31 -25.46,-47.66 -57.29,-52.15 -31.84,-4.49 -57.81,11.58 -58.01,35.89"
         style="fill:#008080;fill-opacity:1;fill-rule:evenodd;stroke:none"
         id="path114"
         inkscape:connector-curvature="0" /><path
         d="m 1660.97,3186.24 c -0.19,24.31 25.46,47.66 57.29,52.15 31.84,4.49 57.81,-11.58 58.01,-35.89 0.19,-24.31 -25.46,-47.66 -57.29,-52.15 -31.84,-4.49 -57.81,11.58 -58.01,35.89"
         style="fill:none;stroke:#000000;stroke-width:10;stroke-linecap:butt;stroke-linejoin:miter;stroke-miterlimit:10.43299961;stroke-dasharray:none;stroke-opacity:1"
         id="path116"
         inkscape:connector-curvature="0" /><path
         d="m 1686.96,3126.69 c 2.67,11.79 17.66,20.18 33.48,18.72 15.82,-1.45 26.48,-12.2 23.82,-24 -2.67,-11.79 -17.66,-20.18 -33.48,-18.72 -15.82,1.45 -26.48,12.2 -23.82,24"
         style="fill:#008080;fill-opacity:1;fill-rule:evenodd;stroke:none"
         id="path118"
         inkscape:connector-curvature="0" /><path
         d="m 1686.96,3126.69 c 2.67,11.79 17.66,20.18 33.48,18.72 15.82,-1.45 26.48,-12.2 23.82,-24 -2.67,-11.79 -17.66,-20.18 -33.48,-18.72 -15.82,1.45 -26.48,12.2 -23.82,24"
         style="fill:none;stroke:#000000;stroke-width:10;stroke-linecap:butt;stroke-linejoin:miter;stroke-miterlimit:10.43299961;stroke-dasharray:none;stroke-opacity:1"
         id="path120"
         inkscape:connector-curvature="0" /><path
         d="m 1704.93,3085.35 c 3.06,9.91 15.82,16.19 28.5,14.03 12.67,-2.16 20.47,-11.94 17.42,-21.85 -3.06,-9.9 -15.82,-16.19 -28.49,-14.03 -12.68,2.16 -20.48,11.95 -17.43,21.85"
         style="fill:#008080;fill-opacity:1;fill-rule:evenodd;stroke:none"
         id="path122"
         inkscape:connector-curvature="0" /><path
         d="m 1704.93,3085.35 c 3.06,9.91 15.82,16.19 28.5,14.03 12.67,-2.16 20.47,-11.94 17.42,-21.85 -3.06,-9.9 -15.82,-16.19 -28.49,-14.03 -12.68,2.16 -20.48,11.95 -17.43,21.85"
         style="fill:none;stroke:#000000;stroke-width:10;stroke-linecap:butt;stroke-linejoin:miter;stroke-miterlimit:10.43299961;stroke-dasharray:none;stroke-opacity:1"
         id="path124"
         inkscape:connector-curvature="0" /><path
         d="m 1728.96,3054.21 c 3.1,8.32 14.39,13.06 25.2,10.57 10.81,-2.49 17.06,-11.26 13.96,-19.59 -3.1,-8.32 -14.39,-13.06 -25.2,-10.57 -10.81,2.49 -17.06,11.26 -13.96,19.59"
         style="fill:#008080;fill-opacity:1;fill-rule:evenodd;stroke:none"
         id="path126"
         inkscape:connector-curvature="0" /><path
         d="m 1728.96,3054.21 c 3.1,8.32 14.39,13.06 25.2,10.57 10.81,-2.49 17.06,-11.26 13.96,-19.59 -3.1,-8.32 -14.39,-13.06 -25.2,-10.57 -10.81,2.49 -17.06,11.26 -13.96,19.59"
         style="fill:none;stroke:#000000;stroke-width:10;stroke-linecap:butt;stroke-linejoin:miter;stroke-miterlimit:10.43299961;stroke-dasharray:none;stroke-opacity:1"
         id="path128"
         inkscape:connector-curvature="0" /><path
         d="m 1752.36,3028.75 c 3.06,7.28 13.63,10.97 23.6,8.23 9.97,-2.73 15.57,-10.85 12.5,-18.13 -3.06,-7.28 -13.63,-10.97 -23.6,-8.23 -9.97,2.73 -15.57,10.85 -12.5,18.13"
         style="fill:#008080;fill-opacity:1;fill-rule:evenodd;stroke:none"
         id="path130"
         inkscape:connector-curvature="0" /><path
         d="m 1752.36,3028.75 c 3.06,7.28 13.63,10.97 23.6,8.23 9.97,-2.73 15.57,-10.85 12.5,-18.13 -3.06,-7.28 -13.63,-10.97 -23.6,-8.23 -9.97,2.73 -15.57,10.85 -12.5,18.13"
         style="fill:none;stroke:#000000;stroke-width:10;stroke-linecap:butt;stroke-linejoin:miter;stroke-miterlimit:10.43299961;stroke-dasharray:none;stroke-opacity:1"
         id="path132"
         inkscape:connector-curvature="0" /><path
         d="m 6331.44,4760.12 c 31.08,-59.71 -36.74,-149.33 -192.83,-141.32 -156.08,8.01 -348.14,-84.82 -392.01,5.12 -43.86,89.93 -36.46,188.44 94.15,195.9 130.61,7.46 179.64,-153.27 283.7,-81.26 104.07,72 175.9,81.27 206.99,21.56"
         style="fill:#008080;fill-opacity:1;fill-rule:evenodd;stroke:none"
         id="path134"
         inkscape:connector-curvature="0" /><path
         d="m 6331.44,4760.12 c 31.08,-59.71 -36.74,-149.33 -192.83,-141.32 -156.08,8.01 -348.14,-84.82 -392.01,5.12 -43.86,89.93 -36.46,188.44 94.15,195.9 130.61,7.46 179.64,-153.27 283.7,-81.26 104.07,72 175.9,81.27 206.99,21.56 z"
         style="fill:none;stroke:#000000;stroke-width:10;stroke-linecap:butt;stroke-linejoin:miter;stroke-miterlimit:10.43299961;stroke-dasharray:none;stroke-opacity:1"
         id="path136"
         inkscape:connector-curvature="0" /><path
         d="m 5617.48,4772.91 c -0.19,24.31 25.46,47.66 57.29,52.15 31.84,4.49 57.81,-11.58 58.01,-35.89 0.19,-24.31 -25.46,-47.66 -57.3,-52.15 -31.83,-4.49 -57.8,11.58 -58,35.89"
         style="fill:#008080;fill-opacity:1;fill-rule:evenodd;stroke:none"
         id="path138"
         inkscape:connector-curvature="0" /><path
         d="m 5617.48,4772.91 c -0.19,24.31 25.46,47.66 57.29,52.15 31.84,4.49 57.81,-11.58 58.01,-35.89 0.19,-24.31 -25.46,-47.66 -57.3,-52.15 -31.83,-4.49 -57.8,11.58 -58,35.89"
         style="fill:none;stroke:#000000;stroke-width:10;stroke-linecap:butt;stroke-linejoin:miter;stroke-miterlimit:10.43299961;stroke-dasharray:none;stroke-opacity:1"
         id="path140"
         inkscape:connector-curvature="0" /><path
         d="m 5643.47,4713.36 c 2.67,11.79 17.66,20.18 33.48,18.72 15.82,-1.45 26.48,-12.2 23.82,-24 -2.67,-11.79 -17.66,-20.18 -33.48,-18.72 -15.82,1.45 -26.48,12.2 -23.82,24"
         style="fill:#008080;fill-opacity:1;fill-rule:evenodd;stroke:none"
         id="path142"
         inkscape:connector-curvature="0" /><path
         d="m 5643.47,4713.36 c 2.67,11.79 17.66,20.18 33.48,18.72 15.82,-1.45 26.48,-12.2 23.82,-24 -2.67,-11.79 -17.66,-20.18 -33.48,-18.72 -15.82,1.45 -26.48,12.2 -23.82,24"
         style="fill:none;stroke:#000000;stroke-width:10;stroke-linecap:butt;stroke-linejoin:miter;stroke-miterlimit:10.43299961;stroke-dasharray:none;stroke-opacity:1"
         id="path144"
         inkscape:connector-curvature="0" /><path
         d="m 5661.44,4672.02 c 3.06,9.91 15.82,16.19 28.49,14.03 12.68,-2.16 20.48,-11.94 17.43,-21.85 -3.06,-9.91 -15.82,-16.18 -28.49,-14.03 -12.68,2.16 -20.48,11.94 -17.43,21.85"
         style="fill:#008080;fill-opacity:1;fill-rule:evenodd;stroke:none"
         id="path146"
         inkscape:connector-curvature="0" /><path
         d="m 5661.44,4672.02 c 3.06,9.91 15.82,16.19 28.49,14.03 12.68,-2.16 20.48,-11.94 17.43,-21.85 -3.06,-9.91 -15.82,-16.18 -28.49,-14.03 -12.68,2.16 -20.48,11.94 -17.43,21.85"
         style="fill:none;stroke:#000000;stroke-width:10;stroke-linecap:butt;stroke-linejoin:miter;stroke-miterlimit:10.43299961;stroke-dasharray:none;stroke-opacity:1"
         id="path148"
         inkscape:connector-curvature="0" /><path
         d="m 5685.47,4640.88 c 3.1,8.32 14.39,13.06 25.2,10.57 10.81,-2.49 17.06,-11.26 13.96,-19.59 -3.1,-8.32 -14.39,-13.06 -25.2,-10.57 -10.81,2.49 -17.06,11.26 -13.96,19.59"
         style="fill:#008080;fill-opacity:1;fill-rule:evenodd;stroke:none"
         id="path150"
         inkscape:connector-curvature="0" /><path
         d="m 5685.47,4640.88 c 3.1,8.32 14.39,13.06 25.2,10.57 10.81,-2.49 17.06,-11.26 13.96,-19.59 -3.1,-8.32 -14.39,-13.06 -25.2,-10.57 -10.81,2.49 -17.06,11.26 -13.96,19.59"
         style="fill:none;stroke:#000000;stroke-width:10;stroke-linecap:butt;stroke-linejoin:miter;stroke-miterlimit:10.43299961;stroke-dasharray:none;stroke-opacity:1"
         id="path152"
         inkscape:connector-curvature="0" /><path
         d="m 5708.86,4615.42 c 3.07,7.28 13.64,10.97 23.6,8.24 9.98,-2.74 15.58,-10.86 12.52,-18.14 -3.07,-7.28 -13.64,-10.97 -23.6,-8.23 -9.98,2.73 -15.58,10.85 -12.52,18.13"
         style="fill:#008080;fill-opacity:1;fill-rule:evenodd;stroke:none"
         id="path154"
         inkscape:connector-curvature="0" /><path
         d="m 5708.86,4615.42 c 3.07,7.28 13.64,10.97 23.6,8.24 9.98,-2.74 15.58,-10.86 12.52,-18.14 -3.07,-7.28 -13.64,-10.97 -23.6,-8.23 -9.98,2.73 -15.58,10.85 -12.52,18.13"
         style="fill:none;stroke:#000000;stroke-width:10;stroke-linecap:butt;stroke-linejoin:miter;stroke-miterlimit:10.43299961;stroke-dasharray:none;stroke-opacity:1"
         id="path156"
         inkscape:connector-curvature="0" /><path
         d="m 957.801,4016.52 c -31.078,59.71 36.742,149.33 192.829,141.32 156.08,-8.01 348.14,84.82 392.01,-5.12 43.86,-89.93 36.46,-188.44 -94.15,-195.9 -130.61,-7.46 -179.64,153.27 -283.7,81.26 -104.07,-72 -175.899,-81.27 -206.989,-21.56"
         style="fill:#008080;fill-opacity:1;fill-rule:evenodd;stroke:none"
         id="path158"
         inkscape:connector-curvature="0" /><path
         d="m 957.801,4016.52 c -31.078,59.71 36.742,149.33 192.829,141.32 156.08,-8.01 348.14,84.82 392.01,-5.12 43.86,-89.93 36.46,-188.44 -94.15,-195.9 -130.61,-7.46 -179.64,153.27 -283.7,81.26 -104.07,-72 -175.899,-81.27 -206.989,-21.56 z"
         style="fill:none;stroke:#000000;stroke-width:10;stroke-linecap:butt;stroke-linejoin:miter;stroke-miterlimit:10.43299961;stroke-dasharray:none;stroke-opacity:1"
         id="path160"
         inkscape:connector-curvature="0" /><path
         d="m 1671.76,4003.73 c 0.19,-24.31 -25.46,-47.66 -57.3,-52.15 -31.83,-4.49 -57.8,11.58 -58,35.89 -0.19,24.31 25.46,47.66 57.29,52.15 31.84,4.49 57.81,-11.58 58.01,-35.89"
         style="fill:#008080;fill-opacity:1;fill-rule:evenodd;stroke:none"
         id="path162"
         inkscape:connector-curvature="0" /><path
         d="m 1671.76,4003.73 c 0.19,-24.31 -25.46,-47.66 -57.3,-52.15 -31.83,-4.49 -57.8,11.58 -58,35.89 -0.19,24.31 25.46,47.66 57.29,52.15 31.84,4.49 57.81,-11.58 58.01,-35.89"
         style="fill:none;stroke:#000000;stroke-width:10;stroke-linecap:butt;stroke-linejoin:miter;stroke-miterlimit:10.43299961;stroke-dasharray:none;stroke-opacity:1"
         id="path164"
         inkscape:connector-curvature="0" /><path
         d="m 1645.77,4063.28 c -2.67,-11.8 -17.66,-20.18 -33.48,-18.72 -15.82,1.45 -26.48,12.2 -23.82,24 2.67,11.8 17.66,20.18 33.48,18.73 15.82,-1.46 26.48,-12.21 23.82,-24.01"
         style="fill:#008080;fill-opacity:1;fill-rule:evenodd;stroke:none"
         id="path166"
         inkscape:connector-curvature="0" /><path
         d="m 1645.77,4063.28 c -2.67,-11.8 -17.66,-20.18 -33.48,-18.72 -15.82,1.45 -26.48,12.2 -23.82,24 2.67,11.8 17.66,20.18 33.48,18.73 15.82,-1.46 26.48,-12.21 23.82,-24.01"
         style="fill:none;stroke:#000000;stroke-width:10;stroke-linecap:butt;stroke-linejoin:miter;stroke-miterlimit:10.43299961;stroke-dasharray:none;stroke-opacity:1"
         id="path168"
         inkscape:connector-curvature="0" /><path
         d="m 1627.8,4104.62 c -3.06,-9.91 -15.82,-16.19 -28.5,-14.03 -12.67,2.16 -20.47,11.95 -17.42,21.85 3.06,9.91 15.82,16.19 28.5,14.03 12.67,-2.16 20.47,-11.94 17.42,-21.85"
         style="fill:#008080;fill-opacity:1;fill-rule:evenodd;stroke:none"
         id="path170"
         inkscape:connector-curvature="0" /><path
         d="m 1627.8,4104.62 c -3.06,-9.91 -15.82,-16.19 -28.5,-14.03 -12.67,2.16 -20.47,11.95 -17.42,21.85 3.06,9.91 15.82,16.19 28.5,14.03 12.67,-2.16 20.47,-11.94 17.42,-21.85"
         style="fill:none;stroke:#000000;stroke-width:10;stroke-linecap:butt;stroke-linejoin:miter;stroke-miterlimit:10.43299961;stroke-dasharray:none;stroke-opacity:1"
         id="path172"
         inkscape:connector-curvature="0" /><path
         d="m 1603.77,4135.76 c -3.1,-8.32 -14.39,-13.06 -25.2,-10.57 -10.81,2.49 -17.06,11.26 -13.96,19.59 3.1,8.32 14.39,13.06 25.2,10.57 10.82,-2.49 17.06,-11.26 13.96,-19.59"
         style="fill:#008080;fill-opacity:1;fill-rule:evenodd;stroke:none"
         id="path174"
         inkscape:connector-curvature="0" /><path
         d="m 1603.77,4135.76 c -3.1,-8.32 -14.39,-13.06 -25.2,-10.57 -10.81,2.49 -17.06,11.26 -13.96,19.59 3.1,8.32 14.39,13.06 25.2,10.57 10.82,-2.49 17.06,-11.26 13.96,-19.59"
         style="fill:none;stroke:#000000;stroke-width:10;stroke-linecap:butt;stroke-linejoin:miter;stroke-miterlimit:10.43299961;stroke-dasharray:none;stroke-opacity:1"
         id="path176"
         inkscape:connector-curvature="0" /><path
         d="m 1580.38,4161.22 c -3.07,-7.28 -13.64,-10.97 -23.61,-8.24 -9.97,2.74 -15.57,10.86 -12.5,18.14 3.06,7.28 13.63,10.97 23.6,8.24 9.97,-2.74 15.57,-10.86 12.51,-18.14"
         style="fill:#008080;fill-opacity:1;fill-rule:evenodd;stroke:none"
         id="path178"
         inkscape:connector-curvature="0" /><path
         d="m 1580.38,4161.22 c -3.07,-7.28 -13.64,-10.97 -23.61,-8.24 -9.97,2.74 -15.57,10.86 -12.5,18.14 3.06,7.28 13.63,10.97 23.6,8.24 9.97,-2.74 15.57,-10.86 12.51,-18.14"
         style="fill:none;stroke:#000000;stroke-width:10;stroke-linecap:butt;stroke-linejoin:miter;stroke-miterlimit:10.43299961;stroke-dasharray:none;stroke-opacity:1"
         id="path180"
         inkscape:connector-curvature="0" /><path
         d="m 2030.24,886.039 c -59.71,-31.078 -149.33,36.742 -141.32,192.831 8.01,156.08 -84.82,348.14 5.12,392.01 89.93,43.86 188.44,36.46 195.9,-94.15 7.46,-130.61 -153.27,-179.64 -81.26,-283.7 72,-104.069 81.27,-175.901 21.56,-206.991"
         style="fill:#008080;fill-opacity:1;fill-rule:evenodd;stroke:none"
         id="path182"
         inkscape:connector-curvature="0" /><path
         d="m 2030.24,886.039 c -59.71,-31.078 -149.33,36.742 -141.32,192.831 8.01,156.08 -84.82,348.14 5.12,392.01 89.93,43.86 188.44,36.46 195.9,-94.15 7.46,-130.61 -153.27,-179.64 -81.26,-283.7 72,-104.069 81.27,-175.901 21.56,-206.991 z"
         style="fill:none;stroke:#000000;stroke-width:10;stroke-linecap:butt;stroke-linejoin:miter;stroke-miterlimit:10.43299961;stroke-dasharray:none;stroke-opacity:1"
         id="path184"
         inkscape:connector-curvature="0" /><path
         d="m 2043.03,1600 c 24.31,0.2 47.66,-25.46 52.15,-57.29 4.49,-31.84 -11.58,-57.81 -35.89,-58.01 -24.31,-0.19 -47.66,25.46 -52.15,57.29 -4.49,31.84 11.58,57.81 35.89,58.01"
         style="fill:#008080;fill-opacity:1;fill-rule:evenodd;stroke:none"
         id="path186"
         inkscape:connector-curvature="0" /><path
         d="m 2043.03,1600 c 24.31,0.2 47.66,-25.46 52.15,-57.29 4.49,-31.84 -11.58,-57.81 -35.89,-58.01 -24.31,-0.19 -47.66,25.46 -52.15,57.29 -4.49,31.84 11.58,57.81 35.89,58.01"
         style="fill:none;stroke:#000000;stroke-width:10;stroke-linecap:butt;stroke-linejoin:miter;stroke-miterlimit:10.43299961;stroke-dasharray:none;stroke-opacity:1"
         id="path188"
         inkscape:connector-curvature="0" /><path
         d="m 1983.48,1574.01 c 11.79,-2.67 20.18,-17.66 18.72,-33.48 -1.45,-15.82 -12.2,-26.48 -24,-23.82 -11.79,2.67 -20.18,17.66 -18.72,33.48 1.45,15.82 12.2,26.48 24,23.82"
         style="fill:#008080;fill-opacity:1;fill-rule:evenodd;stroke:none"
         id="path190"
         inkscape:connector-curvature="0" /><path
         d="m 1983.48,1574.01 c 11.79,-2.67 20.18,-17.66 18.72,-33.48 -1.45,-15.82 -12.2,-26.48 -24,-23.82 -11.79,2.67 -20.18,17.66 -18.72,33.48 1.45,15.82 12.2,26.48 24,23.82"
         style="fill:none;stroke:#000000;stroke-width:10;stroke-linecap:butt;stroke-linejoin:miter;stroke-miterlimit:10.43299961;stroke-dasharray:none;stroke-opacity:1"
         id="path192"
         inkscape:connector-curvature="0" /><path
         d="m 1942.14,1556.04 c 9.91,-3.06 16.18,-15.82 14.03,-28.49 -2.16,-12.68 -11.94,-20.48 -21.85,-17.43 -9.91,3.06 -16.19,15.82 -14.03,28.49 2.16,12.68 11.94,20.48 21.85,17.43"
         style="fill:#008080;fill-opacity:1;fill-rule:evenodd;stroke:none"
         id="path194"
         inkscape:connector-curvature="0" /><path
         d="m 1942.14,1556.04 c 9.91,-3.06 16.18,-15.82 14.03,-28.49 -2.16,-12.68 -11.94,-20.48 -21.85,-17.43 -9.91,3.06 -16.19,15.82 -14.03,28.49 2.16,12.68 11.94,20.48 21.85,17.43"
         style="fill:none;stroke:#000000;stroke-width:10;stroke-linecap:butt;stroke-linejoin:miter;stroke-miterlimit:10.43299961;stroke-dasharray:none;stroke-opacity:1"
         id="path196"
         inkscape:connector-curvature="0" /><path
         d="m 1911,1532.01 c 8.32,-3.1 13.05,-14.39 10.57,-25.2 -2.49,-10.81 -11.27,-17.06 -19.59,-13.96 -8.32,3.1 -13.05,14.39 -10.57,25.2 2.49,10.81 11.27,17.06 19.59,13.96"
         style="fill:#008080;fill-opacity:1;fill-rule:evenodd;stroke:none"
         id="path198"
         inkscape:connector-curvature="0" /><path
         d="m 1911,1532.01 c 8.32,-3.1 13.05,-14.39 10.57,-25.2 -2.49,-10.81 -11.27,-17.06 -19.59,-13.96 -8.32,3.1 -13.05,14.39 -10.57,25.2 2.49,10.81 11.27,17.06 19.59,13.96"
         style="fill:none;stroke:#000000;stroke-width:10;stroke-linecap:butt;stroke-linejoin:miter;stroke-miterlimit:10.43299961;stroke-dasharray:none;stroke-opacity:1"
         id="path200"
         inkscape:connector-curvature="0" /><path
         d="m 1885.54,1508.62 c 7.28,-3.07 10.97,-13.64 8.23,-23.6 -2.73,-9.98 -10.85,-15.58 -18.13,-12.52 -7.28,3.07 -10.97,13.64 -8.23,23.61 2.73,9.97 10.86,15.57 18.13,12.51"
         style="fill:#008080;fill-opacity:1;fill-rule:evenodd;stroke:none"
         id="path202"
         inkscape:connector-curvature="0" /><path
         d="m 1885.54,1508.62 c 7.28,-3.07 10.97,-13.64 8.23,-23.6 -2.73,-9.98 -10.85,-15.58 -18.13,-12.52 -7.28,3.07 -10.97,13.64 -8.23,23.61 2.73,9.97 10.86,15.57 18.13,12.51"
         style="fill:none;stroke:#000000;stroke-width:10;stroke-linecap:butt;stroke-linejoin:miter;stroke-miterlimit:10.43299961;stroke-dasharray:none;stroke-opacity:1"
         id="path204"
         inkscape:connector-curvature="0" /><path
         d="m 4077.13,5104.32 c 59.71,31.08 149.33,-36.74 141.32,-192.83 -8.01,-156.08 84.82,-348.14 -5.12,-392.01 -89.93,-43.86 -188.44,-36.46 -195.9,94.15 -7.46,130.61 153.27,179.64 81.26,283.7 -72,104.07 -81.27,175.9 -21.56,206.99"
         style="fill:#008080;fill-opacity:1;fill-rule:evenodd;stroke:none"
         id="path206"
         inkscape:connector-curvature="0" /><path
         d="m 4077.13,5104.32 c 59.71,31.08 149.33,-36.74 141.32,-192.83 -8.01,-156.08 84.82,-348.14 -5.12,-392.01 -89.93,-43.86 -188.44,-36.46 -195.9,94.15 -7.46,130.61 153.27,179.64 81.26,283.7 -72,104.07 -81.27,175.9 -21.56,206.99 z"
         style="fill:none;stroke:#000000;stroke-width:10;stroke-linecap:butt;stroke-linejoin:miter;stroke-miterlimit:10.43299961;stroke-dasharray:none;stroke-opacity:1"
         id="path208"
         inkscape:connector-curvature="0" /><path
         d="m 4064.34,4390.36 c -24.31,-0.19 -47.66,25.46 -52.15,57.29 -4.49,31.84 11.58,57.81 35.89,58.01 24.31,0.19 47.66,-25.46 52.15,-57.29 4.49,-31.84 -11.58,-57.81 -35.89,-58.01"
         style="fill:#008080;fill-opacity:1;fill-rule:evenodd;stroke:none"
         id="path210"
         inkscape:connector-curvature="0" /><path
         d="m 4064.34,4390.36 c -24.31,-0.19 -47.66,25.46 -52.15,57.29 -4.49,31.84 11.58,57.81 35.89,58.01 24.31,0.19 47.66,-25.46 52.15,-57.29 4.49,-31.84 -11.58,-57.81 -35.89,-58.01"
         style="fill:none;stroke:#000000;stroke-width:10;stroke-linecap:butt;stroke-linejoin:miter;stroke-miterlimit:10.43299961;stroke-dasharray:none;stroke-opacity:1"
         id="path212"
         inkscape:connector-curvature="0" /><path
         d="m 4123.89,4416.35 c -11.79,2.67 -20.18,17.66 -18.72,33.48 1.45,15.82 12.2,26.48 24,23.82 11.79,-2.67 20.18,-17.66 18.72,-33.48 -1.45,-15.82 -12.2,-26.48 -24,-23.82"
         style="fill:#008080;fill-opacity:1;fill-rule:evenodd;stroke:none"
         id="path214"
         inkscape:connector-curvature="0" /><path
         d="m 4123.89,4416.35 c -11.79,2.67 -20.18,17.66 -18.72,33.48 1.45,15.82 12.2,26.48 24,23.82 11.79,-2.67 20.18,-17.66 18.72,-33.48 -1.45,-15.82 -12.2,-26.48 -24,-23.82"
         style="fill:none;stroke:#000000;stroke-width:10;stroke-linecap:butt;stroke-linejoin:miter;stroke-miterlimit:10.43299961;stroke-dasharray:none;stroke-opacity:1"
         id="path216"
         inkscape:connector-curvature="0" /><path
         d="m 4165.23,4434.32 c -9.91,3.06 -16.19,15.82 -14.03,28.49 2.16,12.68 11.94,20.48 21.85,17.43 9.91,-3.06 16.18,-15.82 14.03,-28.49 -2.16,-12.68 -11.94,-20.48 -21.85,-17.43"
         style="fill:#008080;fill-opacity:1;fill-rule:evenodd;stroke:none"
         id="path218"
         inkscape:connector-curvature="0" /><path
         d="m 4165.23,4434.32 c -9.91,3.06 -16.19,15.82 -14.03,28.49 2.16,12.68 11.94,20.48 21.85,17.43 9.91,-3.06 16.18,-15.82 14.03,-28.49 -2.16,-12.68 -11.94,-20.48 -21.85,-17.43"
         style="fill:none;stroke:#000000;stroke-width:10;stroke-linecap:butt;stroke-linejoin:miter;stroke-miterlimit:10.43299961;stroke-dasharray:none;stroke-opacity:1"
         id="path220"
         inkscape:connector-curvature="0" /><path
         d="m 4196.37,4458.35 c -8.32,3.1 -13.06,14.39 -10.57,25.2 2.49,10.81 11.26,17.06 19.59,13.96 8.32,-3.1 13.06,-14.39 10.57,-25.2 -2.49,-10.81 -11.26,-17.06 -19.59,-13.96"
         style="fill:#008080;fill-opacity:1;fill-rule:evenodd;stroke:none"
         id="path222"
         inkscape:connector-curvature="0" /><path
         d="m 4196.37,4458.35 c -8.32,3.1 -13.06,14.39 -10.57,25.2 2.49,10.81 11.26,17.06 19.59,13.96 8.32,-3.1 13.06,-14.39 10.57,-25.2 -2.49,-10.81 -11.26,-17.06 -19.59,-13.96"
         style="fill:none;stroke:#000000;stroke-width:10;stroke-linecap:butt;stroke-linejoin:miter;stroke-miterlimit:10.43299961;stroke-dasharray:none;stroke-opacity:1"
         id="path224"
         inkscape:connector-curvature="0" /><path
         d="m 4221.83,4481.75 c -7.28,3.05 -10.97,13.63 -8.23,23.6 2.73,9.97 10.85,15.57 18.13,12.51 7.28,-3.07 10.97,-13.64 8.23,-23.61 -2.73,-9.96 -10.85,-15.57 -18.13,-12.5"
         style="fill:#008080;fill-opacity:1;fill-rule:evenodd;stroke:none"
         id="path226"
         inkscape:connector-curvature="0" /><path
         d="m 4221.83,4481.75 c -7.28,3.05 -10.97,13.63 -8.23,23.6 2.73,9.97 10.85,15.57 18.13,12.51 7.28,-3.07 10.97,-13.64 8.23,-23.61 -2.73,-9.96 -10.85,-15.57 -18.13,-12.5"
         style="fill:none;stroke:#000000;stroke-width:10;stroke-linecap:butt;stroke-linejoin:miter;stroke-miterlimit:10.43299961;stroke-dasharray:none;stroke-opacity:1"
         id="path228"
         inkscape:connector-curvature="0" /><path
         d="m 2870.53,2304.32 c 59.71,31.08 149.33,-36.74 141.32,-192.83 -8.01,-156.08 84.82,-348.14 -5.12,-392.01 -89.93,-43.86 -188.44,-36.46 -195.9,94.15 -7.46,130.61 153.27,179.64 81.26,283.7 -72,104.07 -81.27,175.9 -21.56,206.99"
         style="fill:#008080;fill-opacity:1;fill-rule:evenodd;stroke:none"
         id="path230"
         inkscape:connector-curvature="0" /><path
         d="m 2870.53,2304.32 c 59.71,31.08 149.33,-36.74 141.32,-192.83 -8.01,-156.08 84.82,-348.14 -5.12,-392.01 -89.93,-43.86 -188.44,-36.46 -195.9,94.15 -7.46,130.61 153.27,179.64 81.26,283.7 -72,104.07 -81.27,175.9 -21.56,206.99 z"
         style="fill:none;stroke:#000000;stroke-width:10;stroke-linecap:butt;stroke-linejoin:miter;stroke-miterlimit:10.43299961;stroke-dasharray:none;stroke-opacity:1"
         id="path232"
         inkscape:connector-curvature="0" /><path
         d="m 2857.74,1590.36 c -24.31,-0.19 -47.66,25.46 -52.15,57.29 -4.49,31.84 11.58,57.81 35.89,58.01 24.31,0.2 47.66,-25.46 52.15,-57.29 4.49,-31.84 -11.58,-57.81 -35.89,-58.01"
         style="fill:#008080;fill-opacity:1;fill-rule:evenodd;stroke:none"
         id="path234"
         inkscape:connector-curvature="0" /><path
         d="m 2857.74,1590.36 c -24.31,-0.19 -47.66,25.46 -52.15,57.29 -4.49,31.84 11.58,57.81 35.89,58.01 24.31,0.2 47.66,-25.46 52.15,-57.29 4.49,-31.84 -11.58,-57.81 -35.89,-58.01"
         style="fill:none;stroke:#000000;stroke-width:10;stroke-linecap:butt;stroke-linejoin:miter;stroke-miterlimit:10.43299961;stroke-dasharray:none;stroke-opacity:1"
         id="path236"
         inkscape:connector-curvature="0" /><path
         d="m 2917.29,1616.35 c -11.79,2.67 -20.18,17.66 -18.72,33.48 1.45,15.82 12.2,26.48 24,23.82 11.79,-2.67 20.18,-17.66 18.72,-33.48 -1.45,-15.82 -12.2,-26.48 -24,-23.82"
         style="fill:#008080;fill-opacity:1;fill-rule:evenodd;stroke:none"
         id="path238"
         inkscape:connector-curvature="0" /><path
         d="m 2917.29,1616.35 c -11.79,2.67 -20.18,17.66 -18.72,33.48 1.45,15.82 12.2,26.48 24,23.82 11.79,-2.67 20.18,-17.66 18.72,-33.48 -1.45,-15.82 -12.2,-26.48 -24,-23.82"
         style="fill:none;stroke:#000000;stroke-width:10;stroke-linecap:butt;stroke-linejoin:miter;stroke-miterlimit:10.43299961;stroke-dasharray:none;stroke-opacity:1"
         id="path240"
         inkscape:connector-curvature="0" /><path
         d="m 2958.63,1634.32 c -9.91,3.06 -16.18,15.82 -14.03,28.49 2.16,12.68 11.94,20.48 21.85,17.43 9.91,-3.06 16.19,-15.82 14.03,-28.49 -2.16,-12.68 -11.94,-20.48 -21.85,-17.43"
         style="fill:#008080;fill-opacity:1;fill-rule:evenodd;stroke:none"
         id="path242"
         inkscape:connector-curvature="0" /><path
         d="m 2958.63,1634.32 c -9.91,3.06 -16.18,15.82 -14.03,28.49 2.16,12.68 11.94,20.48 21.85,17.43 9.91,-3.06 16.19,-15.82 14.03,-28.49 -2.16,-12.68 -11.94,-20.48 -21.85,-17.43"
         style="fill:none;stroke:#000000;stroke-width:10;stroke-linecap:butt;stroke-linejoin:miter;stroke-miterlimit:10.43299961;stroke-dasharray:none;stroke-opacity:1"
         id="path244"
         inkscape:connector-curvature="0" /><path
         d="m 2989.77,1658.35 c -8.32,3.1 -13.06,14.39 -10.57,25.2 2.49,10.81 11.26,17.06 19.59,13.96 8.32,-3.1 13.06,-14.39 10.57,-25.2 -2.49,-10.81 -11.26,-17.06 -19.59,-13.96"
         style="fill:#008080;fill-opacity:1;fill-rule:evenodd;stroke:none"
         id="path246"
         inkscape:connector-curvature="0" /><path
         d="m 2989.77,1658.35 c -8.32,3.1 -13.06,14.39 -10.57,25.2 2.49,10.81 11.26,17.06 19.59,13.96 8.32,-3.1 13.06,-14.39 10.57,-25.2 -2.49,-10.81 -11.26,-17.06 -19.59,-13.96"
         style="fill:none;stroke:#000000;stroke-width:10;stroke-linecap:butt;stroke-linejoin:miter;stroke-miterlimit:10.43299961;stroke-dasharray:none;stroke-opacity:1"
         id="path248"
         inkscape:connector-curvature="0" /><path
         d="m 3015.23,1681.75 c -7.28,3.05 -10.97,13.63 -8.23,23.6 2.73,9.97 10.86,15.57 18.13,12.51 7.28,-3.07 10.97,-13.64 8.23,-23.61 -2.73,-9.96 -10.85,-15.57 -18.13,-12.5"
         style="fill:#008080;fill-opacity:1;fill-rule:evenodd;stroke:none"
         id="path250"
         inkscape:connector-curvature="0" /><path
         d="m 3015.23,1681.75 c -7.28,3.05 -10.97,13.63 -8.23,23.6 2.73,9.97 10.86,15.57 18.13,12.51 7.28,-3.07 10.97,-13.64 8.23,-23.61 -2.73,-9.96 -10.85,-15.57 -18.13,-12.5"
         style="fill:none;stroke:#000000;stroke-width:10;stroke-linecap:butt;stroke-linejoin:miter;stroke-miterlimit:10.43299961;stroke-dasharray:none;stroke-opacity:1"
         id="path252"
         inkscape:connector-curvature="0" /><path
         d="m 6007.25,2476.41 c -59.71,-31.08 -149.33,36.74 -141.32,192.83 8.01,156.08 -84.82,348.14 5.12,392.01 89.93,43.86 188.44,36.46 195.9,-94.15 7.46,-130.61 -153.27,-179.64 -81.26,-283.7 72,-104.07 81.27,-175.9 21.56,-206.99"
         style="fill:#008080;fill-opacity:1;fill-rule:evenodd;stroke:none"
         id="path254"
         inkscape:connector-curvature="0" /><path
         d="m 6007.25,2476.41 c -59.71,-31.08 -149.33,36.74 -141.32,192.83 8.01,156.08 -84.82,348.14 5.12,392.01 89.93,43.86 188.44,36.46 195.9,-94.15 7.46,-130.61 -153.27,-179.64 -81.26,-283.7 72,-104.07 81.27,-175.9 21.56,-206.99 z"
         style="fill:none;stroke:#000000;stroke-width:10;stroke-linecap:butt;stroke-linejoin:miter;stroke-miterlimit:10.43299961;stroke-dasharray:none;stroke-opacity:1"
         id="path256"
         inkscape:connector-curvature="0" /><path
         d="m 5960.49,3164.38 c 11.8,-2.67 20.18,-17.66 18.72,-33.48 -1.45,-15.82 -12.2,-26.48 -24,-23.82 -11.8,2.67 -20.18,17.66 -18.73,33.48 1.46,15.82 12.21,26.48 24.01,23.82"
         style="fill:#008080;fill-opacity:1;fill-rule:evenodd;stroke:none"
         id="path258"
         inkscape:connector-curvature="0" /><path
         d="m 5960.49,3164.38 c 11.8,-2.67 20.18,-17.66 18.72,-33.48 -1.45,-15.82 -12.2,-26.48 -24,-23.82 -11.8,2.67 -20.18,17.66 -18.73,33.48 1.46,15.82 12.21,26.48 24.01,23.82"
         style="fill:none;stroke:#000000;stroke-width:10;stroke-linecap:butt;stroke-linejoin:miter;stroke-miterlimit:10.43299961;stroke-dasharray:none;stroke-opacity:1"
         id="path260"
         inkscape:connector-curvature="0" /><path
         d="m 5919.15,3146.41 c 9.91,-3.06 16.19,-15.82 14.03,-28.5 -2.16,-12.67 -11.95,-20.47 -21.85,-17.42 -9.91,3.06 -16.19,15.82 -14.03,28.49 2.16,12.68 11.95,20.48 21.85,17.43"
         style="fill:#008080;fill-opacity:1;fill-rule:evenodd;stroke:none"
         id="path262"
         inkscape:connector-curvature="0" /><path
         d="m 5919.15,3146.41 c 9.91,-3.06 16.19,-15.82 14.03,-28.5 -2.16,-12.67 -11.95,-20.47 -21.85,-17.42 -9.91,3.06 -16.19,15.82 -14.03,28.49 2.16,12.68 11.95,20.48 21.85,17.43"
         style="fill:none;stroke:#000000;stroke-width:10;stroke-linecap:butt;stroke-linejoin:miter;stroke-miterlimit:10.43299961;stroke-dasharray:none;stroke-opacity:1"
         id="path264"
         inkscape:connector-curvature="0" /><path
         d="m 5888.01,3122.38 c 8.32,-3.1 13.06,-14.39 10.57,-25.2 -2.49,-10.81 -11.26,-17.06 -19.59,-13.96 -8.32,3.1 -13.06,14.39 -10.57,25.2 2.49,10.81 11.26,17.06 19.59,13.96"
         style="fill:#008080;fill-opacity:1;fill-rule:evenodd;stroke:none"
         id="path266"
         inkscape:connector-curvature="0" /><path
         d="m 5888.01,3122.38 c 8.32,-3.1 13.06,-14.39 10.57,-25.2 -2.49,-10.81 -11.26,-17.06 -19.59,-13.96 -8.32,3.1 -13.06,14.39 -10.57,25.2 2.49,10.81 11.26,17.06 19.59,13.96"
         style="fill:none;stroke:#000000;stroke-width:10;stroke-linecap:butt;stroke-linejoin:miter;stroke-miterlimit:10.43299961;stroke-dasharray:none;stroke-opacity:1"
         id="path268"
         inkscape:connector-curvature="0" /><path
         d="m 5862.55,3098.98 c 7.28,-3.06 10.97,-13.63 8.24,-23.6 -2.74,-9.97 -10.86,-15.57 -18.14,-12.5 -7.28,3.06 -10.97,13.63 -8.24,23.6 2.74,9.97 10.86,15.57 18.14,12.5"
         style="fill:#008080;fill-opacity:1;fill-rule:evenodd;stroke:none"
         id="path270"
         inkscape:connector-curvature="0" /><path
         d="m 5862.55,3098.98 c 7.28,-3.06 10.97,-13.63 8.24,-23.6 -2.74,-9.97 -10.86,-15.57 -18.14,-12.5 -7.28,3.06 -10.97,13.63 -8.24,23.6 2.74,9.97 10.86,15.57 18.14,12.5"
         style="fill:none;stroke:#000000;stroke-width:10;stroke-linecap:butt;stroke-linejoin:miter;stroke-miterlimit:10.43299961;stroke-dasharray:none;stroke-opacity:1"
         id="path272"
         inkscape:connector-curvature="0" /><path
         d="m 3244.05,3683.77 c -59.71,-31.08 -149.33,36.74 -141.32,192.83 8.01,156.08 -84.82,348.14 5.12,392.01 89.93,43.86 188.44,36.46 195.9,-94.15 7.46,-130.61 -153.27,-179.64 -81.26,-283.7 72,-104.07 81.27,-175.9 21.56,-206.99"
         style="fill:#008080;fill-opacity:1;fill-rule:evenodd;stroke:none"
         id="path274"
         inkscape:connector-curvature="0" /><path
         d="m 3244.05,3683.77 c -59.71,-31.08 -149.33,36.74 -141.32,192.83 8.01,156.08 -84.82,348.14 5.12,392.01 89.93,43.86 188.44,36.46 195.9,-94.15 7.46,-130.61 -153.27,-179.64 -81.26,-283.7 72,-104.07 81.27,-175.9 21.56,-206.99 z"
         style="fill:none;stroke:#000000;stroke-width:10;stroke-linecap:butt;stroke-linejoin:miter;stroke-miterlimit:10.43299961;stroke-dasharray:none;stroke-opacity:1"
         id="path276"
         inkscape:connector-curvature="0" /><path
         d="m 3256.84,4397.73 c 24.31,0.19 47.66,-25.46 52.15,-57.29 4.49,-31.84 -11.58,-57.81 -35.89,-58.01 -24.31,-0.19 -47.66,25.46 -52.15,57.29 -4.49,31.84 11.58,57.81 35.89,58.01"
         style="fill:#008080;fill-opacity:1;fill-rule:evenodd;stroke:none"
         id="path278"
         inkscape:connector-curvature="0" /><path
         d="m 3256.84,4397.73 c 24.31,0.19 47.66,-25.46 52.15,-57.29 4.49,-31.84 -11.58,-57.81 -35.89,-58.01 -24.31,-0.19 -47.66,25.46 -52.15,57.29 -4.49,31.84 11.58,57.81 35.89,58.01"
         style="fill:none;stroke:#000000;stroke-width:10;stroke-linecap:butt;stroke-linejoin:miter;stroke-miterlimit:10.43299961;stroke-dasharray:none;stroke-opacity:1"
         id="path280"
         inkscape:connector-curvature="0" /><path
         d="m 3197.29,4371.74 c 11.8,-2.67 20.18,-17.66 18.72,-33.48 -1.45,-15.82 -12.2,-26.48 -24,-23.82 -11.8,2.67 -20.18,17.66 -18.72,33.48 1.45,15.82 12.2,26.48 24,23.82"
         style="fill:#008080;fill-opacity:1;fill-rule:evenodd;stroke:none"
         id="path282"
         inkscape:connector-curvature="0" /><path
         d="m 3197.29,4371.74 c 11.8,-2.67 20.18,-17.66 18.72,-33.48 -1.45,-15.82 -12.2,-26.48 -24,-23.82 -11.8,2.67 -20.18,17.66 -18.72,33.48 1.45,15.82 12.2,26.48 24,23.82"
         style="fill:none;stroke:#000000;stroke-width:10;stroke-linecap:butt;stroke-linejoin:miter;stroke-miterlimit:10.43299961;stroke-dasharray:none;stroke-opacity:1"
         id="path284"
         inkscape:connector-curvature="0" /><path
         d="m 3155.95,4353.77 c 9.91,-3.06 16.19,-15.82 14.03,-28.49 -2.16,-12.68 -11.94,-20.48 -21.85,-17.43 -9.91,3.06 -16.18,15.82 -14.03,28.49 2.16,12.68 11.94,20.48 21.85,17.43"
         style="fill:#008080;fill-opacity:1;fill-rule:evenodd;stroke:none"
         id="path286"
         inkscape:connector-curvature="0" /><path
         d="m 3155.95,4353.77 c 9.91,-3.06 16.19,-15.82 14.03,-28.49 -2.16,-12.68 -11.94,-20.48 -21.85,-17.43 -9.91,3.06 -16.18,15.82 -14.03,28.49 2.16,12.68 11.94,20.48 21.85,17.43"
         style="fill:none;stroke:#000000;stroke-width:10;stroke-linecap:butt;stroke-linejoin:miter;stroke-miterlimit:10.43299961;stroke-dasharray:none;stroke-opacity:1"
         id="path288"
         inkscape:connector-curvature="0" /><path
         d="m 3124.81,4329.74 c 8.32,-3.1 13.06,-14.39 10.57,-25.2 -2.49,-10.81 -11.26,-17.06 -19.59,-13.96 -8.32,3.1 -13.06,14.39 -10.57,25.2 2.49,10.81 11.26,17.06 19.59,13.96"
         style="fill:#008080;fill-opacity:1;fill-rule:evenodd;stroke:none"
         id="path290"
         inkscape:connector-curvature="0" /><path
         d="m 3124.81,4329.74 c 8.32,-3.1 13.06,-14.39 10.57,-25.2 -2.49,-10.81 -11.26,-17.06 -19.59,-13.96 -8.32,3.1 -13.06,14.39 -10.57,25.2 2.49,10.81 11.26,17.06 19.59,13.96"
         style="fill:none;stroke:#000000;stroke-width:10;stroke-linecap:butt;stroke-linejoin:miter;stroke-miterlimit:10.43299961;stroke-dasharray:none;stroke-opacity:1"
         id="path292"
         inkscape:connector-curvature="0" /><path
         d="m 3099.35,4306.35 c 7.28,-3.06 10.97,-13.64 8.24,-23.61 -2.74,-9.97 -10.86,-15.57 -18.14,-12.51 -7.28,3.07 -10.97,13.64 -8.24,23.61 2.74,9.96 10.86,15.57 18.14,12.51"
         style="fill:#008080;fill-opacity:1;fill-rule:evenodd;stroke:none"
         id="path294"
         inkscape:connector-curvature="0" /><path
         d="m 3099.35,4306.35 c 7.28,-3.06 10.97,-13.64 8.24,-23.61 -2.74,-9.97 -10.86,-15.57 -18.14,-12.51 -7.28,3.07 -10.97,13.64 -8.24,23.61 2.74,9.96 10.86,15.57 18.14,12.51"
         style="fill:none;stroke:#000000;stroke-width:10;stroke-linecap:butt;stroke-linejoin:miter;stroke-miterlimit:10.43299961;stroke-dasharray:none;stroke-opacity:1"
         id="path296"
         inkscape:connector-curvature="0" /><path
         d="m 5052.85,2590.36 c -400,200 -600,1200 0,1200 m -2000,-800 c 200,-400 200,-800 800,-800 m 0,0 c 0,400 200,400 600,200"
         style="fill:none;stroke:#000000;stroke-width:120;stroke-linecap:round;stroke-linejoin:round;stroke-miterlimit:10.43299961;stroke-dasharray:none;stroke-opacity:1"
         id="path298"
         inkscape:connector-curvature="0" /><path
         d="m 3952.85,2190.36 c 0,55.23 -44.77,100 -100,100 -55.22,0 -100,-44.77 -100,-100 0,-55.23 44.78,-100 100,-100 55.23,0 100,44.77 100,100"
         style="fill:#0000ff;fill-opacity:1;fill-rule:evenodd;stroke:none"
         id="path300"
         inkscape:connector-curvature="0" /><path
         d="m 3952.85,2190.36 c 0,55.23 -44.77,100 -100,100 -55.22,0 -100,-44.77 -100,-100 0,-55.23 44.78,-100 100,-100 55.23,0 100,44.77 100,100"
         style="fill:none;stroke:#000000;stroke-width:10;stroke-linecap:butt;stroke-linejoin:miter;stroke-miterlimit:10.43299961;stroke-dasharray:none;stroke-opacity:1"
         id="path302"
         inkscape:connector-curvature="0" /><path
         d="m 3152.85,2990.36 c 0,55.23 -44.77,100 -100,100 -55.22,0 -100,-44.77 -100,-100 0,-55.23 44.78,-100 100,-100 55.23,0 100,44.77 100,100"
         style="fill:#0000ff;fill-opacity:1;fill-rule:evenodd;stroke:none"
         id="path304"
         inkscape:connector-curvature="0" /><path
         d="m 3152.85,2990.36 c 0,55.23 -44.77,100 -100,100 -55.22,0 -100,-44.77 -100,-100 0,-55.23 44.78,-100 100,-100 55.23,0 100,44.77 100,100"
         style="fill:none;stroke:#000000;stroke-width:10;stroke-linecap:butt;stroke-linejoin:miter;stroke-miterlimit:10.43299961;stroke-dasharray:none;stroke-opacity:1"
         id="path306"
         inkscape:connector-curvature="0" /><path
         d="m 5152.85,2590.36 c 0,55.23 -44.77,100 -100,100 -55.22,0 -100,-44.77 -100,-100 0,-55.23 44.78,-100 100,-100 55.23,0 100,44.77 100,100"
         style="fill:#0000ff;fill-opacity:1;fill-rule:evenodd;stroke:none"
         id="path308"
         inkscape:connector-curvature="0" /><path
         d="m 5152.85,2590.36 c 0,55.23 -44.77,100 -100,100 -55.22,0 -100,-44.77 -100,-100 0,-55.23 44.78,-100 100,-100 55.23,0 100,44.77 100,100"
         style="fill:none;stroke:#000000;stroke-width:10;stroke-linecap:butt;stroke-linejoin:miter;stroke-miterlimit:10.43299961;stroke-dasharray:none;stroke-opacity:1"
         id="path310"
         inkscape:connector-curvature="0" /><path
         d="m 5152.85,3790.36 c 0,55.23 -44.77,100 -100,100 -55.22,0 -100,-44.77 -100,-100 0,-55.23 44.78,-100 100,-100 55.23,0 100,44.77 100,100"
         style="fill:#0000ff;fill-opacity:1;fill-rule:evenodd;stroke:none"
         id="path312"
         inkscape:connector-curvature="0" /><path
         d="m 5152.85,3790.36 c 0,55.23 -44.77,100 -100,100 -55.22,0 -100,-44.77 -100,-100 0,-55.23 44.78,-100 100,-100 55.23,0 100,44.77 100,100"
         style="fill:none;stroke:#000000;stroke-width:10;stroke-linecap:butt;stroke-linejoin:miter;stroke-miterlimit:10.43299961;stroke-dasharray:none;stroke-opacity:1"
         id="path314"
         inkscape:connector-curvature="0" /></g></g></svg>