<?xml version="1.0" encoding="UTF-8" standalone="no"?>
<!-- Created with Inkscape (http://www.inkscape.org/) -->

<svg
   xmlns:dc="http://purl.org/dc/elements/1.1/"
   xmlns:cc="http://creativecommons.org/ns#"
   xmlns:rdf="http://www.w3.org/1999/02/22-rdf-syntax-ns#"
   xmlns:svg="http://www.w3.org/2000/svg"
   xmlns="http://www.w3.org/2000/svg"
   xmlns:sodipodi="http://sodipodi.sourceforge.net/DTD/sodipodi-0.dtd"
   xmlns:inkscape="http://www.inkscape.org/namespaces/inkscape"
   version="1.1"
   id="svg2"
   xml:space="preserve"
   width="793.33331"
   height="1122.6667"
   viewBox="0 0 793.33331 1122.6667"
   sodipodi:docname="heesch-TGTG.svg"
   inkscape:version="0.92.2 (5c3e80d, 2017-08-06)"><metadata
     id="metadata8"><rdf:RDF><cc:Work
         rdf:about=""><dc:format>image/svg+xml</dc:format><dc:type
           rdf:resource="http://purl.org/dc/dcmitype/StillImage" /><dc:title></dc:title></cc:Work></rdf:RDF></metadata><defs
     id="defs6" /><sodipodi:namedview
     pagecolor="#ffffff"
     bordercolor="#666666"
     borderopacity="1"
     objecttolerance="10"
     gridtolerance="10"
     guidetolerance="10"
     inkscape:pageopacity="0"
     inkscape:pageshadow="2"
     inkscape:window-width="710"
     inkscape:window-height="480"
     id="namedview4"
     showgrid="false"
     inkscape:zoom="0.21021376"
     inkscape:cx="396.66666"
     inkscape:cy="561.33337"
     inkscape:window-x="0"
     inkscape:window-y="24"
     inkscape:window-maximized="0"
     inkscape:current-layer="g10" /><g
     id="g10"
     inkscape:groupmode="layer"
     inkscape:label="ink_ext_XXXXXX"
     transform="matrix(1.3333333,0,0,-1.3333333,0,1122.6667)"><g
       id="g12"
       transform="scale(0.1)"><path
         d="m 1000,1000 c 200,400 800,1000 1000,400 200,-600 400,-200 600,0 200,200 400,200 600,0 0,200 200,400 0,600 -200,200 -200,400 0,800 -200,200 -400,200 -600,0 -200,-200 -403.61,-604.82 -600,0 -196.39,604.82 -800,0 -1000,-400 0,-200 200,-400 0,-600 -200,-200 -200,-400 0,-800"
         style="fill:#ff7c00;fill-opacity:1;fill-rule:evenodd;stroke:none"
         id="path14"
         inkscape:connector-curvature="0" /><path
         d="m 1000,1000 c 200,400 800,1000 1000,400 200,-600 400,-200 600,0 200,200 400,200 600,0 0,200 200,400 0,600 -200,200 -200,400 0,800 -200,200 -400,200 -600,0 -200,-200 -403.61,-604.82 -600,0 -196.39,604.82 -800,0 -1000,-400 0,-200 200,-400 0,-600 -200,-200 -200,-400 0,-800 z"
         style="fill:none;stroke:#4d0000;stroke-width:40;stroke-linecap:round;stroke-linejoin:round;stroke-miterlimit:10.43299961;stroke-dasharray:none;stroke-opacity:1"
         id="path16"
         inkscape:connector-curvature="0" /><path
         d="m 1000,2400 c 200,400 800,1000 1000,400 200,-600 400,-200 600,0 200,200 400,200 600,0 0,200 200,400 0,600 -200,200 -200,400 0,800 -200,200 -400,200 -600,0 -200,-200 -403.61,-604.82 -600,0 -196.39,604.82 -800,0 -1000,-400 0,-200 200,-400 0,-600 -200,-200 -200,-400 0,-800"
         style="fill:#ffbd80;fill-opacity:1;fill-rule:evenodd;stroke:none"
         id="path18"
         inkscape:connector-curvature="0" /><path
         d="m 1000,2400 c 200,400 800,1000 1000,400 200,-600 400,-200 600,0 200,200 400,200 600,0 0,200 200,400 0,600 -200,200 -200,400 0,800 -200,200 -400,200 -600,0 -200,-200 -403.61,-604.82 -600,0 -196.39,604.82 -800,0 -1000,-400 0,-200 200,-400 0,-600 -200,-200 -200,-400 0,-800 z"
         style="fill:none;stroke:#4d0000;stroke-width:40;stroke-linecap:round;stroke-linejoin:round;stroke-miterlimit:10.43299961;stroke-dasharray:none;stroke-opacity:1"
         id="path20"
         inkscape:connector-curvature="0" /><path
         d="m 3200,2800 c 200,-400 800,-1000 1000,-400 200,600 400,200 600,0 200,-200 400,-200 600,0 0,-200 200,-400 0,-600 -200,-200 -200,-400 0,-800 -200,-200 -400,-200 -600,0 -200,200 -403.61,604.82 -600,0 -196.39,-604.816 -800,0 -1000,400 0,200 200,400 0,600 -200,200 -200,400 0,800"
         style="fill:#ffbd80;fill-opacity:1;fill-rule:evenodd;stroke:none"
         id="path22"
         inkscape:connector-curvature="0" /><path
         d="m 3200,2800 c 200,-400 800,-1000 1000,-400 200,600 400,200 600,0 200,-200 400,-200 600,0 0,-200 200,-400 0,-600 -200,-200 -200,-400 0,-800 -200,-200 -400,-200 -600,0 -200,200 -403.61,604.82 -600,0 -196.39,-604.816 -800,0 -1000,400 0,200 200,400 0,600 -200,200 -200,400 0,800 z"
         style="fill:none;stroke:#4d0000;stroke-width:40;stroke-linecap:round;stroke-linejoin:round;stroke-miterlimit:10.43299961;stroke-dasharray:none;stroke-opacity:1"
         id="path24"
         inkscape:connector-curvature="0" /><path
         d="m 3200,4200 c 200,-400 800,-1000 1000,-400 200,600 400,200 600,0 200,-200 400,-200 600,0 0,-200 200,-400 0,-600 -200,-200 -200,-400 0,-800 -200,-200 -400,-200 -600,0 -200,200 -403.61,604.82 -600,0 -196.39,-604.82 -800,0 -1000,400 0,200 200,400 0,600 -200,200 -200,400 0,800"
         style="fill:#ffecd9;fill-opacity:1;fill-rule:evenodd;stroke:none"
         id="path26"
         inkscape:connector-curvature="0" /><path
         d="m 3200,4200 c 200,-400 800,-1000 1000,-400 200,600 400,200 600,0 200,-200 400,-200 600,0 0,-200 200,-400 0,-600 -200,-200 -200,-400 0,-800 -200,-200 -400,-200 -600,0 -200,200 -403.61,604.82 -600,0 -196.39,-604.82 -800,0 -1000,400 0,200 200,400 0,600 -200,200 -200,400 0,800 z"
         style="fill:none;stroke:#4d0000;stroke-width:40;stroke-linecap:round;stroke-linejoin:round;stroke-miterlimit:10.43299961;stroke-dasharray:none;stroke-opacity:1"
         id="path28"
         inkscape:connector-curvature="0" /><path
         d="m 3300,2800 c 0,55.23 -44.77,100 -100,100 -55.23,0 -100,-44.77 -100,-100 0,-55.23 44.77,-100 100,-100 55.23,0 100,44.77 100,100"
         style="fill:#0000ff;fill-opacity:1;fill-rule:evenodd;stroke:none"
         id="path30"
         inkscape:connector-curvature="0" /><path
         d="m 3300,2800 c 0,55.23 -44.77,100 -100,100 -55.23,0 -100,-44.77 -100,-100 0,-55.23 44.77,-100 100,-100 55.23,0 100,44.77 100,100"
         style="fill:none;stroke:#000000;stroke-width:10;stroke-linecap:butt;stroke-linejoin:miter;stroke-miterlimit:10.43299961;stroke-dasharray:none;stroke-opacity:1"
         id="path32"
         inkscape:connector-curvature="0" /><path
         d="M 800,1900 H 6400"
         style="fill:none;stroke:#00797d;stroke-width:40;stroke-linecap:butt;stroke-linejoin:miter;stroke-miterlimit:10.43299961;stroke-dasharray:160, 160;stroke-dashoffset:0;stroke-opacity:1"
         id="path34"
         inkscape:connector-curvature="0" /><path
         d="M 800,3300 H 6400"
         style="fill:none;stroke:#007c80;stroke-width:40;stroke-linecap:butt;stroke-linejoin:miter;stroke-miterlimit:10.43299961;stroke-dasharray:160, 160;stroke-dashoffset:0;stroke-opacity:1"
         id="path36"
         inkscape:connector-curvature="0" /><path
         d="m 1983.2,4041.44 h -3.92 v 0 z"
         style="fill:none;stroke:#000000;stroke-width:10;stroke-linecap:butt;stroke-linejoin:miter;stroke-miterlimit:10.43299961;stroke-dasharray:none;stroke-opacity:1"
         id="path38"
         inkscape:connector-curvature="0" /><path
         d="m 2844.17,4903.62 v 0 0 z"
         style="fill:none;stroke:#000000;stroke-width:10;stroke-linecap:butt;stroke-linejoin:miter;stroke-miterlimit:10.43299961;stroke-dasharray:none;stroke-opacity:1"
         id="path40"
         inkscape:connector-curvature="0" /><path
         d="m 1362.44,3479.13 c -31.08,59.71 36.74,149.33 192.83,141.32 156.08,-8.01 348.14,84.82 392.01,-5.12 43.86,-89.93 36.46,-188.44 -94.15,-195.9 -130.61,-7.46 -179.64,153.27 -283.7,81.26 -104.07,-72 -175.9,-81.27 -206.99,-21.56"
         style="fill:#008080;fill-opacity:1;fill-rule:evenodd;stroke:none"
         id="path42"
         inkscape:connector-curvature="0" /><path
         d="m 1362.44,3479.13 c -31.08,59.71 36.74,149.33 192.83,141.32 156.08,-8.01 348.14,84.82 392.01,-5.12 43.86,-89.93 36.46,-188.44 -94.15,-195.9 -130.61,-7.46 -179.64,153.27 -283.7,81.26 -104.07,-72 -175.9,-81.27 -206.99,-21.56 z"
         style="fill:none;stroke:#000000;stroke-width:10;stroke-linecap:butt;stroke-linejoin:miter;stroke-miterlimit:10.43299961;stroke-dasharray:none;stroke-opacity:1"
         id="path44"
         inkscape:connector-curvature="0" /><path
         d="m 2076.4,3466.34 c 0.19,-24.31 -25.46,-47.66 -57.29,-52.15 -31.84,-4.49 -57.81,11.58 -58.01,35.89 -0.19,24.31 25.46,47.66 57.29,52.15 31.84,4.49 57.81,-11.58 58.01,-35.89"
         style="fill:#008080;fill-opacity:1;fill-rule:evenodd;stroke:none"
         id="path46"
         inkscape:connector-curvature="0" /><path
         d="m 2076.4,3466.34 c 0.19,-24.31 -25.46,-47.66 -57.29,-52.15 -31.84,-4.49 -57.81,11.58 -58.01,35.89 -0.19,24.31 25.46,47.66 57.29,52.15 31.84,4.49 57.81,-11.58 58.01,-35.89"
         style="fill:none;stroke:#000000;stroke-width:10;stroke-linecap:butt;stroke-linejoin:miter;stroke-miterlimit:10.43299961;stroke-dasharray:none;stroke-opacity:1"
         id="path48"
         inkscape:connector-curvature="0" /><path
         d="m 2050.41,3525.89 c -2.67,-11.79 -17.66,-20.18 -33.48,-18.72 -15.82,1.45 -26.48,12.2 -23.82,24 2.67,11.79 17.66,20.18 33.48,18.72 15.82,-1.45 26.48,-12.2 23.82,-24"
         style="fill:#008080;fill-opacity:1;fill-rule:evenodd;stroke:none"
         id="path50"
         inkscape:connector-curvature="0" /><path
         d="m 2050.41,3525.89 c -2.67,-11.79 -17.66,-20.18 -33.48,-18.72 -15.82,1.45 -26.48,12.2 -23.82,24 2.67,11.79 17.66,20.18 33.48,18.72 15.82,-1.45 26.48,-12.2 23.82,-24"
         style="fill:none;stroke:#000000;stroke-width:10;stroke-linecap:butt;stroke-linejoin:miter;stroke-miterlimit:10.43299961;stroke-dasharray:none;stroke-opacity:1"
         id="path52"
         inkscape:connector-curvature="0" /><path
         d="m 2032.44,3567.23 c -3.06,-9.91 -15.82,-16.19 -28.49,-14.03 -12.68,2.16 -20.48,11.94 -17.43,21.85 3.06,9.91 15.82,16.18 28.5,14.03 12.67,-2.16 20.47,-11.94 17.42,-21.85"
         style="fill:#008080;fill-opacity:1;fill-rule:evenodd;stroke:none"
         id="path54"
         inkscape:connector-curvature="0" /><path
         d="m 2032.44,3567.23 c -3.06,-9.91 -15.82,-16.19 -28.49,-14.03 -12.68,2.16 -20.48,11.94 -17.43,21.85 3.06,9.91 15.82,16.18 28.5,14.03 12.67,-2.16 20.47,-11.94 17.42,-21.85"
         style="fill:none;stroke:#000000;stroke-width:10;stroke-linecap:butt;stroke-linejoin:miter;stroke-miterlimit:10.43299961;stroke-dasharray:none;stroke-opacity:1"
         id="path56"
         inkscape:connector-curvature="0" /><path
         d="m 2008.41,3598.37 c -3.1,-8.32 -14.39,-13.06 -25.2,-10.57 -10.82,2.49 -17.06,11.26 -13.96,19.59 3.1,8.32 14.39,13.06 25.2,10.57 10.81,-2.49 17.06,-11.26 13.96,-19.59"
         style="fill:#008080;fill-opacity:1;fill-rule:evenodd;stroke:none"
         id="path58"
         inkscape:connector-curvature="0" /><path
         d="m 2008.41,3598.37 c -3.1,-8.32 -14.39,-13.06 -25.2,-10.57 -10.82,2.49 -17.06,11.26 -13.96,19.59 3.1,8.32 14.39,13.06 25.2,10.57 10.81,-2.49 17.06,-11.26 13.96,-19.59"
         style="fill:none;stroke:#000000;stroke-width:10;stroke-linecap:butt;stroke-linejoin:miter;stroke-miterlimit:10.43299961;stroke-dasharray:none;stroke-opacity:1"
         id="path60"
         inkscape:connector-curvature="0" /><path
         d="m 1985.02,3623.83 c -3.07,-7.28 -13.64,-10.97 -23.61,-8.24 -9.96,2.74 -15.57,10.86 -12.5,18.14 3.05,7.28 13.63,10.97 23.6,8.23 9.97,-2.73 15.57,-10.85 12.51,-18.13"
         style="fill:#008080;fill-opacity:1;fill-rule:evenodd;stroke:none"
         id="path62"
         inkscape:connector-curvature="0" /><path
         d="m 1985.02,3623.83 c -3.07,-7.28 -13.64,-10.97 -23.61,-8.24 -9.96,2.74 -15.57,10.86 -12.5,18.14 3.05,7.28 13.63,10.97 23.6,8.23 9.97,-2.73 15.57,-10.85 12.51,-18.13"
         style="fill:none;stroke:#000000;stroke-width:10;stroke-linecap:butt;stroke-linejoin:miter;stroke-miterlimit:10.43299961;stroke-dasharray:none;stroke-opacity:1"
         id="path64"
         inkscape:connector-curvature="0" /><path
         d="m 5762.44,3479.13 c -31.08,59.71 36.74,149.33 192.83,141.32 156.08,-8.01 348.14,84.82 392.01,-5.12 43.86,-89.93 36.46,-188.44 -94.15,-195.9 -130.61,-7.46 -179.64,153.27 -283.7,81.26 -104.07,-72 -175.9,-81.27 -206.99,-21.56"
         style="fill:#008080;fill-opacity:1;fill-rule:evenodd;stroke:none"
         id="path66"
         inkscape:connector-curvature="0" /><path
         d="m 5762.44,3479.13 c -31.08,59.71 36.74,149.33 192.83,141.32 156.08,-8.01 348.14,84.82 392.01,-5.12 43.86,-89.93 36.46,-188.44 -94.15,-195.9 -130.61,-7.46 -179.64,153.27 -283.7,81.26 -104.07,-72 -175.9,-81.27 -206.99,-21.56 z"
         style="fill:none;stroke:#000000;stroke-width:10;stroke-linecap:butt;stroke-linejoin:miter;stroke-miterlimit:10.43299961;stroke-dasharray:none;stroke-opacity:1"
         id="path68"
         inkscape:connector-curvature="0" /><path
         d="m 5762.44,2079.13 c -31.08,59.71 36.74,149.33 192.83,141.32 156.08,-8.01 348.14,84.82 392.01,-5.12 43.86,-89.93 36.46,-188.44 -94.15,-195.9 -130.61,-7.46 -179.64,153.27 -283.7,81.26 -104.07,-72 -175.9,-81.27 -206.99,-21.56"
         style="fill:#008080;fill-opacity:1;fill-rule:evenodd;stroke:none"
         id="path70"
         inkscape:connector-curvature="0" /><path
         d="m 5762.44,2079.13 c -31.08,59.71 36.74,149.33 192.83,141.32 156.08,-8.01 348.14,84.82 392.01,-5.12 43.86,-89.93 36.46,-188.44 -94.15,-195.9 -130.61,-7.46 -179.64,153.27 -283.7,81.26 -104.07,-72 -175.9,-81.27 -206.99,-21.56 z"
         style="fill:none;stroke:#000000;stroke-width:10;stroke-linecap:butt;stroke-linejoin:miter;stroke-miterlimit:10.43299961;stroke-dasharray:none;stroke-opacity:1"
         id="path72"
         inkscape:connector-curvature="0" /><path
         d="m 1362.44,2079.13 c -31.08,59.71 36.74,149.33 192.83,141.32 156.08,-8.01 348.14,84.82 392.01,-5.12 43.86,-89.93 36.46,-188.44 -94.15,-195.9 -130.61,-7.46 -179.64,153.27 -283.7,81.26 -104.07,-72 -175.9,-81.27 -206.99,-21.56"
         style="fill:#008080;fill-opacity:1;fill-rule:evenodd;stroke:none"
         id="path74"
         inkscape:connector-curvature="0" /><path
         d="m 1362.44,2079.13 c -31.08,59.71 36.74,149.33 192.83,141.32 156.08,-8.01 348.14,84.82 392.01,-5.12 43.86,-89.93 36.46,-188.44 -94.15,-195.9 -130.61,-7.46 -179.64,153.27 -283.7,81.26 -104.07,-72 -175.9,-81.27 -206.99,-21.56 z"
         style="fill:none;stroke:#000000;stroke-width:10;stroke-linecap:butt;stroke-linejoin:miter;stroke-miterlimit:10.43299961;stroke-dasharray:none;stroke-opacity:1"
         id="path76"
         inkscape:connector-curvature="0" /><path
         d="m 2076.4,2066.34 c 0.19,-24.31 -25.46,-47.66 -57.29,-52.15 -31.84,-4.49 -57.81,11.58 -58.01,35.89 -0.19,24.31 25.46,47.66 57.29,52.15 31.84,4.49 57.81,-11.58 58.01,-35.89"
         style="fill:#008080;fill-opacity:1;fill-rule:evenodd;stroke:none"
         id="path78"
         inkscape:connector-curvature="0" /><path
         d="m 2076.4,2066.34 c 0.19,-24.31 -25.46,-47.66 -57.29,-52.15 -31.84,-4.49 -57.81,11.58 -58.01,35.89 -0.19,24.31 25.46,47.66 57.29,52.15 31.84,4.49 57.81,-11.58 58.01,-35.89"
         style="fill:none;stroke:#000000;stroke-width:10;stroke-linecap:butt;stroke-linejoin:miter;stroke-miterlimit:10.43299961;stroke-dasharray:none;stroke-opacity:1"
         id="path80"
         inkscape:connector-curvature="0" /><path
         d="m 2050.41,2125.89 c -2.67,-11.79 -17.66,-20.18 -33.48,-18.72 -15.82,1.45 -26.48,12.2 -23.82,24 2.67,11.79 17.66,20.18 33.48,18.72 15.82,-1.45 26.48,-12.2 23.82,-24"
         style="fill:#008080;fill-opacity:1;fill-rule:evenodd;stroke:none"
         id="path82"
         inkscape:connector-curvature="0" /><path
         d="m 2050.41,2125.89 c -2.67,-11.79 -17.66,-20.18 -33.48,-18.72 -15.82,1.45 -26.48,12.2 -23.82,24 2.67,11.79 17.66,20.18 33.48,18.72 15.82,-1.45 26.48,-12.2 23.82,-24"
         style="fill:none;stroke:#000000;stroke-width:10;stroke-linecap:butt;stroke-linejoin:miter;stroke-miterlimit:10.43299961;stroke-dasharray:none;stroke-opacity:1"
         id="path84"
         inkscape:connector-curvature="0" /><path
         d="m 2032.44,2167.23 c -3.06,-9.91 -15.82,-16.19 -28.49,-14.03 -12.68,2.16 -20.48,11.94 -17.43,21.85 3.06,9.91 15.82,16.18 28.5,14.03 12.67,-2.16 20.47,-11.94 17.42,-21.85"
         style="fill:#008080;fill-opacity:1;fill-rule:evenodd;stroke:none"
         id="path86"
         inkscape:connector-curvature="0" /><path
         d="m 2032.44,2167.23 c -3.06,-9.91 -15.82,-16.19 -28.49,-14.03 -12.68,2.16 -20.48,11.94 -17.43,21.85 3.06,9.91 15.82,16.18 28.5,14.03 12.67,-2.16 20.47,-11.94 17.42,-21.85"
         style="fill:none;stroke:#000000;stroke-width:10;stroke-linecap:butt;stroke-linejoin:miter;stroke-miterlimit:10.43299961;stroke-dasharray:none;stroke-opacity:1"
         id="path88"
         inkscape:connector-curvature="0" /><path
         d="m 2008.41,2198.37 c -3.1,-8.32 -14.39,-13.06 -25.2,-10.57 -10.82,2.49 -17.06,11.26 -13.96,19.59 3.1,8.32 14.39,13.06 25.2,10.57 10.81,-2.49 17.06,-11.26 13.96,-19.59"
         style="fill:#008080;fill-opacity:1;fill-rule:evenodd;stroke:none"
         id="path90"
         inkscape:connector-curvature="0" /><path
         d="m 2008.41,2198.37 c -3.1,-8.32 -14.39,-13.06 -25.2,-10.57 -10.82,2.49 -17.06,11.26 -13.96,19.59 3.1,8.32 14.39,13.06 25.2,10.57 10.81,-2.49 17.06,-11.26 13.96,-19.59"
         style="fill:none;stroke:#000000;stroke-width:10;stroke-linecap:butt;stroke-linejoin:miter;stroke-miterlimit:10.43299961;stroke-dasharray:none;stroke-opacity:1"
         id="path92"
         inkscape:connector-curvature="0" /><path
         d="m 1985.02,2223.83 c -3.07,-7.28 -13.64,-10.97 -23.61,-8.23 -9.96,2.73 -15.57,10.85 -12.5,18.13 3.05,7.28 13.63,10.97 23.6,8.23 9.97,-2.73 15.57,-10.85 12.51,-18.13"
         style="fill:#008080;fill-opacity:1;fill-rule:evenodd;stroke:none"
         id="path94"
         inkscape:connector-curvature="0" /><path
         d="m 1985.02,2223.83 c -3.07,-7.28 -13.64,-10.97 -23.61,-8.23 -9.96,2.73 -15.57,10.85 -12.5,18.13 3.05,7.28 13.63,10.97 23.6,8.23 9.97,-2.73 15.57,-10.85 12.51,-18.13"
         style="fill:none;stroke:#000000;stroke-width:10;stroke-linecap:butt;stroke-linejoin:miter;stroke-miterlimit:10.43299961;stroke-dasharray:none;stroke-opacity:1"
         id="path96"
         inkscape:connector-curvature="0" /><path
         d="m 3562.44,1720.87 c -31.08,-59.71 36.74,-149.33 192.83,-141.32 156.08,8.01 348.14,-84.82 392.01,5.12 43.86,89.93 36.46,188.44 -94.15,195.9 -130.61,7.46 -179.64,-153.27 -283.7,-81.26 -104.07,72 -175.9,81.27 -206.99,21.56"
         style="fill:#008080;fill-opacity:1;fill-rule:evenodd;stroke:none"
         id="path98"
         inkscape:connector-curvature="0" /><path
         d="m 3562.44,1720.87 c -31.08,-59.71 36.74,-149.33 192.83,-141.32 156.08,8.01 348.14,-84.82 392.01,5.12 43.86,89.93 36.46,188.44 -94.15,195.9 -130.61,7.46 -179.64,-153.27 -283.7,-81.26 -104.07,72 -175.9,81.27 -206.99,21.56 z"
         style="fill:none;stroke:#000000;stroke-width:10;stroke-linecap:butt;stroke-linejoin:miter;stroke-miterlimit:10.43299961;stroke-dasharray:none;stroke-opacity:1"
         id="path100"
         inkscape:connector-curvature="0" /><path
         d="m 4276.4,1733.66 c 0.19,24.31 -25.46,47.66 -57.29,52.15 -31.84,4.49 -57.81,-11.58 -58.01,-35.89 -0.19,-24.31 25.46,-47.66 57.29,-52.15 31.84,-4.49 57.81,11.58 58.01,35.89"
         style="fill:#008080;fill-opacity:1;fill-rule:evenodd;stroke:none"
         id="path102"
         inkscape:connector-curvature="0" /><path
         d="m 4276.4,1733.66 c 0.19,24.31 -25.46,47.66 -57.29,52.15 -31.84,4.49 -57.81,-11.58 -58.01,-35.89 -0.19,-24.31 25.46,-47.66 57.29,-52.15 31.84,-4.49 57.81,11.58 58.01,35.89"
         style="fill:none;stroke:#000000;stroke-width:10;stroke-linecap:butt;stroke-linejoin:miter;stroke-miterlimit:10.43299961;stroke-dasharray:none;stroke-opacity:1"
         id="path104"
         inkscape:connector-curvature="0" /><path
         d="m 4250.41,1674.11 c -2.67,11.79 -17.66,20.18 -33.48,18.72 -15.82,-1.45 -26.48,-12.2 -23.82,-24 2.67,-11.79 17.66,-20.18 33.48,-18.72 15.82,1.45 26.48,12.2 23.82,24"
         style="fill:#008080;fill-opacity:1;fill-rule:evenodd;stroke:none"
         id="path106"
         inkscape:connector-curvature="0" /><path
         d="m 4250.41,1674.11 c -2.67,11.79 -17.66,20.18 -33.48,18.72 -15.82,-1.45 -26.48,-12.2 -23.82,-24 2.67,-11.79 17.66,-20.18 33.48,-18.72 15.82,1.45 26.48,12.2 23.82,24"
         style="fill:none;stroke:#000000;stroke-width:10;stroke-linecap:butt;stroke-linejoin:miter;stroke-miterlimit:10.43299961;stroke-dasharray:none;stroke-opacity:1"
         id="path108"
         inkscape:connector-curvature="0" /><path
         d="m 4232.44,1632.77 c -3.06,9.91 -15.82,16.19 -28.49,14.03 -12.68,-2.16 -20.48,-11.94 -17.43,-21.85 3.06,-9.91 15.82,-16.18 28.5,-14.03 12.67,2.16 20.47,11.94 17.42,21.85"
         style="fill:#008080;fill-opacity:1;fill-rule:evenodd;stroke:none"
         id="path110"
         inkscape:connector-curvature="0" /><path
         d="m 4232.44,1632.77 c -3.06,9.91 -15.82,16.19 -28.49,14.03 -12.68,-2.16 -20.48,-11.94 -17.43,-21.85 3.06,-9.91 15.82,-16.18 28.5,-14.03 12.67,2.16 20.47,11.94 17.42,21.85"
         style="fill:none;stroke:#000000;stroke-width:10;stroke-linecap:butt;stroke-linejoin:miter;stroke-miterlimit:10.43299961;stroke-dasharray:none;stroke-opacity:1"
         id="path112"
         inkscape:connector-curvature="0" /><path
         d="m 4208.41,1601.63 c -3.1,8.32 -14.39,13.06 -25.2,10.57 -10.82,-2.49 -17.06,-11.26 -13.96,-19.59 3.1,-8.32 14.39,-13.06 25.2,-10.57 10.82,2.49 17.06,11.26 13.96,19.59"
         style="fill:#008080;fill-opacity:1;fill-rule:evenodd;stroke:none"
         id="path114"
         inkscape:connector-curvature="0" /><path
         d="m 4208.41,1601.63 c -3.1,8.32 -14.39,13.06 -25.2,10.57 -10.82,-2.49 -17.06,-11.26 -13.96,-19.59 3.1,-8.32 14.39,-13.06 25.2,-10.57 10.82,2.49 17.06,11.26 13.96,19.59"
         style="fill:none;stroke:#000000;stroke-width:10;stroke-linecap:butt;stroke-linejoin:miter;stroke-miterlimit:10.43299961;stroke-dasharray:none;stroke-opacity:1"
         id="path116"
         inkscape:connector-curvature="0" /><path
         d="m 4185.02,1576.17 c -3.07,7.28 -13.64,10.97 -23.61,8.24 -9.96,-2.74 -15.57,-10.86 -12.5,-18.14 3.05,-7.28 13.63,-10.97 23.6,-8.23 9.97,2.73 15.57,10.85 12.51,18.13"
         style="fill:#008080;fill-opacity:1;fill-rule:evenodd;stroke:none"
         id="path118"
         inkscape:connector-curvature="0" /><path
         d="m 4185.02,1576.17 c -3.07,7.28 -13.64,10.97 -23.61,8.24 -9.96,-2.74 -15.57,-10.86 -12.5,-18.14 3.05,-7.28 13.63,-10.97 23.6,-8.23 9.97,2.73 15.57,10.85 12.51,18.13"
         style="fill:none;stroke:#000000;stroke-width:10;stroke-linecap:butt;stroke-linejoin:miter;stroke-miterlimit:10.43299961;stroke-dasharray:none;stroke-opacity:1"
         id="path120"
         inkscape:connector-curvature="0" /><path
         d="m 3562.44,3120.87 c -31.08,-59.71 36.74,-149.33 192.83,-141.32 156.08,8.01 348.14,-84.82 392.01,5.12 43.86,89.93 36.46,188.44 -94.15,195.9 -130.61,7.46 -179.64,-153.27 -283.7,-81.26 -104.07,72 -175.9,81.27 -206.99,21.56"
         style="fill:#008080;fill-opacity:1;fill-rule:evenodd;stroke:none"
         id="path122"
         inkscape:connector-curvature="0" /><path
         d="m 3562.44,3120.87 c -31.08,-59.71 36.74,-149.33 192.83,-141.32 156.08,8.01 348.14,-84.82 392.01,5.12 43.86,89.93 36.46,188.44 -94.15,195.9 -130.61,7.46 -179.64,-153.27 -283.7,-81.26 -104.07,72 -175.9,81.27 -206.99,21.56 z"
         style="fill:none;stroke:#000000;stroke-width:10;stroke-linecap:butt;stroke-linejoin:miter;stroke-miterlimit:10.43299961;stroke-dasharray:none;stroke-opacity:1"
         id="path124"
         inkscape:connector-curvature="0" /><path
         d="m 4276.4,3133.66 c 0.19,24.31 -25.46,47.66 -57.29,52.15 -31.84,4.49 -57.81,-11.58 -58.01,-35.89 -0.19,-24.31 25.46,-47.66 57.29,-52.15 31.84,-4.49 57.81,11.58 58.01,35.89"
         style="fill:#008080;fill-opacity:1;fill-rule:evenodd;stroke:none"
         id="path126"
         inkscape:connector-curvature="0" /><path
         d="m 4276.4,3133.66 c 0.19,24.31 -25.46,47.66 -57.29,52.15 -31.84,4.49 -57.81,-11.58 -58.01,-35.89 -0.19,-24.31 25.46,-47.66 57.29,-52.15 31.84,-4.49 57.81,11.58 58.01,35.89"
         style="fill:none;stroke:#000000;stroke-width:10;stroke-linecap:butt;stroke-linejoin:miter;stroke-miterlimit:10.43299961;stroke-dasharray:none;stroke-opacity:1"
         id="path128"
         inkscape:connector-curvature="0" /><path
         d="m 4250.41,3074.11 c -2.67,11.79 -17.66,20.18 -33.48,18.72 -15.82,-1.45 -26.48,-12.2 -23.82,-24 2.67,-11.79 17.66,-20.18 33.48,-18.72 15.82,1.45 26.48,12.2 23.82,24"
         style="fill:#008080;fill-opacity:1;fill-rule:evenodd;stroke:none"
         id="path130"
         inkscape:connector-curvature="0" /><path
         d="m 4250.41,3074.11 c -2.67,11.79 -17.66,20.18 -33.48,18.72 -15.82,-1.45 -26.48,-12.2 -23.82,-24 2.67,-11.79 17.66,-20.18 33.48,-18.72 15.82,1.45 26.48,12.2 23.82,24"
         style="fill:none;stroke:#000000;stroke-width:10;stroke-linecap:butt;stroke-linejoin:miter;stroke-miterlimit:10.43299961;stroke-dasharray:none;stroke-opacity:1"
         id="path132"
         inkscape:connector-curvature="0" /><path
         d="m 4232.44,3032.77 c -3.06,9.91 -15.82,16.19 -28.49,14.03 -12.68,-2.16 -20.48,-11.94 -17.43,-21.85 3.06,-9.91 15.82,-16.18 28.5,-14.03 12.67,2.16 20.47,11.94 17.42,21.85"
         style="fill:#008080;fill-opacity:1;fill-rule:evenodd;stroke:none"
         id="path134"
         inkscape:connector-curvature="0" /><path
         d="m 4232.44,3032.77 c -3.06,9.91 -15.82,16.19 -28.49,14.03 -12.68,-2.16 -20.48,-11.94 -17.43,-21.85 3.06,-9.91 15.82,-16.18 28.5,-14.03 12.67,2.16 20.47,11.94 17.42,21.85"
         style="fill:none;stroke:#000000;stroke-width:10;stroke-linecap:butt;stroke-linejoin:miter;stroke-miterlimit:10.43299961;stroke-dasharray:none;stroke-opacity:1"
         id="path136"
         inkscape:connector-curvature="0" /><path
         d="m 4208.41,3001.63 c -3.1,8.32 -14.39,13.06 -25.2,10.57 -10.82,-2.49 -17.06,-11.26 -13.96,-19.59 3.1,-8.32 14.39,-13.06 25.2,-10.57 10.82,2.49 17.06,11.26 13.96,19.59"
         style="fill:#008080;fill-opacity:1;fill-rule:evenodd;stroke:none"
         id="path138"
         inkscape:connector-curvature="0" /><path
         d="m 4208.41,3001.63 c -3.1,8.32 -14.39,13.06 -25.2,10.57 -10.82,-2.49 -17.06,-11.26 -13.96,-19.59 3.1,-8.32 14.39,-13.06 25.2,-10.57 10.82,2.49 17.06,11.26 13.96,19.59"
         style="fill:none;stroke:#000000;stroke-width:10;stroke-linecap:butt;stroke-linejoin:miter;stroke-miterlimit:10.43299961;stroke-dasharray:none;stroke-opacity:1"
         id="path140"
         inkscape:connector-curvature="0" /><path
         d="m 4185.02,2976.17 c -3.07,7.28 -13.64,10.97 -23.61,8.24 -9.96,-2.74 -15.57,-10.86 -12.5,-18.14 3.05,-7.28 13.63,-10.97 23.6,-8.23 9.97,2.73 15.57,10.85 12.51,18.13"
         style="fill:#008080;fill-opacity:1;fill-rule:evenodd;stroke:none"
         id="path142"
         inkscape:connector-curvature="0" /><path
         d="m 4185.02,2976.17 c -3.07,7.28 -13.64,10.97 -23.61,8.24 -9.96,-2.74 -15.57,-10.86 -12.5,-18.14 3.05,-7.28 13.63,-10.97 23.6,-8.23 9.97,2.73 15.57,10.85 12.51,18.13"
         style="fill:none;stroke:#000000;stroke-width:10;stroke-linecap:butt;stroke-linejoin:miter;stroke-miterlimit:10.43299961;stroke-dasharray:none;stroke-opacity:1"
         id="path144"
         inkscape:connector-curvature="0" /><path
         d="m 1000,2400 c 0,-200 200,-400 0,-600 -200,-200 -200,-400 0,-800 200,400 800,1000 1000,400 200,-600 400,-200 600,0 200,200 400,200 600,0"
         style="fill:none;stroke:#000000;stroke-width:120;stroke-linecap:round;stroke-linejoin:round;stroke-miterlimit:10.43299961;stroke-dasharray:none;stroke-opacity:1"
         id="path146"
         inkscape:connector-curvature="0" /><path
         d="m 1100,2400 c 0,55.23 -44.77,100 -100,100 -55.227,0 -100,-44.77 -100,-100 0,-55.23 44.773,-100 100,-100 55.23,0 100,44.77 100,100"
         style="fill:#0000ff;fill-opacity:1;fill-rule:evenodd;stroke:none"
         id="path148"
         inkscape:connector-curvature="0" /><path
         d="m 1100,2400 c 0,55.23 -44.77,100 -100,100 -55.227,0 -100,-44.77 -100,-100 0,-55.23 44.773,-100 100,-100 55.23,0 100,44.77 100,100"
         style="fill:none;stroke:#000000;stroke-width:10;stroke-linecap:butt;stroke-linejoin:miter;stroke-miterlimit:10.43299961;stroke-dasharray:none;stroke-opacity:1"
         id="path150"
         inkscape:connector-curvature="0" /><path
         d="m 1100,1000 c 0,55.23 -44.77,100 -100,100 -55.227,0 -100,-44.77 -100,-100 0,-55.227 44.773,-100 100,-100 55.23,0 100,44.773 100,100"
         style="fill:#0000ff;fill-opacity:1;fill-rule:evenodd;stroke:none"
         id="path152"
         inkscape:connector-curvature="0" /><path
         d="m 1100,1000 c 0,55.23 -44.77,100 -100,100 -55.227,0 -100,-44.77 -100,-100 0,-55.227 44.773,-100 100,-100 55.23,0 100,44.773 100,100"
         style="fill:none;stroke:#000000;stroke-width:10;stroke-linecap:butt;stroke-linejoin:miter;stroke-miterlimit:10.43299961;stroke-dasharray:none;stroke-opacity:1"
         id="path154"
         inkscape:connector-curvature="0" /><path
         d="m 3300,1400 c 0,55.23 -44.77,100 -100,100 -55.23,0 -100,-44.77 -100,-100 0,-55.23 44.77,-100 100,-100 55.23,0 100,44.77 100,100"
         style="fill:#0000ff;fill-opacity:1;fill-rule:evenodd;stroke:none"
         id="path156"
         inkscape:connector-curvature="0" /><path
         d="m 3300,1400 c 0,55.23 -44.77,100 -100,100 -55.23,0 -100,-44.77 -100,-100 0,-55.23 44.77,-100 100,-100 55.23,0 100,44.77 100,100"
         style="fill:none;stroke:#000000;stroke-width:10;stroke-linecap:butt;stroke-linejoin:miter;stroke-miterlimit:10.43299961;stroke-dasharray:none;stroke-opacity:1"
         id="path158"
         inkscape:connector-curvature="0" /></g></g></svg>